Scheherazade-Bold.ufo
<glyph name="exclam" format="2">
  <advance width="617"/>
  <unicode hex="0021"/>
  <outline>
    <contour>
      <point x="445" y="1004" type="curve" smooth="yes" name="hr02"/>
      <point x="445" y="1086"/>
      <point x="414" y="1177"/>
      <point x="307" y="1177" type="curve" smooth="yes"/>
      <point x="202" y="1177"/>
      <point x="169" y="1086"/>
      <point x="169" y="1004" type="curve" smooth="yes"/>
      <point x="169" y="902"/>
      <point x="193" y="794"/>
      <point x="217" y="666" type="curve" smooth="yes"/>
      <point x="239" y="547"/>
      <point x="260" y="526"/>
      <point x="260" y="246" type="curve" smooth="yes" name="hr01"/>
      <point x="260" y="234"/>
      <point x="283" y="227"/>
      <point x="310" y="227" type="curve" smooth="yes"/>
      <point x="335" y="227"/>
      <point x="354" y="233"/>
      <point x="354" y="246" type="curve" smooth="yes"/>
      <point x="354" y="526"/>
      <point x="377" y="544"/>
      <point x="400" y="668" type="curve" smooth="yes"/>
      <point x="422" y="794"/>
      <point x="445" y="906"/>
    </contour>
    <contour>
      <point x="437" y="43" type="curve" smooth="yes"/>
      <point x="437" y="114"/>
      <point x="380" y="172"/>
      <point x="308" y="172" type="curve" smooth="yes"/>
      <point x="236" y="172"/>
      <point x="178" y="114"/>
      <point x="178" y="43" type="curve" smooth="yes"/>
      <point x="178" y="-28"/>
      <point x="236" y="-86"/>
      <point x="308" y="-86" type="curve" smooth="yes"/>
      <point x="380" y="-86"/>
      <point x="437" y="-28"/>
    </contour>
  </outline>
</glyph>
<glyph name="quotedbl" format="2">
  <advance width="853"/>
  <unicode hex="0022"/>
  <outline>
    <contour>
      <point x="720" y="933" type="curve" smooth="yes"/>
      <point x="720" y="995"/>
      <point x="670" y="1044"/>
      <point x="608" y="1044" type="curve" smooth="yes"/>
      <point x="545" y="1044"/>
      <point x="496" y="995"/>
      <point x="496" y="933" type="curve" smooth="yes"/>
      <point x="496" y="890"/>
      <point x="580" y="544"/>
      <point x="580" y="544" type="curve"/>
      <point x="635" y="544" type="line"/>
      <point x="635" y="544"/>
      <point x="720" y="890"/>
    </contour>
    <contour>
      <point x="357" y="933" type="curve" smooth="yes"/>
      <point x="357" y="995"/>
      <point x="306" y="1044"/>
      <point x="244" y="1044" type="curve" smooth="yes"/>
      <point x="181" y="1044"/>
      <point x="132" y="995"/>
      <point x="132" y="933" type="curve" smooth="yes"/>
      <point x="132" y="890"/>
      <point x="216" y="544"/>
      <point x="216" y="544" type="curve"/>
      <point x="271" y="544" type="line"/>
      <point x="271" y="544"/>
      <point x="357" y="890"/>
    </contour>
  </outline>
</glyph>
<glyph name="dollar" format="2">
  <advance width="944"/>
  <unicode hex="0024"/>
  <outline>
    <contour>
      <point x="884" y="329" type="curve" smooth="yes"/>
      <point x="884" y="578"/>
      <point x="671" y="672"/>
      <point x="528" y="775" type="curve"/>
      <point x="528" y="1163" type="line"/>
      <point x="650" y="1146"/>
      <point x="728" y="1014"/>
      <point x="743" y="850" type="curve"/>
      <point x="826" y="850" type="line" name="hr01"/>
      <point x="826" y="1168" type="line"/>
      <point x="725" y="1205"/>
      <point x="636" y="1243"/>
      <point x="528" y="1248" type="curve" name="hr02"/>
      <point x="528" y="1332" type="line"/>
      <point x="421" y="1332" type="line"/>
      <point x="421" y="1248" type="line"/>
      <point x="257" y="1236"/>
      <point x="78" y="1109"/>
      <point x="78" y="930" type="curve" smooth="yes"/>
      <point x="78" y="715"/>
      <point x="265" y="612"/>
      <point x="421" y="512" type="curve"/>
      <point x="421" y="59" type="line"/>
      <point x="317" y="73"/>
      <point x="202" y="181"/>
      <point x="190" y="350" type="curve"/>
      <point x="102" y="350" type="line"/>
      <point x="102" y="47" type="line"/>
      <point x="203" y="2"/>
      <point x="313" y="-22"/>
      <point x="421" y="-28" type="curve"/>
      <point x="421" y="-140" type="line"/>
      <point x="528" y="-140" type="line"/>
      <point x="528" y="-28" type="line"/>
      <point x="839" y="-6"/>
      <point x="884" y="42"/>
    </contour>
    <contour>
      <point x="421" y="815" type="line"/>
      <point x="338" y="866"/>
      <point x="290" y="948"/>
      <point x="290" y="1010" type="curve" smooth="yes" name="hr03"/>
      <point x="290" y="1087"/>
      <point x="320" y="1148"/>
      <point x="421" y="1163" type="curve"/>
    </contour>
    <contour>
      <point x="670" y="260" type="curve" smooth="yes"/>
      <point x="670" y="152"/>
      <point x="613" y="66"/>
      <point x="528" y="59" type="curve"/>
      <point x="528" y="473" type="line"/>
      <point x="624" y="408"/>
      <point x="670" y="328"/>
    </contour>
  </outline>
</glyph>
<glyph name="ampersand" format="2">
  <advance width="1540"/>
  <unicode hex="0026"/>
  <outline>
    <contour>
      <point x="1465" y="227" type="curve"/>
      <point x="1404" y="269" type="line"/>
      <point x="1368" y="188"/>
      <point x="1325" y="174"/>
      <point x="1284" y="174" type="curve" smooth="yes"/>
      <point x="1220" y="174"/>
      <point x="1148" y="218"/>
      <point x="1069" y="298" type="curve"/>
      <point x="1146" y="389"/>
      <point x="1200" y="462"/>
      <point x="1236" y="522" type="curve" smooth="yes"/>
      <point x="1279" y="593"/>
      <point x="1306" y="671"/>
      <point x="1346" y="700" type="curve" smooth="yes"/>
      <point x="1369" y="715"/>
      <point x="1420" y="725"/>
      <point x="1456" y="728" type="curve"/>
      <point x="1456" y="788" type="line"/>
      <point x="1031" y="788" type="line"/>
      <point x="1031" y="728" type="line"/>
      <point x="1108" y="718"/>
      <point x="1127" y="668"/>
      <point x="1127" y="618" type="curve" smooth="yes"/>
      <point x="1127" y="552"/>
      <point x="1050" y="446"/>
      <point x="985" y="378" type="curve"/>
      <point x="865" y="506"/>
      <point x="830" y="550"/>
      <point x="742" y="701" type="curve"/>
      <point x="884" y="754"/>
      <point x="1044" y="870"/>
      <point x="1044" y="1042" type="curve" smooth="yes"/>
      <point x="1044" y="1158"/>
      <point x="936" y="1253"/>
      <point x="763" y="1253" type="curve" smooth="yes"/>
      <point x="554" y="1253"/>
      <point x="407" y="1112"/>
      <point x="407" y="922" type="curve" smooth="yes"/>
      <point x="407" y="799"/>
      <point x="467" y="702"/>
      <point x="467" y="702" type="curve"/>
      <point x="295" y="631"/>
      <point x="74" y="494"/>
      <point x="74" y="287" type="curve" smooth="yes"/>
      <point x="74" y="106"/>
      <point x="220" y="-26"/>
      <point x="452" y="-26" type="curve" smooth="yes"/>
      <point x="626" y="-26"/>
      <point x="768" y="44"/>
      <point x="870" y="118" type="curve"/>
      <point x="958" y="36"/>
      <point x="1034" y="-26"/>
      <point x="1160" y="-26" type="curve" smooth="yes"/>
      <point x="1298" y="-26"/>
      <point x="1403" y="62"/>
    </contour>
    <contour>
      <point x="856" y="1022" type="curve" smooth="yes" name="hr01"/>
      <point x="856" y="914"/>
      <point x="749" y="810"/>
      <point x="696" y="787" type="curve"/>
      <point x="679" y="820"/>
      <point x="611" y="962"/>
      <point x="611" y="1051" type="curve" smooth="yes"/>
      <point x="611" y="1124"/>
      <point x="648" y="1178"/>
      <point x="715" y="1178" type="curve" smooth="yes"/>
      <point x="803" y="1178"/>
      <point x="856" y="1128"/>
    </contour>
    <contour>
      <point x="782" y="199" type="curve"/>
      <point x="782" y="199"/>
      <point x="673" y="110"/>
      <point x="546" y="110" type="curve" smooth="yes"/>
      <point x="439" y="110"/>
      <point x="336" y="204"/>
      <point x="336" y="350" type="curve" smooth="yes"/>
      <point x="336" y="466"/>
      <point x="421" y="575"/>
      <point x="510" y="611" type="curve"/>
      <point x="592" y="475"/>
      <point x="640" y="377"/>
    </contour>
  </outline>
</glyph>
<glyph name="parenleft" format="2">
  <advance width="635"/>
  <unicode hex="0028"/>
  <outline>
    <contour>
      <point x="592" y="-371" type="curve"/>
      <point x="592" y="-326" type="line"/>
      <point x="492" y="-270"/>
      <point x="426" y="-186"/>
      <point x="384" y="-76" type="curve" smooth="yes"/>
      <point x="332" y="59"/>
      <point x="316" y="233"/>
      <point x="316" y="440" type="curve" smooth="yes"/>
      <point x="316" y="637"/>
      <point x="331" y="805"/>
      <point x="377" y="940" type="curve" smooth="yes"/>
      <point x="419" y="1062"/>
      <point x="486" y="1154"/>
      <point x="592" y="1214" type="curve"/>
      <point x="592" y="1253" type="line"/>
      <point x="486" y="1216"/>
      <point x="390" y="1150"/>
      <point x="310" y="1063" type="curve" smooth="yes"/>
      <point x="164" y="906"/>
      <point x="71" y="683"/>
      <point x="71" y="440" type="curve" smooth="yes"/>
      <point x="71" y="199"/>
      <point x="162" y="-22"/>
      <point x="305" y="-178" type="curve" smooth="yes"/>
      <point x="386" y="-266"/>
      <point x="485" y="-334"/>
    </contour>
  </outline>
</glyph>
<glyph name="parenright" format="2">
  <unicode hex="0029"/>
  <advance width="529"/>
  <outline>
    <contour>
      <point x="59" y="-309" type="line"/>
      <point x="148" y="-278"/>
      <point x="230" y="-222"/>
      <point x="298" y="-148" type="curve" smooth="yes"/>
      <point x="417" y="-18"/>
      <point x="493" y="166"/>
      <point x="493" y="367" type="curve" smooth="yes"/>
      <point x="493" y="569"/>
      <point x="415" y="755"/>
      <point x="294" y="886" type="curve" smooth="yes"/>
      <point x="227" y="958"/>
      <point x="147" y="1013"/>
      <point x="59" y="1044" type="curve"/>
      <point x="59" y="1012" type="line"/>
      <point x="147" y="962"/>
      <point x="203" y="885"/>
      <point x="238" y="783" type="curve" smooth="yes"/>
      <point x="276" y="671"/>
      <point x="289" y="531"/>
      <point x="289" y="367" type="curve" smooth="yes"/>
      <point x="289" y="194"/>
      <point x="275" y="49"/>
      <point x="232" y="-63" type="curve" smooth="yes"/>
      <point x="197" y="-155"/>
      <point x="142" y="-225"/>
      <point x="59" y="-272" type="curve"/>
    </contour>
  </outline>
</glyph>
<glyph name="asterisk" format="2">
  <advance width="783"/>
  <unicode hex="002A"/>
  <outline>
    <contour>
      <point x="589" y="491" type="curve" smooth="yes"/>
      <point x="570" y="491"/>
      <point x="543" y="479"/>
      <point x="513" y="449" type="curve" smooth="yes"/>
      <point x="471" y="407"/>
      <point x="398" y="284"/>
      <point x="398" y="265" type="curve" smooth="yes"/>
      <point x="398" y="263"/>
      <point x="400" y="262"/>
      <point x="401" y="262" type="curve" smooth="yes"/>
      <point x="421" y="262"/>
      <point x="543" y="334"/>
      <point x="586" y="378" type="curve" smooth="yes"/>
      <point x="616" y="408"/>
      <point x="628" y="435"/>
      <point x="628" y="455" type="curve" smooth="yes"/>
      <point x="628" y="478"/>
      <point x="609" y="491"/>
    </contour>
    <contour>
      <point x="424" y="489" type="curve" smooth="yes" name="hr01"/>
      <point x="424" y="557"/>
      <point x="401" y="585"/>
      <point x="374" y="585" type="curve" smooth="yes"/>
      <point x="348" y="585"/>
      <point x="321" y="557"/>
      <point x="321" y="489" type="curve" smooth="yes"/>
      <point x="321" y="425"/>
      <point x="362" y="274"/>
      <point x="374" y="274" type="curve" smooth="yes"/>
      <point x="419" y="274"/>
      <point x="424" y="434"/>
    </contour>
    <contour>
      <point x="722" y="238" type="curve" smooth="yes"/>
      <point x="722" y="264"/>
      <point x="690" y="288"/>
      <point x="626" y="288" type="curve" smooth="yes"/>
      <point x="560" y="288"/>
      <point x="411" y="250"/>
      <point x="411" y="238" type="curve" smooth="yes"/>
      <point x="411" y="225"/>
      <point x="560" y="188"/>
      <point x="626" y="188" type="curve" smooth="yes"/>
      <point x="690" y="188"/>
      <point x="722" y="211"/>
    </contour>
    <contour>
      <point x="349" y="265" type="curve" smooth="yes"/>
      <point x="349" y="282"/>
      <point x="278" y="407"/>
      <point x="235" y="449" type="curve" smooth="yes"/>
      <point x="204" y="479"/>
      <point x="177" y="491"/>
      <point x="157" y="491" type="curve" smooth="yes" name="hr02"/>
      <point x="135" y="491"/>
      <point x="119" y="475"/>
      <point x="119" y="455" type="curve" smooth="yes"/>
      <point x="119" y="435"/>
      <point x="131" y="408"/>
      <point x="161" y="379" type="curve" smooth="yes"/>
      <point x="205" y="334"/>
      <point x="327" y="262"/>
      <point x="347" y="262" type="curve" smooth="yes"/>
      <point x="348" y="262"/>
      <point x="349" y="263"/>
    </contour>
    <contour>
      <point x="628" y="22" type="curve" smooth="yes" name="hr03"/>
      <point x="628" y="41"/>
      <point x="616" y="67"/>
      <point x="586" y="98" type="curve" smooth="yes"/>
      <point x="543" y="141"/>
      <point x="421" y="213"/>
      <point x="401" y="213" type="curve" smooth="yes"/>
      <point x="399" y="213"/>
      <point x="398" y="211"/>
      <point x="398" y="210" type="curve" smooth="yes"/>
      <point x="398" y="191"/>
      <point x="471" y="69"/>
      <point x="513" y="26" type="curve" smooth="yes"/>
      <point x="543" y="-4"/>
      <point x="570" y="-16"/>
      <point x="589" y="-16" type="curve" smooth="yes"/>
      <point x="613" y="-16"/>
      <point x="628" y="1"/>
    </contour>
    <contour>
      <point x="338" y="238" type="curve" smooth="yes"/>
      <point x="338" y="250"/>
      <point x="187" y="288"/>
      <point x="122" y="288" type="curve" smooth="yes"/>
      <point x="55" y="288"/>
      <point x="26" y="264"/>
      <point x="26" y="238" type="curve" smooth="yes"/>
      <point x="26" y="211"/>
      <point x="55" y="188"/>
      <point x="122" y="188" type="curve" smooth="yes" name="hr04"/>
      <point x="187" y="188"/>
      <point x="338" y="225"/>
    </contour>
    <contour>
      <point x="424" y="-14" type="curve" smooth="yes"/>
      <point x="424" y="50"/>
      <point x="383" y="201"/>
      <point x="374" y="201" type="curve" smooth="yes"/>
      <point x="362" y="201"/>
      <point x="321" y="50"/>
      <point x="321" y="-14" type="curve" smooth="yes"/>
      <point x="321" y="-82"/>
      <point x="348" y="-110"/>
      <point x="374" y="-110" type="curve" smooth="yes"/>
      <point x="401" y="-110"/>
      <point x="424" y="-82"/>
    </contour>
    <contour>
      <point x="347" y="213" type="curve"/>
      <point x="327" y="213"/>
      <point x="205" y="141"/>
      <point x="161" y="96" type="curve" smooth="yes"/>
      <point x="131" y="66"/>
      <point x="119" y="40"/>
      <point x="119" y="20" type="curve" smooth="yes" name="hr05"/>
      <point x="119" y="-2"/>
      <point x="138" y="-16"/>
      <point x="157" y="-16" type="curve" smooth="yes"/>
      <point x="177" y="-16"/>
      <point x="204" y="-4"/>
      <point x="235" y="26" type="curve" smooth="yes"/>
      <point x="278" y="69"/>
      <point x="349" y="193"/>
      <point x="349" y="210" type="curve" smooth="yes"/>
      <point x="349" y="212"/>
      <point x="348" y="213"/>
    </contour>
  </outline>
</glyph>
<glyph name="plus" format="2">
  <advance width="971"/>
  <unicode hex="002B"/>
  <outline>
    <contour>
      <point x="931" y="390" type="line"/>
      <point x="931" y="492" type="line"/>
      <point x="536" y="492" type="line"/>
      <point x="536" y="891" type="line"/>
      <point x="435" y="891" type="line"/>
      <point x="435" y="492" type="line"/>
      <point x="40" y="492" type="line"/>
      <point x="40" y="390" type="line"/>
      <point x="435" y="390" type="line"/>
      <point x="435" y="0" type="line"/>
      <point x="536" y="0" type="line"/>
      <point x="536" y="390" type="line"/>
    </contour>
  </outline>
</glyph>
<glyph name="comma" format="2">
  <advance width="401"/>
  <unicode hex="002C"/>
  <outline>
    <contour>
      <point x="346" y="43" type="line" smooth="yes"/>
      <point x="346" y="168"/>
      <point x="273" y="231"/>
      <point x="184" y="231" type="curve" smooth="yes"/>
      <point x="116" y="231"/>
      <point x="59" y="176"/>
      <point x="59" y="107" type="curve" smooth="yes"/>
      <point x="59" y="38"/>
      <point x="116" y="-10"/>
      <point x="184" y="-10" type="curve" smooth="yes"/>
      <point x="215" y="-10"/>
      <point x="226" y="7"/>
      <point x="238" y="7" type="curve" smooth="yes"/>
      <point x="251" y="7"/>
      <point x="254" y="-9"/>
      <point x="254" y="-20" type="curve" smooth="yes" name="hr01"/>
      <point x="254" y="-74"/>
      <point x="220" y="-184"/>
      <point x="88" y="-238" type="curve"/>
      <point x="88" y="-271" type="line"/>
      <point x="242" y="-226"/>
      <point x="346" y="-113"/>
      <point x="346" y="43" type="curve" smooth="yes"/>
    </contour>
  </outline>
</glyph>
<glyph name="period" format="2">
  <advance width="832"/>
  <unicode hex="002E"/>
  <outline>
    <contour>
      <point x="586" y="128" type="curve" smooth="yes"/>
      <point x="586" y="211"/>
      <point x="517" y="277"/>
      <point x="434" y="277" type="curve" smooth="yes"/>
      <point x="353" y="277"/>
      <point x="284" y="211"/>
      <point x="284" y="128" type="curve" smooth="yes"/>
      <point x="284" y="46"/>
      <point x="353" y="-22"/>
      <point x="434" y="-22" type="curve" smooth="yes"/>
      <point x="517" y="-22"/>
      <point x="586" y="46"/>
    </contour>
  </outline>
</glyph>
<glyph name="slash" format="2">
  <advance width="444"/>
  <unicode hex="002F"/>
  <outline>
    <contour>
      <point x="441" y="1044" type="line"/>
      <point x="343" y="1044" type="line"/>
      <point x="6" y="-22" type="line"/>
      <point x="104" y="-22" type="line"/>
    </contour>
  </outline>
</glyph>
<glyph name="zero" format="2">
  <advance width="787"/>
  <unicode hex="0030"/>
  <outline>
    <contour>
      <point x="723" y="511" type="curve" smooth="yes"/>
      <point x="723" y="756"/>
      <point x="636" y="1044"/>
      <point x="394" y="1044" type="curve" smooth="yes"/>
      <point x="152" y="1044"/>
      <point x="64" y="756"/>
      <point x="64" y="511" type="curve" smooth="yes"/>
      <point x="64" y="266"/>
      <point x="152" y="-22"/>
      <point x="394" y="-22" type="curve" smooth="yes"/>
      <point x="636" y="-22"/>
      <point x="723" y="266"/>
    </contour>
    <contour>
      <point x="492" y="541" type="curve" smooth="yes"/>
      <point x="492" y="327"/>
      <point x="475" y="53"/>
      <point x="394" y="53" type="curve" smooth="yes"/>
      <point x="312" y="53"/>
      <point x="291" y="267"/>
      <point x="291" y="481" type="curve" smooth="yes"/>
      <point x="291" y="695"/>
      <point x="312" y="969"/>
      <point x="394" y="969" type="curve" smooth="yes"/>
      <point x="475" y="969"/>
      <point x="492" y="755"/>
    </contour>
  </outline>
</glyph>
<glyph name="one" format="2">
  <advance width="787"/>
  <unicode hex="0031"/>
  <outline>
    <contour>
      <point x="662" y="0" type="line"/>
      <point x="662" y="60" type="line"/>
      <point x="539" y="60"/>
      <point x="513" y="87"/>
      <point x="513" y="192" type="curve" smooth="yes"/>
      <point x="513" y="1044" type="line"/>
      <point x="453" y="1044" type="line"/>
      <point x="102" y="872" type="line"/>
      <point x="125" y="816" type="line"/>
      <point x="164" y="834"/>
      <point x="194" y="841"/>
      <point x="217" y="841" type="curve" smooth="yes"/>
      <point x="291" y="841"/>
      <point x="291" y="785"/>
      <point x="291" y="718" type="curve" smooth="yes"/>
      <point x="291" y="192" type="line" smooth="yes"/>
      <point x="291" y="87"/>
      <point x="248" y="60"/>
      <point x="125" y="60" type="curve"/>
      <point x="125" y="0" type="line"/>
    </contour>
  </outline>
</glyph>
<glyph name="two" format="2">
  <advance width="787"/>
  <unicode hex="0032"/>
  <outline>
    <contour>
      <point x="744" y="296" type="line"/>
      <point x="684" y="296" type="line"/>
      <point x="644" y="210"/>
      <point x="562" y="197"/>
      <point x="465" y="197" type="curve" smooth="yes"/>
      <point x="279" y="197" type="line"/>
      <point x="338" y="254"/>
      <point x="412" y="308"/>
      <point x="477" y="382" type="curve" smooth="yes"/>
      <point x="571" y="488"/>
      <point x="667" y="603"/>
      <point x="667" y="776" type="curve" smooth="yes"/>
      <point x="667" y="917"/>
      <point x="547" y="1044"/>
      <point x="370" y="1044" type="curve" smooth="yes"/>
      <point x="178" y="1044"/>
      <point x="84" y="887"/>
      <point x="51" y="717" type="curve"/>
      <point x="112" y="717" type="line"/>
      <point x="145" y="821"/>
      <point x="208" y="866"/>
      <point x="298" y="866" type="curve" smooth="yes"/>
      <point x="388" y="866"/>
      <point x="460" y="803"/>
      <point x="460" y="702" type="curve" smooth="yes"/>
      <point x="460" y="497"/>
      <point x="321" y="358"/>
      <point x="55" y="60" type="curve"/>
      <point x="55" y="0" type="line"/>
      <point x="638" y="0" type="line"/>
    </contour>
  </outline>
</glyph>
<glyph name="three" format="2">
  <advance width="787"/>
  <unicode hex="0033"/>
  <outline>
    <contour>
      <point x="706" y="358" type="line" smooth="yes"/>
      <point x="706" y="502"/>
      <point x="619" y="582"/>
      <point x="524" y="624" type="curve"/>
      <point x="597" y="669"/>
      <point x="656" y="737"/>
      <point x="656" y="831" type="curve" smooth="yes" name="hr01"/>
      <point x="656" y="964"/>
      <point x="526" y="1044"/>
      <point x="398" y="1044" type="curve" smooth="yes"/>
      <point x="218" y="1044"/>
      <point x="134" y="910"/>
      <point x="76" y="781" type="curve"/>
      <point x="123" y="761" type="line"/>
      <point x="164" y="833"/>
      <point x="229" y="893"/>
      <point x="301" y="893" type="curve" smooth="yes"/>
      <point x="387" y="893"/>
      <point x="452" y="826"/>
      <point x="452" y="740" type="curve" smooth="yes"/>
      <point x="452" y="625"/>
      <point x="338" y="569"/>
      <point x="211" y="559" type="curve"/>
      <point x="211" y="499" type="line"/>
      <point x="397" y="484"/>
      <point x="515" y="374"/>
      <point x="515" y="209" type="curve" smooth="yes" name="hr02"/>
      <point x="515" y="129"/>
      <point x="460" y="76"/>
      <point x="381" y="76" type="curve" smooth="yes"/>
      <point x="253" y="76"/>
      <point x="217" y="183"/>
      <point x="132" y="183" type="curve" smooth="yes" name="hr03"/>
      <point x="75" y="183"/>
      <point x="48" y="141"/>
      <point x="48" y="95" type="curve" smooth="yes"/>
      <point x="48" y="1"/>
      <point x="183" y="-22"/>
      <point x="287" y="-22" type="curve" smooth="yes"/>
      <point x="527" y="-22"/>
      <point x="706" y="138"/>
      <point x="706" y="358" type="curve" smooth="yes"/>
    </contour>
  </outline>
</glyph>
<glyph name="four" format="2">
  <advance width="787"/>
  <unicode hex="0034"/>
  <outline>
    <contour>
      <point x="756" y="230" type="line"/>
      <point x="756" y="386" type="line"/>
      <point x="644" y="386" type="line"/>
      <point x="644" y="1044" type="line"/>
      <point x="485" y="1044" type="line"/>
      <point x="26" y="386" type="line"/>
      <point x="26" y="230" type="line"/>
      <point x="437" y="230" type="line"/>
      <point x="437" y="0" type="line"/>
      <point x="644" y="0" type="line"/>
      <point x="644" y="230" type="line"/>
    </contour>
    <contour>
      <point x="437" y="386" type="line"/>
      <point x="139" y="386" type="line"/>
      <point x="437" y="808" type="line"/>
    </contour>
  </outline>
</glyph>
<glyph name="five" format="2">
  <advance width="944"/>
  <unicode hex="0035"/>
  <outline>
    <contour>
      <point x="892" y="1226" type="line"/>
      <point x="341" y="1226" type="line"/>
      <point x="83" y="643" type="line"/>
      <point x="388" y="643"/>
      <point x="646" y="542"/>
      <point x="646" y="294" type="curve" smooth="yes"/>
      <point x="646" y="218"/>
      <point x="565" y="102"/>
      <point x="481" y="102" type="curve" smooth="yes"/>
      <point x="308" y="102"/>
      <point x="272" y="247"/>
      <point x="157" y="247" type="curve" smooth="yes" name="hr01"/>
      <point x="84" y="247"/>
      <point x="50" y="191"/>
      <point x="50" y="143" type="curve" smooth="yes"/>
      <point x="50" y="12"/>
      <point x="205" y="-26"/>
      <point x="329" y="-26" type="curve" smooth="yes"/>
      <point x="589" y="-26"/>
      <point x="840" y="190"/>
      <point x="840" y="468" type="curve" smooth="yes"/>
      <point x="840" y="736"/>
      <point x="612" y="868"/>
      <point x="317" y="871" type="curve"/>
      <point x="365" y="994" type="line"/>
      <point x="799" y="994" type="line"/>
    </contour>
  </outline>
</glyph>
<glyph name="six" format="2">
  <advance width="787"/>
  <unicode hex="0036"/>
  <outline>
    <contour>
      <point x="731" y="985" type="line"/>
      <point x="731" y="1044" type="line"/>
      <point x="710" y="1044" type="line" smooth="yes"/>
      <point x="312" y="1044"/>
      <point x="59" y="734"/>
      <point x="59" y="394" type="curve" smooth="yes"/>
      <point x="59" y="197"/>
      <point x="183" y="-22"/>
      <point x="391" y="-22" type="curve" smooth="yes"/>
      <point x="605" y="-22"/>
      <point x="726" y="157"/>
      <point x="726" y="352" type="curve" smooth="yes"/>
      <point x="726" y="508"/>
      <point x="631" y="652"/>
      <point x="461" y="652" type="curve" smooth="yes"/>
      <point x="401" y="652"/>
      <point x="350" y="638"/>
      <point x="306" y="608" type="curve"/>
      <point x="345" y="774"/>
      <point x="463" y="965"/>
      <point x="731" y="985" type="curve"/>
    </contour>
    <contour>
      <point x="513" y="258" type="line" smooth="yes"/>
      <point x="513" y="99"/>
      <point x="468" y="48"/>
      <point x="426" y="48" type="curve" smooth="yes"/>
      <point x="354" y="48"/>
      <point x="292" y="141"/>
      <point x="292" y="384" type="curve" smooth="yes"/>
      <point x="292" y="421"/>
      <point x="297" y="527"/>
      <point x="297" y="527" type="curve"/>
      <point x="297" y="527"/>
      <point x="342" y="550"/>
      <point x="377" y="550" type="curve" smooth="yes"/>
      <point x="486" y="550"/>
      <point x="513" y="403"/>
      <point x="513" y="258" type="curve" smooth="yes"/>
    </contour>
  </outline>
</glyph>
<glyph name="seven" format="2">
  <advance width="787"/>
  <unicode hex="0037"/>
  <outline>
    <contour>
      <point x="713" y="962" type="line"/>
      <point x="713" y="1022" type="line"/>
      <point x="173" y="1022" type="line"/>
      <point x="44" y="706" type="line"/>
      <point x="101" y="689" type="line"/>
      <point x="170" y="806"/>
      <point x="177" y="823"/>
      <point x="316" y="823" type="curve" smooth="yes"/>
      <point x="545" y="823" type="line"/>
      <point x="266" y="-22" type="line"/>
      <point x="384" y="-22" type="line"/>
    </contour>
  </outline>
</glyph>
<glyph name="eight" format="2">
  <advance width="944"/>
  <unicode hex="0038"/>
  <outline>
    <contour>
      <point x="871" y="325" type="curve" smooth="yes"/>
      <point x="871" y="493"/>
      <point x="775" y="607"/>
      <point x="647" y="702" type="curve"/>
      <point x="768" y="768"/>
      <point x="851" y="854"/>
      <point x="851" y="992" type="curve" smooth="yes"/>
      <point x="851" y="1122"/>
      <point x="720" y="1248"/>
      <point x="473" y="1248" type="curve" smooth="yes"/>
      <point x="260" y="1248"/>
      <point x="95" y="1117"/>
      <point x="95" y="936" type="curve" smooth="yes"/>
      <point x="95" y="786"/>
      <point x="173" y="715"/>
      <point x="305" y="610" type="curve"/>
      <point x="166" y="547"/>
      <point x="73" y="439"/>
      <point x="73" y="283" type="curve" smooth="yes"/>
      <point x="73" y="90"/>
      <point x="235" y="-26"/>
      <point x="456" y="-26" type="curve" smooth="yes"/>
      <point x="697" y="-26"/>
      <point x="871" y="119"/>
    </contour>
    <contour>
      <point x="640" y="997" type="curve" smooth="yes"/>
      <point x="640" y="898"/>
      <point x="599" y="817"/>
      <point x="548" y="764" type="curve"/>
      <point x="466" y="810"/>
      <point x="337" y="895"/>
      <point x="337" y="1038" type="curve" smooth="yes"/>
      <point x="337" y="1120"/>
      <point x="400" y="1193"/>
      <point x="481" y="1193" type="curve" smooth="yes"/>
      <point x="572" y="1193"/>
      <point x="640" y="1103"/>
    </contour>
    <contour>
      <point x="626" y="229" type="curve" smooth="yes"/>
      <point x="626" y="150"/>
      <point x="566" y="58"/>
      <point x="473" y="58" type="curve" smooth="yes"/>
      <point x="356" y="58"/>
      <point x="302" y="163"/>
      <point x="302" y="283" type="curve" smooth="yes" name="hr01"/>
      <point x="302" y="372"/>
      <point x="325" y="493"/>
      <point x="391" y="550" type="curve"/>
      <point x="517" y="455"/>
      <point x="626" y="367"/>
    </contour>
  </outline>
</glyph>
<glyph name="colon" format="2">
  <advance width="701"/>
  <unicode hex="003A"/>
  <outline>
    <contour>
      <point x="476" y="600" type="curve" smooth="yes"/>
      <point x="476" y="669"/>
      <point x="419" y="725"/>
      <point x="350" y="725" type="curve" smooth="yes"/>
      <point x="282" y="725"/>
      <point x="225" y="669"/>
      <point x="225" y="600" type="curve" smooth="yes"/>
      <point x="225" y="532"/>
      <point x="282" y="475"/>
      <point x="350" y="475" type="curve" smooth="yes"/>
      <point x="419" y="475"/>
      <point x="476" y="532"/>
    </contour>
    <contour>
      <point x="476" y="107" type="curve" smooth="yes"/>
      <point x="476" y="176"/>
      <point x="419" y="231"/>
      <point x="350" y="231" type="curve" smooth="yes"/>
      <point x="282" y="231"/>
      <point x="225" y="176"/>
      <point x="225" y="107" type="curve" smooth="yes"/>
      <point x="225" y="38"/>
      <point x="282" y="-18"/>
      <point x="350" y="-18" type="curve" smooth="yes"/>
      <point x="419" y="-18"/>
      <point x="476" y="38"/>
    </contour>
  </outline>
</glyph>
<glyph name="semicolon" format="2">
  <advance width="462"/>
  <unicode hex="003B"/>
  <outline>
    <contour>
      <point x="383" y="600" type="curve" smooth="yes"/>
      <point x="383" y="669"/>
      <point x="327" y="725"/>
      <point x="258" y="725" type="curve" smooth="yes"/>
      <point x="189" y="725"/>
      <point x="133" y="669"/>
      <point x="133" y="600" type="curve" smooth="yes"/>
      <point x="133" y="532"/>
      <point x="189" y="475"/>
      <point x="258" y="475" type="curve" smooth="yes"/>
      <point x="327" y="475"/>
      <point x="383" y="532"/>
    </contour>
    <contour>
      <point x="402" y="43" type="curve" smooth="yes"/>
      <point x="402" y="168"/>
      <point x="329" y="231"/>
      <point x="240" y="231" type="curve" smooth="yes"/>
      <point x="172" y="231"/>
      <point x="115" y="176"/>
      <point x="115" y="107" type="curve" smooth="yes"/>
      <point x="115" y="38"/>
      <point x="172" y="-10"/>
      <point x="240" y="-10" type="curve" smooth="yes"/>
      <point x="271" y="-10"/>
      <point x="282" y="7"/>
      <point x="294" y="7" type="curve" smooth="yes"/>
      <point x="307" y="7"/>
      <point x="310" y="-9"/>
      <point x="310" y="-20" type="curve" smooth="yes" name="hr01"/>
      <point x="310" y="-74"/>
      <point x="276" y="-184"/>
      <point x="144" y="-238" type="curve"/>
      <point x="144" y="-271" type="line"/>
      <point x="298" y="-226"/>
      <point x="402" y="-113"/>
    </contour>
  </outline>
</glyph>
<glyph name="less" format="2">
  <advance width="1451"/>
  <unicode hex="003C"/>
  <outline>
    <contour>
      <point x="1171" y="57" type="line"/>
      <point x="1171" y="150" type="line"/>
      <point x="374" y="446" type="line"/>
      <point x="1171" y="741" type="line"/>
      <point x="1171" y="834" type="line"/>
      <point x="280" y="492" type="line"/>
      <point x="280" y="399" type="line"/>
    </contour>
  </outline>
</glyph>
<glyph name="equal" format="2">
  <advance width="936"/>
  <unicode hex="003D"/>
  <outline>
    <contour>
      <point x="886" y="535" type="line"/>
      <point x="886" y="637" type="line"/>
      <point x="50" y="637" type="line"/>
      <point x="50" y="535" type="line"/>
    </contour>
    <contour>
      <point x="886" y="255" type="line"/>
      <point x="886" y="357" type="line"/>
      <point x="50" y="357" type="line"/>
      <point x="50" y="255" type="line"/>
    </contour>
  </outline>
</glyph>
<glyph name="greater" format="2">
  <unicode hex="003E"/>
  <advance width="1485"/>
  <outline>
    <contour>
      <point x="1188" y="400" type="line"/>
      <point x="1188" y="492" type="line"/>
      <point x="297" y="833" type="line"/>
      <point x="297" y="741" type="line"/>
      <point x="1093" y="445" type="line"/>
      <point x="297" y="150" type="line"/>
      <point x="297" y="58" type="line"/>
    </contour>
  </outline>
</glyph>
<glyph name="question" format="2">
  <advance width="720"/>
  <unicode hex="003F"/>
  <outline>
    <contour>
      <point x="659" y="805" type="line" smooth="yes"/>
      <point x="659" y="970"/>
      <point x="530" y="1044"/>
      <point x="372" y="1044" type="curve" smooth="yes"/>
      <point x="147" y="1044"/>
      <point x="70" y="907"/>
      <point x="70" y="800" type="curve" smooth="yes"/>
      <point x="70" y="734"/>
      <point x="117" y="686"/>
      <point x="186" y="686" type="curve" smooth="yes"/>
      <point x="236" y="686"/>
      <point x="268" y="726"/>
      <point x="268" y="772" type="curve" smooth="yes"/>
      <point x="268" y="826"/>
      <point x="222" y="887"/>
      <point x="222" y="917" type="curve" smooth="yes"/>
      <point x="222" y="951"/>
      <point x="270" y="975"/>
      <point x="318" y="975" type="curve" smooth="yes" name="hr01"/>
      <point x="401" y="975"/>
      <point x="444" y="915"/>
      <point x="444" y="797" type="curve" smooth="yes"/>
      <point x="444" y="728"/>
      <point x="431" y="662"/>
      <point x="390" y="578" type="curve" smooth="yes"/>
      <point x="337" y="470"/>
      <point x="313" y="401"/>
      <point x="313" y="304" type="curve"/>
      <point x="373" y="304" type="line"/>
      <point x="373" y="485"/>
      <point x="659" y="625"/>
      <point x="659" y="805" type="curve" smooth="yes"/>
    </contour>
    <contour>
      <point x="457" y="92" type="line" name="hr02"/>
      <point x="457" y="156"/>
      <point x="404" y="208"/>
      <point x="341" y="208" type="curve" smooth="yes"/>
      <point x="278" y="208"/>
      <point x="227" y="156"/>
      <point x="227" y="92" type="curve" smooth="yes"/>
      <point x="227" y="30"/>
      <point x="278" y="-22"/>
      <point x="341" y="-22" type="curve" smooth="yes"/>
      <point x="404" y="-22"/>
      <point x="457" y="30"/>
      <point x="457" y="92" type="curve"/>
    </contour>
  </outline>
</glyph>
<glyph name="at" format="2">
  <advance width="1436"/>
  <unicode hex="0040"/>
  <outline>
    <contour>
      <point x="1356" y="125" type="line"/>
      <point x="1267" y="-120"/>
      <point x="1031" y="-291"/>
      <point x="743" y="-291" type="curve" smooth="yes"/>
      <point x="417" y="-291"/>
      <point x="147" y="-65"/>
      <point x="147" y="292" type="curve" smooth="yes"/>
      <point x="147" y="670"/>
      <point x="407" y="997"/>
      <point x="820" y="997" type="curve" smooth="yes"/>
      <point x="1107" y="997"/>
      <point x="1298" y="794"/>
      <point x="1298" y="532" type="curve" smooth="yes"/>
      <point x="1298" y="378"/>
      <point x="1243" y="262"/>
      <point x="1176" y="182" type="curve" smooth="yes"/>
      <point x="1104" y="97"/>
      <point x="1019" y="54"/>
      <point x="976" y="54" type="curve" smooth="yes"/>
      <point x="934" y="54"/>
      <point x="912" y="86"/>
      <point x="912" y="115" type="curve" smooth="yes"/>
      <point x="912" y="189"/>
      <point x="947" y="283"/>
      <point x="1076" y="715" type="curve"/>
      <point x="891" y="698" type="line"/>
      <point x="863" y="612" type="line"/>
      <point x="861" y="638"/>
      <point x="849" y="726"/>
      <point x="759" y="726" type="curve" smooth="yes"/>
      <point x="584" y="726"/>
      <point x="366" y="428"/>
      <point x="366" y="169" type="curve" smooth="yes"/>
      <point x="366" y="88"/>
      <point x="401" y="0"/>
      <point x="489" y="0" type="curve" smooth="yes"/>
      <point x="610" y="0"/>
      <point x="682" y="122"/>
      <point x="754" y="238" type="curve"/>
      <point x="743" y="199"/>
      <point x="735" y="165"/>
      <point x="735" y="136" type="curve" smooth="yes"/>
      <point x="735" y="37"/>
      <point x="805" y="0"/>
      <point x="889" y="0" type="curve" smooth="yes"/>
      <point x="1155" y="0"/>
      <point x="1341" y="252"/>
      <point x="1341" y="530" type="curve" smooth="yes"/>
      <point x="1341" y="825"/>
      <point x="1153" y="1044"/>
      <point x="795" y="1044" type="curve" smooth="yes"/>
      <point x="347" y="1044"/>
      <point x="70" y="725"/>
      <point x="70" y="327" type="curve" smooth="yes"/>
      <point x="70" y="-75"/>
      <point x="368" y="-334"/>
      <point x="735" y="-334" type="curve" smooth="yes"/>
      <point x="1052" y="-334"/>
      <point x="1295" y="-153"/>
      <point x="1402" y="125" type="curve"/>
    </contour>
    <contour>
      <point x="829" y="569" type="line" smooth="yes"/>
      <point x="829" y="388"/>
      <point x="682" y="140"/>
      <point x="600" y="140" type="curve" smooth="yes" name="hr01"/>
      <point x="575" y="140"/>
      <point x="561" y="177"/>
      <point x="561" y="207" type="curve" smooth="yes"/>
      <point x="561" y="318"/>
      <point x="669" y="672"/>
      <point x="777" y="672" type="curve" smooth="yes"/>
      <point x="817" y="672"/>
      <point x="829" y="614"/>
      <point x="829" y="569" type="curve" smooth="yes"/>
    </contour>
  </outline>
</glyph>
<glyph name="A" format="2">
  <advance width="1116"/>
  <unicode hex="0041"/>
  <anchor x="555" y="1090" name="above"/>
  <outline>
    <contour>
      <point x="1107" y="0" type="line"/>
      <point x="1107" y="60" type="line"/>
      <point x="1054" y="62"/>
      <point x="988" y="91"/>
      <point x="949" y="181" type="curve" smooth="yes"/>
      <point x="570" y="1044" type="line"/>
      <point x="510" y="1044" type="line"/>
      <point x="169" y="215" type="line" smooth="yes"/>
      <point x="119" y="94"/>
      <point x="81" y="73"/>
      <point x="12" y="60" type="curve"/>
      <point x="12" y="0" type="line"/>
      <point x="392" y="0" type="line"/>
      <point x="392" y="60" type="line"/>
      <point x="298" y="66"/>
      <point x="256" y="90"/>
      <point x="256" y="141" type="curve" smooth="yes"/>
      <point x="256" y="162"/>
      <point x="316" y="311"/>
      <point x="316" y="311" type="curve"/>
      <point x="643" y="311" type="line"/>
      <point x="709" y="162"/>
      <point x="715" y="123"/>
      <point x="715" y="108" type="curve" smooth="yes"/>
      <point x="715" y="74"/>
      <point x="684" y="60"/>
      <point x="595" y="60" type="curve"/>
      <point x="595" y="0" type="line"/>
    </contour>
    <contour>
      <point x="604" y="399" type="line"/>
      <point x="348" y="399" type="line"/>
      <point x="469" y="700" type="line"/>
    </contour>
  </outline>
</glyph>
<glyph name="B" format="2">
  <advance width="1031"/>
  <unicode hex="0042"/>
  <outline>
    <contour>
      <point x="976" y="279" type="line" smooth="yes"/>
      <point x="976" y="413"/>
      <point x="891" y="502"/>
      <point x="685" y="543" type="curve"/>
      <point x="900" y="596"/>
      <point x="927" y="679"/>
      <point x="927" y="783" type="curve" smooth="yes" name="hr01"/>
      <point x="927" y="886"/>
      <point x="833" y="1022"/>
      <point x="601" y="1022" type="curve" smooth="yes"/>
      <point x="31" y="1022" type="line"/>
      <point x="31" y="962" type="line" name="hr02"/>
      <point x="154" y="962"/>
      <point x="176" y="925"/>
      <point x="176" y="820" type="curve" smooth="yes"/>
      <point x="176" y="202" type="line" smooth="yes"/>
      <point x="176" y="97"/>
      <point x="154" y="60"/>
      <point x="31" y="60" type="curve"/>
      <point x="31" y="0" type="line"/>
      <point x="594" y="0" type="line" smooth="yes"/>
      <point x="787" y="0"/>
      <point x="976" y="95"/>
      <point x="976" y="279" type="curve" smooth="yes"/>
    </contour>
    <contour>
      <point x="675" y="764" type="line" smooth="yes" name="hr03"/>
      <point x="675" y="648"/>
      <point x="606" y="574"/>
      <point x="462" y="574" type="curve" smooth="yes"/>
      <point x="439" y="574"/>
      <point x="413" y="576"/>
      <point x="413" y="576" type="curve"/>
      <point x="413" y="927" type="line"/>
      <point x="413" y="927"/>
      <point x="439" y="932"/>
      <point x="462" y="932" type="curve" smooth="yes"/>
      <point x="624" y="932"/>
      <point x="675" y="876"/>
      <point x="675" y="764" type="curve" smooth="yes"/>
    </contour>
    <contour>
      <point x="710" y="272" type="line" smooth="yes" name="hr04"/>
      <point x="710" y="118"/>
      <point x="591" y="89"/>
      <point x="496" y="89" type="curve" smooth="yes"/>
      <point x="440" y="89"/>
      <point x="413" y="106"/>
      <point x="413" y="178" type="curve" smooth="yes"/>
      <point x="413" y="489" type="line"/>
      <point x="413" y="489"/>
      <point x="439" y="492"/>
      <point x="462" y="492" type="curve" smooth="yes"/>
      <point x="618" y="492"/>
      <point x="710" y="426"/>
      <point x="710" y="272" type="curve" smooth="yes"/>
    </contour>
  </outline>
</glyph>
<glyph name="C" format="2">
  <advance width="1116"/>
  <unicode hex="0043"/>
  <anchor x="626" y="-72" name="below"/>
  <outline>
    <contour>
      <point x="1001" y="291" type="line"/>
      <point x="932" y="184"/>
      <point x="822" y="68"/>
      <point x="661" y="68" type="curve" smooth="yes"/>
      <point x="465" y="68"/>
      <point x="331" y="232"/>
      <point x="331" y="491" type="curve" smooth="yes"/>
      <point x="331" y="750"/>
      <point x="424" y="958"/>
      <point x="633" y="958" type="curve" smooth="yes"/>
      <point x="770" y="958"/>
      <point x="918" y="844"/>
      <point x="962" y="652" type="curve"/>
      <point x="1022" y="652" type="line"/>
      <point x="999" y="1046" type="line" name="hr01"/>
      <point x="941" y="1046" type="line"/>
      <point x="928" y="1005"/>
      <point x="926" y="970"/>
      <point x="884" y="970" type="curve"/>
      <point x="854" y="970"/>
      <point x="753" y="1044"/>
      <point x="597" y="1044" type="curve" smooth="yes" name="hr02"/>
      <point x="249" y="1044"/>
      <point x="71" y="758"/>
      <point x="71" y="491" type="curve" smooth="yes"/>
      <point x="71" y="224"/>
      <point x="245" y="-22"/>
      <point x="611" y="-22" type="curve" smooth="yes"/>
      <point x="868" y="-22"/>
      <point x="993" y="141"/>
      <point x="1056" y="248" type="curve"/>
    </contour>
  </outline>
</glyph>
<glyph name="D" format="2">
  <unicode hex="0044"/>
  <advance width="1105"/>
  <outline>
    <contour>
      <point x="1042" y="511" type="line" smooth="yes"/>
      <point x="1042" y="792"/>
      <point x="853" y="1022"/>
      <point x="532" y="1022" type="curve" smooth="yes"/>
      <point x="21" y="1022" type="line"/>
      <point x="21" y="962" type="line" name="hr01"/>
      <point x="144" y="962"/>
      <point x="165" y="925"/>
      <point x="165" y="820" type="curve" smooth="yes"/>
      <point x="165" y="202" type="line" smooth="yes"/>
      <point x="165" y="97"/>
      <point x="144" y="60"/>
      <point x="21" y="60" type="curve"/>
      <point x="21" y="0" type="line"/>
      <point x="532" y="0" type="line" smooth="yes"/>
      <point x="853" y="0"/>
      <point x="1042" y="220"/>
      <point x="1042" y="511" type="curve" smooth="yes"/>
    </contour>
    <contour>
      <point x="770" y="511" type="line" smooth="yes"/>
      <point x="770" y="308"/>
      <point x="709" y="87"/>
      <point x="499" y="87" type="curve" smooth="yes" name="hr02"/>
      <point x="456" y="87"/>
      <point x="420" y="92"/>
      <point x="403" y="102" type="curve"/>
      <point x="403" y="929" type="line"/>
      <point x="403" y="929"/>
      <point x="427" y="933"/>
      <point x="462" y="933" type="curve" smooth="yes"/>
      <point x="703" y="933"/>
      <point x="770" y="706"/>
      <point x="770" y="511" type="curve" smooth="yes"/>
    </contour>
  </outline>
</glyph>
<glyph name="E" format="2">
  <advance width="1015"/>
  <unicode hex="0045"/>
  <anchor x="530" y="1090" name="above"/>
  <outline>
    <contour>
      <point x="944" y="296" type="line"/>
      <point x="882" y="296" type="line"/>
      <point x="800" y="151"/>
      <point x="758" y="86"/>
      <point x="580" y="86" type="curve" smooth="yes"/>
      <point x="499" y="86" type="line" smooth="yes"/>
      <point x="415" y="86"/>
      <point x="413" y="132"/>
      <point x="413" y="211" type="curve" smooth="yes"/>
      <point x="413" y="477" type="line"/>
      <point x="505" y="477" type="line" smooth="yes"/>
      <point x="632" y="477"/>
      <point x="650" y="433"/>
      <point x="667" y="314" type="curve"/>
      <point x="727" y="314" type="line"/>
      <point x="727" y="741" type="line"/>
      <point x="667" y="741" type="line"/>
      <point x="650" y="622"/>
      <point x="630" y="564"/>
      <point x="505" y="564" type="curve" smooth="yes"/>
      <point x="413" y="564" type="line"/>
      <point x="413" y="933" type="line"/>
      <point x="604" y="933" type="line" smooth="yes"/>
      <point x="756" y="933"/>
      <point x="768" y="878"/>
      <point x="803" y="747" type="curve"/>
      <point x="861" y="747" type="line"/>
      <point x="849" y="1022" type="line"/>
      <point x="33" y="1022" type="line"/>
      <point x="33" y="963" type="line" name="hr01"/>
      <point x="164" y="963"/>
      <point x="178" y="931"/>
      <point x="178" y="804" type="curve" smooth="yes"/>
      <point x="178" y="221" type="line" smooth="yes"/>
      <point x="178" y="96"/>
      <point x="160" y="60"/>
      <point x="33" y="60" type="curve"/>
      <point x="33" y="0" type="line"/>
      <point x="839" y="0" type="line"/>
    </contour>
  </outline>
</glyph>
<glyph name="F" format="2">
  <advance width="939"/>
  <unicode hex="0046"/>
  <outline>
    <contour>
      <point x="861" y="747" type="line"/>
      <point x="850" y="1022" type="line"/>
      <point x="31" y="1022" type="line"/>
      <point x="31" y="962" type="line" name="hr01"/>
      <point x="154" y="962"/>
      <point x="176" y="925"/>
      <point x="176" y="820" type="curve" smooth="yes"/>
      <point x="176" y="202" type="line" smooth="yes"/>
      <point x="176" y="97"/>
      <point x="154" y="60"/>
      <point x="31" y="60" type="curve"/>
      <point x="31" y="0" type="line"/>
      <point x="559" y="0" type="line"/>
      <point x="559" y="60" type="line"/>
      <point x="428" y="60"/>
      <point x="413" y="103"/>
      <point x="413" y="202" type="curve" smooth="yes"/>
      <point x="413" y="477" type="line"/>
      <point x="507" y="477" type="line" smooth="yes"/>
      <point x="632" y="477"/>
      <point x="650" y="433"/>
      <point x="666" y="314" type="curve"/>
      <point x="727" y="314" type="line"/>
      <point x="727" y="741" type="line"/>
      <point x="667" y="741" type="line"/>
      <point x="650" y="622"/>
      <point x="630" y="564"/>
      <point x="507" y="564" type="curve" smooth="yes"/>
      <point x="413" y="564" type="line"/>
      <point x="413" y="933" type="line" name="hr02"/>
      <point x="603" y="933" type="line" smooth="yes"/>
      <point x="756" y="933"/>
      <point x="768" y="878"/>
      <point x="802" y="747" type="curve"/>
    </contour>
  </outline>
</glyph>
<glyph name="G" format="2">
  <advance width="1202"/>
  <unicode hex="0047"/>
  <outline>
    <contour>
      <point x="1181" y="559" type="line"/>
      <point x="692" y="559" type="line"/>
      <point x="692" y="499" type="line"/>
      <point x="798" y="499"/>
      <point x="823" y="462"/>
      <point x="823" y="357" type="curve" smooth="yes"/>
      <point x="823" y="101" type="line"/>
      <point x="774" y="66"/>
      <point x="725" y="57"/>
      <point x="655" y="57" type="curve" smooth="yes"/>
      <point x="391" y="57"/>
      <point x="329" y="282"/>
      <point x="329" y="511" type="curve" smooth="yes"/>
      <point x="329" y="770"/>
      <point x="431" y="965"/>
      <point x="667" y="965" type="curve" smooth="yes"/>
      <point x="814" y="965"/>
      <point x="952" y="859"/>
      <point x="1001" y="678" type="curve"/>
      <point x="1060" y="678" type="line"/>
      <point x="1030" y="1046" type="line" name="hr01"/>
      <point x="972" y="1046" type="line"/>
      <point x="967" y="1028"/>
      <point x="967" y="970"/>
      <point x="937" y="970" type="curve" smooth="yes"/>
      <point x="890" y="970"/>
      <point x="785" y="1044"/>
      <point x="621" y="1044" type="curve" smooth="yes" name="hr02"/>
      <point x="268" y="1044"/>
      <point x="58" y="778"/>
      <point x="58" y="511" type="curve" smooth="yes"/>
      <point x="58" y="244"/>
      <point x="236" y="-22"/>
      <point x="615" y="-22" type="curve" smooth="yes"/>
      <point x="792" y="-22"/>
      <point x="933" y="9"/>
      <point x="1060" y="85" type="curve"/>
      <point x="1060" y="357" type="line" smooth="yes"/>
      <point x="1060" y="462"/>
      <point x="1076" y="499"/>
      <point x="1181" y="499" type="curve"/>
    </contour>
  </outline>
</glyph>
<glyph name="H" format="2">
  <unicode hex="0048"/>
  <advance width="1200"/>
  <outline>
    <contour>
      <point x="1172" y="0" type="line"/>
      <point x="1172" y="60" type="line"/>
      <point x="1049" y="60"/>
      <point x="1028" y="97"/>
      <point x="1028" y="202" type="curve" smooth="yes"/>
      <point x="1028" y="820" type="line" smooth="yes"/>
      <point x="1028" y="925"/>
      <point x="1049" y="962"/>
      <point x="1172" y="962" type="curve"/>
      <point x="1172" y="1022" type="line"/>
      <point x="646" y="1022" type="line"/>
      <point x="646" y="962" type="line"/>
      <point x="770" y="962"/>
      <point x="791" y="925"/>
      <point x="791" y="820" type="curve" smooth="yes"/>
      <point x="791" y="557" type="line"/>
      <point x="411" y="557" type="line"/>
      <point x="411" y="820" type="line" smooth="yes"/>
      <point x="411" y="925"/>
      <point x="432" y="962"/>
      <point x="556" y="962" type="curve"/>
      <point x="556" y="1022" type="line"/>
      <point x="30" y="1022" type="line"/>
      <point x="30" y="962" type="line"/>
      <point x="153" y="962"/>
      <point x="174" y="925"/>
      <point x="174" y="820" type="curve" smooth="yes"/>
      <point x="174" y="202" type="line" smooth="yes"/>
      <point x="174" y="97"/>
      <point x="153" y="60"/>
      <point x="30" y="60" type="curve"/>
      <point x="30" y="0" type="line"/>
      <point x="556" y="0" type="line"/>
      <point x="556" y="60" type="line"/>
      <point x="432" y="60"/>
      <point x="411" y="97"/>
      <point x="411" y="202" type="curve" smooth="yes"/>
      <point x="411" y="462" type="line"/>
      <point x="791" y="462" type="line"/>
      <point x="791" y="202" type="line" smooth="yes"/>
      <point x="791" y="97"/>
      <point x="770" y="60"/>
      <point x="646" y="60" type="curve"/>
      <point x="646" y="0" type="line"/>
    </contour>
  </outline>
</glyph>
<glyph name="I" format="2">
  <advance width="588"/>
  <unicode hex="0049"/>
  <anchor x="298" y="1090" name="above"/>
  <outline>
    <contour>
      <point x="557" y="0" type="line"/>
      <point x="557" y="60" type="line"/>
      <point x="434" y="60"/>
      <point x="413" y="87"/>
      <point x="413" y="192" type="curve" smooth="yes"/>
      <point x="413" y="820" type="line" smooth="yes"/>
      <point x="413" y="925"/>
      <point x="434" y="962"/>
      <point x="557" y="962" type="curve"/>
      <point x="557" y="1022" type="line"/>
      <point x="31" y="1022" type="line"/>
      <point x="31" y="962" type="line"/>
      <point x="154" y="962"/>
      <point x="176" y="925"/>
      <point x="176" y="820" type="curve" smooth="yes"/>
      <point x="176" y="192" type="line" smooth="yes"/>
      <point x="176" y="87"/>
      <point x="154" y="60"/>
      <point x="31" y="60" type="curve"/>
      <point x="31" y="0" type="line"/>
    </contour>
  </outline>
</glyph>
<glyph name="K" format="2">
  <advance width="1199"/>
  <unicode hex="004B"/>
  <outline>
    <contour>
      <point x="1218" y="0" type="line"/>
      <point x="1218" y="60" type="line"/>
      <point x="1167" y="60"/>
      <point x="1087" y="88"/>
      <point x="995" y="184" type="curve" smooth="yes"/>
      <point x="601" y="594" type="line"/>
      <point x="897" y="898" type="line" smooth="yes"/>
      <point x="955" y="944"/>
      <point x="983" y="962"/>
      <point x="1074" y="962" type="curve"/>
      <point x="1074" y="1022" type="line"/>
      <point x="647" y="1022" type="line"/>
      <point x="647" y="962" type="line"/>
      <point x="715" y="962"/>
      <point x="745" y="958"/>
      <point x="745" y="918" type="curve" smooth="yes"/>
      <point x="745" y="876"/>
      <point x="413" y="580"/>
      <point x="413" y="580" type="curve"/>
      <point x="413" y="820" type="line" smooth="yes"/>
      <point x="413" y="925"/>
      <point x="432" y="962"/>
      <point x="532" y="962" type="curve"/>
      <point x="532" y="1022" type="line"/>
      <point x="31" y="1022" type="line"/>
      <point x="31" y="962" type="line"/>
      <point x="154" y="962"/>
      <point x="176" y="925"/>
      <point x="176" y="820" type="curve" smooth="yes" name="hr01"/>
      <point x="176" y="202" type="line" smooth="yes"/>
      <point x="176" y="97"/>
      <point x="154" y="60"/>
      <point x="31" y="60" type="curve"/>
      <point x="31" y="0" type="line"/>
      <point x="537" y="0" type="line"/>
      <point x="537" y="60" type="line"/>
      <point x="434" y="60"/>
      <point x="413" y="97"/>
      <point x="413" y="202" type="curve" smooth="yes"/>
      <point x="413" y="431" type="line"/>
      <point x="440" y="454" type="line"/>
      <point x="712" y="166" type="line" smooth="yes"/>
      <point x="730" y="144"/>
      <point x="735" y="122"/>
      <point x="735" y="105" type="curve" smooth="yes"/>
      <point x="735" y="78"/>
      <point x="711" y="60"/>
      <point x="655" y="60" type="curve"/>
      <point x="655" y="0" type="line"/>
    </contour>
  </outline>
</glyph>
<glyph name="L" format="2">
  <advance width="1015"/>
  <unicode hex="004C"/>
  <outline>
    <contour>
      <point x="993" y="358" type="line"/>
      <point x="933" y="358" type="line"/>
      <point x="850" y="145"/>
      <point x="763" y="89"/>
      <point x="657" y="89" type="curve" smooth="yes"/>
      <point x="578" y="89" type="line" smooth="yes"/>
      <point x="425" y="89"/>
      <point x="411" y="112"/>
      <point x="411" y="202" type="curve" smooth="yes"/>
      <point x="411" y="820" type="line" smooth="yes"/>
      <point x="411" y="925"/>
      <point x="444" y="962"/>
      <point x="567" y="962" type="curve"/>
      <point x="567" y="1022" type="line"/>
      <point x="30" y="1022" type="line"/>
      <point x="30" y="962" type="line"/>
      <point x="153" y="962"/>
      <point x="174" y="925"/>
      <point x="174" y="820" type="curve" smooth="yes"/>
      <point x="174" y="202" type="line" smooth="yes"/>
      <point x="174" y="97"/>
      <point x="153" y="60"/>
      <point x="30" y="60" type="curve" name="hr01"/>
      <point x="30" y="0" type="line"/>
      <point x="884" y="0" type="line"/>
    </contour>
  </outline>
</glyph>
<glyph name="P" format="2">
  <advance width="939"/>
  <unicode hex="0050"/>
  <outline>
    <contour>
      <point x="893" y="744" type="line" smooth="yes"/>
      <point x="893" y="912"/>
      <point x="756" y="1022"/>
      <point x="524" y="1022" type="curve" smooth="yes"/>
      <point x="36" y="1022" type="line"/>
      <point x="36" y="962" type="line" name="hr01"/>
      <point x="159" y="962"/>
      <point x="176" y="947"/>
      <point x="176" y="852" type="curve" smooth="yes"/>
      <point x="176" y="190" type="line" smooth="yes"/>
      <point x="176" y="85"/>
      <point x="159" y="60"/>
      <point x="36" y="60" type="curve"/>
      <point x="36" y="0" type="line"/>
      <point x="554" y="0" type="line"/>
      <point x="554" y="60" type="line"/>
      <point x="435" y="60"/>
      <point x="413" y="85"/>
      <point x="413" y="183" type="curve" smooth="yes"/>
      <point x="413" y="452" type="line"/>
      <point x="413" y="452"/>
      <point x="447" y="448"/>
      <point x="482" y="448" type="curve" smooth="yes"/>
      <point x="777" y="448"/>
      <point x="893" y="587"/>
      <point x="893" y="744" type="curve" smooth="yes"/>
    </contour>
    <contour>
      <point x="642" y="744" type="line" smooth="yes"/>
      <point x="642" y="628"/>
      <point x="600" y="535"/>
      <point x="447" y="535" type="curve" smooth="yes"/>
      <point x="430" y="535"/>
      <point x="413" y="539"/>
      <point x="413" y="539" type="curve"/>
      <point x="413" y="929" type="line"/>
      <point x="413" y="929"/>
      <point x="432" y="933"/>
      <point x="447" y="933" type="curve" smooth="yes" name="hr02"/>
      <point x="601" y="933"/>
      <point x="642" y="857"/>
      <point x="642" y="744" type="curve" smooth="yes"/>
    </contour>
  </outline>
</glyph>
<glyph name="Q" format="2">
  <advance width="1196"/>
  <unicode hex="0051"/>
  <outline>
    <contour>
      <point x="1141" y="511" type="curve" smooth="yes"/>
      <point x="1141" y="808"/>
      <point x="928" y="1044"/>
      <point x="597" y="1044" type="curve" smooth="yes"/>
      <point x="273" y="1044"/>
      <point x="55" y="808"/>
      <point x="55" y="511" type="curve" smooth="yes"/>
      <point x="55" y="251"/>
      <point x="222" y="59"/>
      <point x="435" y="-6" type="curve"/>
      <point x="576" y="-190"/>
      <point x="827" y="-324"/>
      <point x="1137" y="-324" type="curve"/>
      <point x="1137" y="-264" type="line"/>
      <point x="941" y="-243"/>
      <point x="831" y="-135"/>
      <point x="753" y="-7" type="curve"/>
      <point x="956" y="47"/>
      <point x="1141" y="272"/>
    </contour>
    <contour>
      <point x="869" y="511" type="curve" smooth="yes"/>
      <point x="869" y="297"/>
      <point x="805" y="54"/>
      <point x="597" y="54" type="curve" smooth="yes"/>
      <point x="391" y="54"/>
      <point x="327" y="297"/>
      <point x="327" y="511" type="curve" smooth="yes"/>
      <point x="327" y="725"/>
      <point x="379" y="968"/>
      <point x="597" y="968" type="curve" smooth="yes"/>
      <point x="828" y="968"/>
      <point x="869" y="725"/>
    </contour>
  </outline>
</glyph>
<glyph name="R" format="2">
  <advance width="1111"/>
  <unicode hex="0052"/>
  <outline>
    <contour>
      <point x="1184" y="0" type="line"/>
      <point x="1184" y="60" type="line"/>
      <point x="1092" y="63"/>
      <point x="1031" y="108"/>
      <point x="934" y="223" type="curve" smooth="yes"/>
      <point x="713" y="485" type="line"/>
      <point x="827" y="508"/>
      <point x="915" y="597"/>
      <point x="915" y="759" type="curve" smooth="yes"/>
      <point x="915" y="997"/>
      <point x="685" y="1022"/>
      <point x="452" y="1022" type="curve" smooth="yes"/>
      <point x="28" y="1022" type="line"/>
      <point x="28" y="962" type="line" name="hr01"/>
      <point x="152" y="962"/>
      <point x="168" y="937"/>
      <point x="168" y="842" type="curve" smooth="yes"/>
      <point x="168" y="200" type="line" smooth="yes"/>
      <point x="168" y="95"/>
      <point x="152" y="60"/>
      <point x="28" y="60" type="curve"/>
      <point x="28" y="0" type="line"/>
      <point x="547" y="0" type="line"/>
      <point x="547" y="60" type="line"/>
      <point x="428" y="60"/>
      <point x="405" y="95"/>
      <point x="405" y="193" type="curve" smooth="yes"/>
      <point x="405" y="461" type="line"/>
      <point x="411" y="461"/>
      <point x="421" y="460"/>
      <point x="429" y="460" type="curve" smooth="yes"/>
      <point x="439" y="460"/>
      <point x="447" y="461"/>
      <point x="450" y="462" type="curve"/>
      <point x="782" y="0" type="line"/>
    </contour>
    <contour>
      <point x="667" y="744" type="curve" smooth="yes"/>
      <point x="667" y="623"/>
      <point x="580" y="545"/>
      <point x="488" y="545" type="curve" smooth="yes"/>
      <point x="458" y="545"/>
      <point x="419" y="547"/>
      <point x="405" y="550" type="curve"/>
      <point x="405" y="929" type="line"/>
      <point x="405" y="929"/>
      <point x="427" y="933"/>
      <point x="476" y="933" type="curve" smooth="yes" name="hr02"/>
      <point x="647" y="933"/>
      <point x="667" y="837"/>
    </contour>
  </outline>
</glyph>
<glyph name="S" format="2">
  <unicode hex="0053"/>
  <advance width="859"/>
  <anchor x="437" y="1090" name="above"/>
  <outline>
    <contour>
      <point x="798" y="289" type="curve" smooth="yes"/>
      <point x="798" y="607"/>
      <point x="254" y="626"/>
      <point x="254" y="836" type="curve" smooth="yes"/>
      <point x="254" y="917"/>
      <point x="324" y="971"/>
      <point x="405" y="971" type="curve" smooth="yes"/>
      <point x="536" y="971"/>
      <point x="666" y="852"/>
      <point x="684" y="664" type="curve"/>
      <point x="747" y="664" type="line" name="hr01"/>
      <point x="747" y="1044" type="line"/>
      <point x="689" y="1044" type="line"/>
      <point x="683" y="1007"/>
      <point x="671" y="976"/>
      <point x="644" y="976" type="curve" smooth="yes"/>
      <point x="589" y="976"/>
      <point x="533" y="1044"/>
      <point x="401" y="1044" type="curve" smooth="yes"/>
      <point x="213" y="1044"/>
      <point x="81" y="924"/>
      <point x="81" y="754" type="curve" smooth="yes"/>
      <point x="81" y="439"/>
      <point x="614" y="429"/>
      <point x="614" y="190" type="curve" smooth="yes"/>
      <point x="614" y="101"/>
      <point x="533" y="48"/>
      <point x="444" y="48" type="curve" smooth="yes"/>
      <point x="248" y="48"/>
      <point x="145" y="221"/>
      <point x="130" y="363" type="curve"/>
      <point x="71" y="363" type="line"/>
      <point x="71" y="-22" type="line"/>
      <point x="127" y="-22" type="line"/>
      <point x="146" y="13"/>
      <point x="167" y="37"/>
      <point x="204" y="37" type="curve" smooth="yes"/>
      <point x="270" y="37"/>
      <point x="288" y="-22"/>
      <point x="440" y="-22" type="curve" smooth="yes"/>
      <point x="640" y="-22"/>
      <point x="798" y="104"/>
    </contour>
  </outline>
</glyph>
<glyph name="T" format="2">
  <advance width="1029"/>
  <unicode hex="0054"/>
  <outline>
    <contour>
      <point x="984" y="716" type="line"/>
      <point x="974" y="1022" type="line"/>
      <point x="45" y="1022" type="line"/>
      <point x="35" y="716" type="line"/>
      <point x="96" y="716" type="line"/>
      <point x="109" y="877"/>
      <point x="179" y="933"/>
      <point x="320" y="933" type="curve" smooth="yes"/>
      <point x="395" y="933" type="line"/>
      <point x="395" y="192" type="line" smooth="yes"/>
      <point x="395" y="87"/>
      <point x="371" y="60"/>
      <point x="248" y="60" type="curve"/>
      <point x="248" y="0" type="line"/>
      <point x="780" y="0" type="line"/>
      <point x="780" y="60" type="line"/>
      <point x="656" y="60"/>
      <point x="632" y="87"/>
      <point x="632" y="192" type="curve" smooth="yes"/>
      <point x="632" y="933" type="line"/>
      <point x="697" y="933" type="line" smooth="yes"/>
      <point x="840" y="933"/>
      <point x="909" y="865"/>
      <point x="924" y="716" type="curve"/>
    </contour>
  </outline>
</glyph>
<glyph name="U" format="2">
  <advance width="1116"/>
  <unicode hex="0055"/>
  <anchor x="561" y="1090" name="above"/>
  <outline>
    <contour>
      <point x="1092" y="1022" type="line"/>
      <point x="705" y="1022" type="line"/>
      <point x="705" y="962" type="line"/>
      <point x="827" y="962"/>
      <point x="853" y="945"/>
      <point x="853" y="840" type="curve" smooth="yes"/>
      <point x="853" y="436" type="line" smooth="yes"/>
      <point x="853" y="293"/>
      <point x="830" y="203"/>
      <point x="774" y="143" type="curve" smooth="yes"/>
      <point x="728" y="93"/>
      <point x="664" y="72"/>
      <point x="584" y="72" type="curve" smooth="yes"/>
      <point x="439" y="72"/>
      <point x="373" y="156"/>
      <point x="373" y="381" type="curve" smooth="yes"/>
      <point x="373" y="830" type="line" smooth="yes"/>
      <point x="373" y="935"/>
      <point x="398" y="962"/>
      <point x="521" y="962" type="curve"/>
      <point x="521" y="1022" type="line"/>
      <point x="-3" y="1022" type="line"/>
      <point x="-3" y="962" type="line"/>
      <point x="120" y="962"/>
      <point x="136" y="935"/>
      <point x="136" y="830" type="curve" smooth="yes"/>
      <point x="136" y="441" type="line" smooth="yes"/>
      <point x="136" y="148"/>
      <point x="195" y="-22"/>
      <point x="553" y="-22" type="curve" smooth="yes"/>
      <point x="847" y="-22"/>
      <point x="948" y="165"/>
      <point x="948" y="407" type="curve" smooth="yes"/>
      <point x="948" y="840" type="line" smooth="yes"/>
      <point x="948" y="929"/>
      <point x="980" y="962"/>
      <point x="1092" y="962" type="curve"/>
    </contour>
  </outline>
</glyph>
<glyph name="V" format="2">
  <advance width="1116"/>
  <unicode hex="0056"/>
  <outline>
    <contour>
      <point x="1100" y="962" type="line"/>
      <point x="1100" y="1022" type="line"/>
      <point x="725" y="1022" type="line"/>
      <point x="725" y="962" type="line"/>
      <point x="774" y="958"/>
      <point x="849" y="928"/>
      <point x="849" y="870" type="curve" smooth="yes"/>
      <point x="849" y="848"/>
      <point x="839" y="811"/>
      <point x="827" y="780" type="curve" smooth="yes"/>
      <point x="637" y="315" type="line"/>
      <point x="408" y="821" type="line" smooth="yes"/>
      <point x="397" y="844"/>
      <point x="378" y="899"/>
      <point x="378" y="914" type="curve" smooth="yes"/>
      <point x="378" y="947"/>
      <point x="408" y="962"/>
      <point x="502" y="962" type="curve"/>
      <point x="502" y="1022" type="line"/>
      <point x="-3" y="1022" type="line"/>
      <point x="-3" y="962" type="line"/>
      <point x="87" y="946"/>
      <point x="103" y="929"/>
      <point x="141" y="842" type="curve" smooth="yes"/>
      <point x="529" y="-22" type="line"/>
      <point x="604" y="-22" type="line"/>
      <point x="950" y="831" type="line" smooth="yes"/>
      <point x="982" y="909"/>
      <point x="1014" y="942"/>
      <point x="1100" y="962" type="curve"/>
    </contour>
  </outline>
</glyph>
<glyph name="W" format="2">
  <advance width="1570"/>
  <unicode hex="0057"/>
  <outline>
    <contour>
      <point x="1554" y="1022" type="line"/>
      <point x="1260" y="1022" type="line"/>
      <point x="1260" y="962" type="line"/>
      <point x="1314" y="962"/>
      <point x="1347" y="952"/>
      <point x="1347" y="899" type="curve" smooth="yes"/>
      <point x="1347" y="874"/>
      <point x="1322" y="807"/>
      <point x="1306" y="768" type="curve" smooth="yes"/>
      <point x="1132" y="362" type="line"/>
      <point x="939" y="857" type="line" smooth="yes"/>
      <point x="930" y="881"/>
      <point x="925" y="900"/>
      <point x="925" y="915" type="curve" smooth="yes"/>
      <point x="925" y="951"/>
      <point x="987" y="962"/>
      <point x="1064" y="962" type="curve"/>
      <point x="1064" y="1022" type="line"/>
      <point x="558" y="1022" type="line"/>
      <point x="558" y="962" type="line"/>
      <point x="650" y="962"/>
      <point x="675" y="897"/>
      <point x="742" y="716" type="curve"/>
      <point x="584" y="348" type="line"/>
      <point x="403" y="825" type="line" smooth="yes"/>
      <point x="390" y="857"/>
      <point x="385" y="884"/>
      <point x="385" y="904" type="curve" smooth="yes"/>
      <point x="385" y="945"/>
      <point x="439" y="962"/>
      <point x="502" y="962" type="curve"/>
      <point x="502" y="1022" type="line"/>
      <point x="-3" y="1022" type="line"/>
      <point x="-3" y="962" type="line"/>
      <point x="98" y="962"/>
      <point x="112" y="923"/>
      <point x="156" y="809" type="curve" smooth="yes"/>
      <point x="473" y="-22" type="line"/>
      <point x="534" y="-22" type="line"/>
      <point x="792" y="588" type="line"/>
      <point x="1033" y="-22" type="line"/>
      <point x="1094" y="-22" type="line"/>
      <point x="1420" y="807" type="line" smooth="yes"/>
      <point x="1467" y="928"/>
      <point x="1492" y="962"/>
      <point x="1554" y="962" type="curve"/>
    </contour>
  </outline>
</glyph>
<glyph name="X" format="2">
  <unicode hex="0058"/>
  <advance width="1116"/>
  <outline>
    <contour>
      <point x="1155" y="0" type="line"/>
      <point x="1155" y="60" type="line"/>
      <point x="1066" y="60"/>
      <point x="1008" y="112"/>
      <point x="978" y="155" type="curve" smooth="yes"/>
      <point x="682" y="577" type="line"/>
      <point x="892" y="836" type="line" smooth="yes"/>
      <point x="961" y="921"/>
      <point x="994" y="962"/>
      <point x="1074" y="962" type="curve"/>
      <point x="1074" y="1022" type="line"/>
      <point x="688" y="1022" type="line"/>
      <point x="688" y="962" type="line"/>
      <point x="754" y="962"/>
      <point x="810" y="941"/>
      <point x="810" y="905" type="curve" smooth="yes"/>
      <point x="810" y="885"/>
      <point x="796" y="864"/>
      <point x="619" y="648" type="curve"/>
      <point x="448" y="907"/>
      <point x="457" y="900"/>
      <point x="457" y="918" type="curve" smooth="yes"/>
      <point x="457" y="949"/>
      <point x="488" y="962"/>
      <point x="560" y="962" type="curve"/>
      <point x="560" y="1022" type="line"/>
      <point x="33" y="1022" type="line"/>
      <point x="33" y="962" type="line"/>
      <point x="74" y="962"/>
      <point x="122" y="949"/>
      <point x="179" y="867" type="curve"/>
      <point x="179" y="867"/>
      <point x="286" y="717"/>
      <point x="451" y="472" type="curve"/>
      <point x="226" y="183" type="line" smooth="yes"/>
      <point x="161" y="100"/>
      <point x="95" y="75"/>
      <point x="0" y="60" type="curve"/>
      <point x="0" y="0" type="line"/>
      <point x="443" y="0" type="line"/>
      <point x="443" y="60" type="line"/>
      <point x="354" y="60"/>
      <point x="330" y="95"/>
      <point x="330" y="122" type="curve" smooth="yes"/>
      <point x="330" y="157"/>
      <point x="341" y="180"/>
      <point x="395" y="242" type="curve" smooth="yes"/>
      <point x="513" y="378" type="line"/>
      <point x="605" y="257"/>
      <point x="671" y="150"/>
      <point x="671" y="116" type="curve" smooth="yes"/>
      <point x="671" y="84"/>
      <point x="640" y="60"/>
      <point x="575" y="60" type="curve"/>
      <point x="575" y="0" type="line"/>
    </contour>
  </outline>
</glyph>
<glyph name="Z" format="2">
  <advance width="1237"/>
  <unicode hex="005A"/>
  <anchor x="613" y="1308" name="above"/>
  <outline>
    <contour>
      <point x="1166" y="445" type="line"/>
      <point x="1096" y="457" type="line"/>
      <point x="1036" y="169"/>
      <point x="881" y="107"/>
      <point x="625" y="107" type="curve" smooth="yes"/>
      <point x="406" y="107" type="line"/>
      <point x="1153" y="1226" type="line"/>
      <point x="167" y="1226" type="line"/>
      <point x="138" y="832" type="line"/>
      <point x="210" y="832" type="line"/>
      <point x="246" y="1032"/>
      <point x="342" y="1120"/>
      <point x="504" y="1120" type="curve" smooth="yes"/>
      <point x="745" y="1120" type="line"/>
      <point x="42" y="72" type="line"/>
      <point x="42" y="0" type="line"/>
      <point x="1108" y="0" type="line"/>
    </contour>
  </outline>
</glyph>
<glyph name="bracketleft" format="2">
  <advance width="529"/>
  <unicode hex="005B"/>
  <outline>
    <contour>
      <point x="443" y="-162" type="line"/>
      <point x="293" y="-131" type="line"/>
      <point x="293" y="979" type="line"/>
      <point x="443" y="1008" type="line"/>
      <point x="429" y="1087" type="line"/>
      <point x="123" y="1047" type="line"/>
      <point x="123" y="-201" type="line"/>
      <point x="429" y="-242" type="line"/>
    </contour>
  </outline>
</glyph>
<glyph name="backslash" format="2">
  <unicode hex="005C"/>
  <advance width="444"/>
  <outline>
    <contour>
      <point x="441" y="-22" type="line"/>
      <point x="105" y="1044" type="line"/>
      <point x="9" y="1044" type="line"/>
      <point x="345" y="-22" type="line"/>
    </contour>
  </outline>
</glyph>
<glyph name="bracketright" format="2">
  <unicode hex="005D"/>
  <advance width="529"/>
  <outline>
    <contour>
      <point x="107" y="-242" type="line"/>
      <point x="413" y="-201" type="line"/>
      <point x="413" y="1047" type="line"/>
      <point x="107" y="1087" type="line"/>
      <point x="93" y="1008" type="line"/>
      <point x="243" y="979" type="line"/>
      <point x="243" y="-131" type="line"/>
      <point x="93" y="-162" type="line"/>
    </contour>
  </outline>
</glyph>
<glyph name="asciicircum" format="2">
  <advance width="1485"/>
  <unicode hex="005E"/>
  <outline>
    <contour>
      <point x="1141" y="15" type="line"/>
      <point x="788" y="936" type="line"/>
      <point x="697" y="936" type="line"/>
      <point x="345" y="15" type="line"/>
      <point x="467" y="15" type="line"/>
      <point x="743" y="763" type="line"/>
      <point x="1019" y="15" type="line"/>
    </contour>
  </outline>
</glyph>
<glyph name="underscore" format="2">
  <advance width="833"/>
  <unicode hex="005F"/>
  <outline>
    <contour>
      <point x="833" y="-218" type="line"/>
      <point x="833" y="-109" type="line"/>
      <point x="0" y="-109" type="line"/>
      <point x="0" y="-218" type="line"/>
    </contour>
  </outline>
</glyph>
<glyph name="grave" format="2">
  <advance width="529"/>
  <unicode hex="0060"/>
  <anchor x="269" y="760" name="_above"/>
  <outline>
    <contour>
      <point x="400" y="801" type="line"/>
      <point x="199" y="1038" type="line" smooth="yes"/>
      <point x="165" y="1078"/>
      <point x="126" y="1097"/>
      <point x="86" y="1097" type="curve" smooth="yes"/>
      <point x="41" y="1097"/>
      <point x="13" y="1062"/>
      <point x="13" y="1018" type="curve" smooth="yes"/>
      <point x="13" y="983"/>
      <point x="37" y="957"/>
      <point x="88" y="927" type="curve" smooth="yes"/>
      <point x="302" y="801" type="line"/>
    </contour>
  </outline>
</glyph>
<glyph name="b" format="2">
  <advance width="856"/>
  <unicode hex="0062"/>
  <outline>
    <contour>
      <point x="813" y="403" type="line" smooth="yes"/>
      <point x="813" y="591"/>
      <point x="698" y="711"/>
      <point x="562" y="711" type="curve" smooth="yes"/>
      <point x="488" y="711"/>
      <point x="407" y="670"/>
      <point x="336" y="571" type="curve"/>
      <point x="336" y="1071" type="line"/>
      <point x="276" y="1071" type="line"/>
      <point x="-4" y="987" type="line"/>
      <point x="14" y="931" type="line"/>
      <point x="31" y="937"/>
      <point x="61" y="942"/>
      <point x="79" y="942" type="curve" smooth="yes"/>
      <point x="111" y="942"/>
      <point x="121" y="920"/>
      <point x="121" y="840" type="curve" smooth="yes"/>
      <point x="121" y="88" type="line"/>
      <point x="194" y="36"/>
      <point x="314" y="-23"/>
      <point x="430" y="-23" type="curve" smooth="yes"/>
      <point x="646" y="-23"/>
      <point x="813" y="176"/>
      <point x="813" y="403" type="curve" smooth="yes"/>
    </contour>
    <contour>
      <point x="456" y="55" type="line" smooth="yes"/>
      <point x="413" y="55"/>
      <point x="368" y="83"/>
      <point x="336" y="131" type="curve"/>
      <point x="336" y="481" type="line"/>
      <point x="375" y="530"/>
      <point x="428" y="560"/>
      <point x="464" y="560" type="curve" smooth="yes"/>
      <point x="558" y="560"/>
      <point x="591" y="446"/>
      <point x="591" y="327" type="curve" smooth="yes"/>
      <point x="591" y="195"/>
      <point x="559" y="55"/>
      <point x="456" y="55" type="curve" smooth="yes"/>
    </contour>
  </outline>
</glyph>
<glyph name="c" format="2">
  <advance width="718"/>
  <unicode hex="0063"/>
  <anchor x="382" y="-65" name="below"/>
  <outline>
    <contour>
      <point x="629" y="274" type="line"/>
      <point x="581" y="156"/>
      <point x="517" y="138"/>
      <point x="468" y="138" type="curve" smooth="yes"/>
      <point x="334" y="138"/>
      <point x="240" y="281"/>
      <point x="240" y="464" type="curve" smooth="yes"/>
      <point x="240" y="576"/>
      <point x="283" y="637"/>
      <point x="356" y="637" type="curve" smooth="yes"/>
      <point x="511" y="637"/>
      <point x="413" y="434"/>
      <point x="566" y="434" type="curve" smooth="yes" name="hr01"/>
      <point x="627" y="434"/>
      <point x="657" y="473"/>
      <point x="657" y="528" type="curve" smooth="yes"/>
      <point x="657" y="598"/>
      <point x="582" y="711"/>
      <point x="388" y="711" type="curve" smooth="yes"/>
      <point x="223" y="711"/>
      <point x="68" y="557"/>
      <point x="68" y="318" type="curve" smooth="yes"/>
      <point x="68" y="128"/>
      <point x="190" y="-23"/>
      <point x="377" y="-23" type="curve" smooth="yes"/>
      <point x="554" y="-23"/>
      <point x="644" y="116"/>
      <point x="673" y="255" type="curve"/>
    </contour>
  </outline>
</glyph>
<glyph name="f" format="2">
  <advance width="548"/>
  <unicode hex="0066"/>
  <outline>
    <contour>
      <point x="721" y="939" type="curve" smooth="yes"/>
      <point x="721" y="1006"/>
      <point x="649" y="1071"/>
      <point x="506" y="1071" type="curve" smooth="yes"/>
      <point x="254" y="1071"/>
      <point x="165" y="813"/>
      <point x="165" y="695" type="curve" smooth="yes"/>
      <point x="165" y="690" type="line"/>
      <point x="27" y="690" type="line"/>
      <point x="27" y="605" type="line"/>
      <point x="165" y="605" type="line"/>
      <point x="165" y="167" type="line" smooth="yes"/>
      <point x="165" y="83"/>
      <point x="129" y="60"/>
      <point x="57" y="60" type="curve"/>
      <point x="57" y="0" type="line"/>
      <point x="501" y="0" type="line"/>
      <point x="501" y="60" type="line"/>
      <point x="437" y="60"/>
      <point x="380" y="75"/>
      <point x="380" y="167" type="curve" smooth="yes"/>
      <point x="380" y="605" type="line"/>
      <point x="554" y="605" type="line"/>
      <point x="554" y="690" type="line"/>
      <point x="380" y="690" type="line"/>
      <point x="380" y="800" type="line" smooth="yes"/>
      <point x="380" y="890"/>
      <point x="380" y="989"/>
      <point x="438" y="989" type="curve" smooth="yes"/>
      <point x="521" y="989"/>
      <point x="519" y="850"/>
      <point x="628" y="850" type="curve" smooth="yes" name="hr01"/>
      <point x="683" y="850"/>
      <point x="721" y="895"/>
    </contour>
  </outline>
</glyph>
<glyph name="g" format="2">
  <advance width="980"/>
  <unicode hex="0067"/>
  <outline>
    <contour>
      <point x="958" y="743" type="curve" smooth="yes"/>
      <point x="958" y="782"/>
      <point x="948" y="794"/>
      <point x="917" y="794" type="curve" smooth="yes"/>
      <point x="884" y="794"/>
      <point x="816" y="788"/>
      <point x="785" y="788" type="curve" smooth="yes"/>
      <point x="670" y="788"/>
      <point x="612" y="853"/>
      <point x="470" y="853" type="curve" smooth="yes"/>
      <point x="271" y="853"/>
      <point x="116" y="739"/>
      <point x="116" y="553" type="curve" smooth="yes"/>
      <point x="116" y="436"/>
      <point x="200" y="338"/>
      <point x="274" y="306" type="curve"/>
      <point x="191" y="236"/>
      <point x="112" y="148"/>
      <point x="112" y="84" type="curve" smooth="yes"/>
      <point x="112" y="38"/>
      <point x="151" y="-11"/>
      <point x="215" y="-29" type="curve"/>
      <point x="90" y="-100"/>
      <point x="42" y="-162"/>
      <point x="42" y="-222" type="curve" smooth="yes" name="hr01"/>
      <point x="42" y="-329"/>
      <point x="222" y="-401"/>
      <point x="448" y="-401" type="curve" smooth="yes"/>
      <point x="632" y="-401"/>
      <point x="936" y="-298"/>
      <point x="936" y="-76" type="curve" smooth="yes"/>
      <point x="936" y="284"/>
      <point x="298" y="88"/>
      <point x="298" y="197" type="curve" smooth="yes" name="hr02"/>
      <point x="298" y="226"/>
      <point x="331" y="254"/>
      <point x="362" y="280" type="curve"/>
      <point x="403" y="271"/>
      <point x="449" y="265"/>
      <point x="492" y="265" type="curve" smooth="yes"/>
      <point x="722" y="265"/>
      <point x="838" y="419"/>
      <point x="838" y="557" type="curve" smooth="yes"/>
      <point x="838" y="604"/>
      <point x="823" y="655"/>
      <point x="793" y="689" type="curve"/>
      <point x="816" y="688"/>
      <point x="875" y="684"/>
      <point x="906" y="684" type="curve" smooth="yes"/>
      <point x="946" y="684"/>
      <point x="958" y="704"/>
    </contour>
    <contour>
      <point x="611" y="523" type="curve" smooth="yes"/>
      <point x="611" y="442"/>
      <point x="588" y="331"/>
      <point x="492" y="331" type="curve" smooth="yes"/>
      <point x="371" y="331"/>
      <point x="346" y="479"/>
      <point x="346" y="593" type="curve" smooth="yes" name="hr03"/>
      <point x="346" y="682"/>
      <point x="371" y="788"/>
      <point x="468" y="788" type="curve" smooth="yes"/>
      <point x="586" y="788"/>
      <point x="611" y="612"/>
    </contour>
    <contour>
      <point x="822" y="-134" type="curve" smooth="yes" name="hr04"/>
      <point x="822" y="-217"/>
      <point x="661" y="-242"/>
      <point x="553" y="-242" type="curve" smooth="yes"/>
      <point x="450" y="-242"/>
      <point x="263" y="-222"/>
      <point x="263" y="-136" type="curve" smooth="yes"/>
      <point x="263" y="-113"/>
      <point x="272" y="-80"/>
      <point x="306" y="-41" type="curve"/>
      <point x="419" y="-48"/>
      <point x="652" y="-46"/>
      <point x="745" y="-68" type="curve" smooth="yes"/>
      <point x="787" y="-78"/>
      <point x="822" y="-97"/>
    </contour>
  </outline>
</glyph>
<glyph name="h" format="2">
  <unicode hex="0068"/>
  <advance width="870"/>
  <outline>
    <contour>
      <point x="865" y="0" type="line"/>
      <point x="865" y="60" type="line"/>
      <point x="805" y="60"/>
      <point x="787" y="78"/>
      <point x="787" y="167" type="curve" smooth="yes"/>
      <point x="787" y="451" type="line" smooth="yes"/>
      <point x="787" y="575"/>
      <point x="749" y="711"/>
      <point x="602" y="711" type="curve" smooth="yes"/>
      <point x="486" y="711"/>
      <point x="433" y="647"/>
      <point x="345" y="567" type="curve"/>
      <point x="345" y="1071" type="line"/>
      <point x="285" y="1071" type="line"/>
      <point x="5" y="982" type="line"/>
      <point x="31" y="931" type="line"/>
      <point x="50" y="938"/>
      <point x="66" y="942"/>
      <point x="85" y="942" type="curve" smooth="yes"/>
      <point x="115" y="942"/>
      <point x="130" y="919"/>
      <point x="130" y="840" type="curve" smooth="yes"/>
      <point x="130" y="167" type="line" smooth="yes"/>
      <point x="130" y="83"/>
      <point x="116" y="60"/>
      <point x="44" y="60" type="curve"/>
      <point x="44" y="0" type="line"/>
      <point x="427" y="0" type="line"/>
      <point x="427" y="60" type="line"/>
      <point x="363" y="60"/>
      <point x="345" y="75"/>
      <point x="345" y="167" type="curve" smooth="yes"/>
      <point x="345" y="482" type="line"/>
      <point x="390" y="531"/>
      <point x="444" y="578"/>
      <point x="486" y="578" type="curve" smooth="yes"/>
      <point x="549" y="578"/>
      <point x="572" y="538"/>
      <point x="572" y="438" type="curve" smooth="yes"/>
      <point x="572" y="166" type="line" smooth="yes"/>
      <point x="572" y="67"/>
      <point x="553" y="60"/>
      <point x="489" y="60" type="curve"/>
      <point x="489" y="0" type="line"/>
    </contour>
  </outline>
</glyph>
<glyph name="i" format="2">
  <advance width="582"/>
  <unicode hex="0069"/>
  <outline>
    <contour>
      <point x="467" y="1157" type="curve" smooth="yes"/>
      <point x="467" y="1236"/>
      <point x="398" y="1302"/>
      <point x="320" y="1302" type="curve" smooth="yes"/>
      <point x="238" y="1302"/>
      <point x="170" y="1241"/>
      <point x="170" y="1157" type="curve" smooth="yes"/>
      <point x="170" y="1069"/>
      <point x="238" y="1006"/>
      <point x="320" y="1006" type="curve" smooth="yes"/>
      <point x="403" y="1006"/>
      <point x="467" y="1074"/>
    </contour>
    <contour>
      <point x="552" y="0" type="line"/>
      <point x="552" y="72" type="line"/>
      <point x="474" y="72"/>
      <point x="452" y="94"/>
      <point x="452" y="199" type="curve" smooth="yes"/>
      <point x="452" y="853" type="line"/>
      <point x="380" y="853" type="line"/>
      <point x="44" y="752" type="line"/>
      <point x="66" y="685" type="line"/>
      <point x="89" y="692"/>
      <point x="124" y="698"/>
      <point x="144" y="698" type="curve" smooth="yes"/>
      <point x="182" y="698"/>
      <point x="194" y="672"/>
      <point x="194" y="576" type="curve" smooth="yes"/>
      <point x="194" y="200" type="line" smooth="yes"/>
      <point x="194" y="95"/>
      <point x="178" y="72"/>
      <point x="92" y="72" type="curve"/>
      <point x="92" y="0" type="line"/>
    </contour>
  </outline>
</glyph>
<glyph name="j" format="2">
  <advance width="521"/>
  <unicode hex="006A"/>
  <outline>
    <contour>
      <point x="402" y="965" type="line" smooth="yes"/>
      <point x="402" y="1031"/>
      <point x="342" y="1086"/>
      <point x="275" y="1086" type="curve" smooth="yes"/>
      <point x="209" y="1086"/>
      <point x="152" y="1031"/>
      <point x="152" y="965" type="curve" smooth="yes"/>
      <point x="152" y="891"/>
      <point x="205" y="838"/>
      <point x="275" y="838" type="curve" smooth="yes"/>
      <point x="345" y="838"/>
      <point x="402" y="895"/>
      <point x="402" y="965" type="curve" smooth="yes"/>
    </contour>
    <contour>
      <point x="387" y="711" type="line"/>
      <point x="327" y="711" type="line"/>
      <point x="47" y="627" type="line"/>
      <point x="65" y="571" type="line"/>
      <point x="82" y="577"/>
      <point x="113" y="582"/>
      <point x="130" y="582" type="curve" smooth="yes"/>
      <point x="162" y="582"/>
      <point x="172" y="560"/>
      <point x="172" y="480" type="curve" smooth="yes"/>
      <point x="172" y="-62" type="line" smooth="yes"/>
      <point x="172" y="-153"/>
      <point x="172" y="-252"/>
      <point x="114" y="-252" type="curve" smooth="yes"/>
      <point x="51" y="-252"/>
      <point x="63" y="-133"/>
      <point x="-46" y="-133" type="curve" smooth="yes" name="hr01"/>
      <point x="-101" y="-133"/>
      <point x="-139" y="-178"/>
      <point x="-139" y="-222" type="curve" smooth="yes"/>
      <point x="-139" y="-289"/>
      <point x="-77" y="-334"/>
      <point x="26" y="-334" type="curve" smooth="yes"/>
      <point x="251" y="-334"/>
      <point x="387" y="-154"/>
      <point x="387" y="84" type="curve" smooth="yes"/>
    </contour>
  </outline>
</glyph>
<glyph name="l" format="2">
  <advance width="635"/>
  <unicode hex="006C"/>
  <outline>
    <contour>
      <point x="569" y="0" type="line"/>
      <point x="569" y="72" type="line"/>
      <point x="493" y="72"/>
      <point x="470" y="90"/>
      <point x="470" y="200" type="curve" smooth="yes"/>
      <point x="470" y="1285" type="line"/>
      <point x="398" y="1285" type="line"/>
      <point x="66" y="1180" type="line"/>
      <point x="94" y="1117" type="line"/>
      <point x="114" y="1124"/>
      <point x="136" y="1130"/>
      <point x="158" y="1130" type="curve" smooth="yes"/>
      <point x="194" y="1130"/>
      <point x="212" y="1103"/>
      <point x="212" y="1008" type="curve" smooth="yes"/>
      <point x="212" y="200" type="line" smooth="yes"/>
      <point x="212" y="100"/>
      <point x="196" y="72"/>
      <point x="109" y="72" type="curve"/>
      <point x="109" y="0" type="line"/>
    </contour>
  </outline>
</glyph>
<glyph name="o" format="2">
  <advance width="782"/>
  <unicode hex="006F"/>
  <anchor x="391" y="760" name="above"/>
  <outline>
    <contour>
      <point x="739" y="359" type="curve" smooth="yes"/>
      <point x="739" y="553"/>
      <point x="597" y="711"/>
      <point x="388" y="711" type="curve" smooth="yes"/>
      <point x="173" y="711"/>
      <point x="41" y="531"/>
      <point x="41" y="338" type="curve" smooth="yes"/>
      <point x="41" y="151"/>
      <point x="175" y="-23"/>
      <point x="396" y="-23" type="curve" smooth="yes"/>
      <point x="610" y="-23"/>
      <point x="739" y="155"/>
    </contour>
    <contour>
      <point x="521" y="299" type="curve" smooth="yes"/>
      <point x="521" y="122"/>
      <point x="490" y="53"/>
      <point x="431" y="53" type="curve" smooth="yes"/>
      <point x="346" y="53"/>
      <point x="261" y="213"/>
      <point x="261" y="401" type="curve" smooth="yes"/>
      <point x="261" y="582"/>
      <point x="311" y="636"/>
      <point x="357" y="636" type="curve" smooth="yes"/>
      <point x="464" y="636"/>
      <point x="521" y="462"/>
    </contour>
  </outline>
</glyph>
<glyph name="p" format="2">
  <advance width="862"/>
  <unicode hex="0070"/>
  <outline>
    <contour>
      <point x="815" y="403" type="line" smooth="yes"/>
      <point x="815" y="593"/>
      <point x="693" y="711"/>
      <point x="562" y="711" type="curve" smooth="yes"/>
      <point x="483" y="711"/>
      <point x="406" y="670"/>
      <point x="335" y="571" type="curve"/>
      <point x="335" y="709" type="line" name="hr01"/>
      <point x="275" y="709" type="line"/>
      <point x="-5" y="620" type="line"/>
      <point x="21" y="569" type="line"/>
      <point x="40" y="576"/>
      <point x="57" y="580"/>
      <point x="75" y="580" type="curve" smooth="yes"/>
      <point x="105" y="580"/>
      <point x="120" y="557"/>
      <point x="120" y="478" type="curve" smooth="yes"/>
      <point x="120" y="-165" type="line" smooth="yes"/>
      <point x="120" y="-249"/>
      <point x="106" y="-272"/>
      <point x="34" y="-272" type="curve"/>
      <point x="34" y="-332" type="line"/>
      <point x="417" y="-332" type="line"/>
      <point x="417" y="-272" type="line"/>
      <point x="353" y="-272"/>
      <point x="335" y="-257"/>
      <point x="335" y="-165" type="curve" smooth="yes"/>
      <point x="335" y="21" type="line"/>
      <point x="364" y="-6"/>
      <point x="424" y="-23"/>
      <point x="469" y="-23" type="curve" smooth="yes"/>
      <point x="706" y="-23"/>
      <point x="815" y="163"/>
      <point x="815" y="403" type="curve" smooth="yes"/>
    </contour>
    <contour>
      <point x="593" y="327" type="line" smooth="yes"/>
      <point x="593" y="110"/>
      <point x="527" y="46"/>
      <point x="457" y="46" type="curve" smooth="yes"/>
      <point x="380" y="46"/>
      <point x="335" y="92"/>
      <point x="335" y="179" type="curve" smooth="yes"/>
      <point x="335" y="496" type="line"/>
      <point x="384" y="548"/>
      <point x="427" y="570"/>
      <point x="463" y="570" type="curve" smooth="yes" name="hr02"/>
      <point x="557" y="570"/>
      <point x="593" y="446"/>
      <point x="593" y="327" type="curve" smooth="yes"/>
    </contour>
  </outline>
</glyph>
<glyph name="q" format="2">
  <advance width="853"/>
  <unicode hex="0071"/>
  <outline>
    <contour>
      <point x="863" y="-332" type="line"/>
      <point x="863" y="-272" type="line"/>
      <point x="763" y="-272"/>
      <point x="750" y="-242"/>
      <point x="750" y="-178" type="curve" smooth="yes"/>
      <point x="750" y="711" type="line"/>
      <point x="704" y="711" type="line"/>
      <point x="673" y="697"/>
      <point x="633" y="656"/>
      <point x="602" y="642" type="curve"/>
      <point x="561" y="675"/>
      <point x="492" y="711"/>
      <point x="411" y="711" type="curve" smooth="yes"/>
      <point x="204" y="711"/>
      <point x="50" y="529"/>
      <point x="50" y="314" type="curve" smooth="yes"/>
      <point x="50" y="81"/>
      <point x="203" y="-23"/>
      <point x="335" y="-23" type="curve" smooth="yes"/>
      <point x="415" y="-23"/>
      <point x="474" y="6"/>
      <point x="539" y="74" type="curve"/>
      <point x="539" y="-178" type="line" smooth="yes"/>
      <point x="539" y="-244"/>
      <point x="537" y="-272"/>
      <point x="437" y="-272" type="curve"/>
      <point x="437" y="-332" type="line"/>
    </contour>
    <contour>
      <point x="539" y="156" type="line"/>
      <point x="501" y="117"/>
      <point x="464" y="91"/>
      <point x="420" y="91" type="curve" smooth="yes"/>
      <point x="344" y="91"/>
      <point x="259" y="190"/>
      <point x="259" y="380" type="curve" smooth="yes"/>
      <point x="259" y="577"/>
      <point x="325" y="647"/>
      <point x="416" y="647" type="curve" smooth="yes"/>
      <point x="499" y="647"/>
      <point x="539" y="576"/>
      <point x="539" y="512" type="curve" smooth="yes"/>
    </contour>
  </outline>
</glyph>
<glyph name="r" format="2">
  <advance width="675"/>
  <unicode hex="0072"/>
  <outline>
    <contour>
      <point x="550" y="711" type="line" smooth="yes"/>
      <point x="468" y="711"/>
      <point x="391" y="638"/>
      <point x="345" y="565" type="curve"/>
      <point x="345" y="711" type="line"/>
      <point x="285" y="711" type="line"/>
      <point x="5" y="627" type="line"/>
      <point x="23" y="571" type="line"/>
      <point x="38" y="577"/>
      <point x="72" y="582"/>
      <point x="88" y="582" type="curve" smooth="yes" name="hr01"/>
      <point x="120" y="582"/>
      <point x="130" y="560"/>
      <point x="130" y="480" type="curve" smooth="yes"/>
      <point x="130" y="166" type="line" smooth="yes"/>
      <point x="130" y="78"/>
      <point x="116" y="60"/>
      <point x="45" y="60" type="curve"/>
      <point x="45" y="0" type="line"/>
      <point x="427" y="0" type="line"/>
      <point x="427" y="60" type="line"/>
      <point x="363" y="60"/>
      <point x="345" y="79"/>
      <point x="345" y="166" type="curve" smooth="yes"/>
      <point x="345" y="450" type="line"/>
      <point x="377" y="514"/>
      <point x="416" y="573"/>
      <point x="445" y="573" type="curve" smooth="yes"/>
      <point x="483" y="573"/>
      <point x="501" y="507"/>
      <point x="581" y="507" type="curve" smooth="yes" name="hr02"/>
      <point x="642" y="507"/>
      <point x="670" y="554"/>
      <point x="670" y="606" type="curve" smooth="yes"/>
      <point x="670" y="671"/>
      <point x="615" y="711"/>
      <point x="550" y="711" type="curve" smooth="yes"/>
    </contour>
  </outline>
</glyph>
<glyph name="s" format="2">
  <advance width="670"/>
  <unicode hex="0073"/>
  <anchor x="330" y="760" name="above"/>
  <outline>
    <contour>
      <point x="605" y="198" type="curve" smooth="yes"/>
      <point x="605" y="430"/>
      <point x="229" y="432"/>
      <point x="229" y="577" type="curve" smooth="yes"/>
      <point x="229" y="618"/>
      <point x="260" y="648"/>
      <point x="314" y="648" type="curve" smooth="yes"/>
      <point x="407" y="648"/>
      <point x="486" y="563"/>
      <point x="518" y="455" type="curve"/>
      <point x="576" y="455" type="line"/>
      <point x="576" y="721" type="line" name="hr01"/>
      <point x="526" y="721" type="line"/>
      <point x="520" y="706"/>
      <point x="509" y="684"/>
      <point x="490" y="684" type="curve" smooth="yes"/>
      <point x="440" y="684"/>
      <point x="384" y="711"/>
      <point x="301" y="711" type="curve" smooth="yes" name="hr02"/>
      <point x="185" y="711"/>
      <point x="78" y="633"/>
      <point x="78" y="506" type="curve" smooth="yes"/>
      <point x="78" y="267"/>
      <point x="426" y="269"/>
      <point x="426" y="127" type="curve" smooth="yes"/>
      <point x="426" y="81"/>
      <point x="402" y="45"/>
      <point x="337" y="45" type="curve" smooth="yes"/>
      <point x="228" y="45"/>
      <point x="155" y="157"/>
      <point x="134" y="266" type="curve"/>
      <point x="76" y="266" type="line"/>
      <point x="76" y="-20" type="line" name="hr03"/>
      <point x="134" y="-20" type="line"/>
      <point x="139" y="-12"/>
      <point x="149" y="25"/>
      <point x="161" y="25" type="curve" smooth="yes"/>
      <point x="188" y="25"/>
      <point x="262" y="-23"/>
      <point x="357" y="-23" type="curve" smooth="yes" name="hr04"/>
      <point x="496" y="-23"/>
      <point x="605" y="59"/>
    </contour>
  </outline>
</glyph>
<glyph name="t" format="2">
  <advance width="544"/>
  <unicode hex="0074"/>
  <outline>
    <contour>
      <point x="485" y="197" type="line"/>
      <point x="465" y="147"/>
      <point x="435" y="114"/>
      <point x="402" y="114" type="curve" smooth="yes"/>
      <point x="362" y="114"/>
      <point x="342" y="148"/>
      <point x="342" y="238" type="curve" smooth="yes"/>
      <point x="342" y="616" type="line"/>
      <point x="524" y="616" type="line"/>
      <point x="524" y="690" type="line"/>
      <point x="342" y="690" type="line"/>
      <point x="342" y="918" type="line"/>
      <point x="292" y="918" type="line"/>
      <point x="227" y="795"/>
      <point x="118" y="681"/>
      <point x="8" y="662" type="curve"/>
      <point x="8" y="616" type="line"/>
      <point x="127" y="616" type="line"/>
      <point x="127" y="210" type="line" smooth="yes"/>
      <point x="127" y="62"/>
      <point x="186" y="-23"/>
      <point x="294" y="-23" type="curve" smooth="yes"/>
      <point x="458" y="-23"/>
      <point x="522" y="121"/>
      <point x="534" y="197" type="curve"/>
    </contour>
  </outline>
</glyph>
<glyph name="u" format="2">
  <unicode hex="0075"/>
  <advance width="870"/>
  <anchor x="433" y="760" name="above"/>
  <outline>
    <contour>
      <point x="870" y="61" type="line"/>
      <point x="852" y="117" type="line"/>
      <point x="835" y="111"/>
      <point x="804" y="106"/>
      <point x="787" y="106" type="curve" smooth="yes"/>
      <point x="755" y="106"/>
      <point x="745" y="128"/>
      <point x="745" y="208" type="curve" smooth="yes"/>
      <point x="745" y="690" type="line"/>
      <point x="428" y="690" type="line"/>
      <point x="428" y="628" type="line"/>
      <point x="512" y="628"/>
      <point x="530" y="610"/>
      <point x="530" y="522" type="curve" smooth="yes"/>
      <point x="530" y="198" type="line"/>
      <point x="485" y="146"/>
      <point x="431" y="110"/>
      <point x="389" y="110" type="curve" smooth="yes"/>
      <point x="326" y="110"/>
      <point x="303" y="150"/>
      <point x="303" y="250" type="curve" smooth="yes"/>
      <point x="303" y="690" type="line"/>
      <point x="-10" y="690" type="line"/>
      <point x="-10" y="628" type="line"/>
      <point x="70" y="628"/>
      <point x="88" y="610"/>
      <point x="88" y="522" type="curve" smooth="yes"/>
      <point x="88" y="237" type="line" smooth="yes"/>
      <point x="88" y="96"/>
      <point x="125" y="-23"/>
      <point x="274" y="-23" type="curve" smooth="yes"/>
      <point x="389" y="-23"/>
      <point x="479" y="57"/>
      <point x="530" y="113" type="curve"/>
      <point x="530" y="-23" type="line"/>
      <point x="590" y="-23" type="line"/>
    </contour>
  </outline>
</glyph>
<glyph name="v" format="2">
  <advance width="785"/>
  <unicode hex="0076"/>
  <outline>
    <contour>
      <point x="783" y="690" type="line"/>
      <point x="507" y="690" type="line"/>
      <point x="507" y="630" type="line"/>
      <point x="564" y="630"/>
      <point x="589" y="611"/>
      <point x="589" y="578" type="curve" smooth="yes"/>
      <point x="589" y="565"/>
      <point x="585" y="549"/>
      <point x="577" y="531" type="curve" smooth="yes"/>
      <point x="463" y="262" type="line"/>
      <point x="354" y="512" type="line" smooth="yes"/>
      <point x="343" y="536"/>
      <point x="338" y="559"/>
      <point x="338" y="576" type="curve" smooth="yes"/>
      <point x="338" y="612"/>
      <point x="359" y="630"/>
      <point x="416" y="630" type="curve"/>
      <point x="416" y="690" type="line"/>
      <point x="-2" y="690" type="line"/>
      <point x="-2" y="630" type="line"/>
      <point x="66" y="619"/>
      <point x="90" y="610"/>
      <point x="125" y="531" type="curve" smooth="yes"/>
      <point x="367" y="-23" type="line"/>
      <point x="427" y="-23" type="line"/>
      <point x="668" y="539" type="line" smooth="yes"/>
      <point x="692" y="595"/>
      <point x="719" y="627"/>
      <point x="783" y="630" type="curve"/>
    </contour>
  </outline>
</glyph>
<glyph name="w" format="2">
  <advance width="1145"/>
  <unicode hex="0077"/>
  <outline>
    <contour>
      <point x="1143" y="690" type="line"/>
      <point x="876" y="690" type="line"/>
      <point x="876" y="630" type="line"/>
      <point x="929" y="630"/>
      <point x="952" y="610"/>
      <point x="952" y="581" type="curve" smooth="yes"/>
      <point x="952" y="565"/>
      <point x="946" y="546"/>
      <point x="938" y="527" type="curve" smooth="yes"/>
      <point x="837" y="277" type="line"/>
      <point x="814" y="330"/>
      <point x="720" y="551"/>
      <point x="720" y="584" type="curve" smooth="yes"/>
      <point x="720" y="616"/>
      <point x="745" y="630"/>
      <point x="799" y="630" type="curve"/>
      <point x="799" y="690" type="line"/>
      <point x="419" y="690" type="line"/>
      <point x="419" y="630" type="line"/>
      <point x="493" y="628"/>
      <point x="501" y="579"/>
      <point x="547" y="460" type="curve"/>
      <point x="444" y="249" type="line"/>
      <point x="326" y="527" type="line" smooth="yes"/>
      <point x="319" y="544"/>
      <point x="310" y="569"/>
      <point x="310" y="584" type="curve" smooth="yes"/>
      <point x="310" y="616"/>
      <point x="325" y="630"/>
      <point x="368" y="630" type="curve"/>
      <point x="368" y="690" type="line"/>
      <point x="-2" y="690" type="line"/>
      <point x="-2" y="630" type="line"/>
      <point x="58" y="620"/>
      <point x="83" y="593"/>
      <point x="111" y="527" type="curve" smooth="yes"/>
      <point x="342" y="-23" type="line"/>
      <point x="400" y="-23" type="line"/>
      <point x="586" y="358" type="line"/>
      <point x="743" y="-23" type="line"/>
      <point x="802" y="-23" type="line"/>
      <point x="1032" y="543" type="line" smooth="yes"/>
      <point x="1061" y="614"/>
      <point x="1094" y="623"/>
      <point x="1143" y="630" type="curve"/>
    </contour>
  </outline>
</glyph>
<glyph name="y" format="2">
  <advance width="961"/>
  <unicode hex="0079"/>
  <anchor x="480" y="912" name="above"/>
  <outline>
    <contour>
      <point x="959" y="828" type="line"/>
      <point x="628" y="828" type="line"/>
      <point x="628" y="756" type="line"/>
      <point x="696" y="756"/>
      <point x="726" y="733"/>
      <point x="726" y="694" type="curve" smooth="yes"/>
      <point x="726" y="672"/>
      <point x="721" y="659"/>
      <point x="712" y="637" type="curve" smooth="yes"/>
      <point x="576" y="312" type="line"/>
      <point x="444" y="614" type="line" smooth="yes"/>
      <point x="431" y="644"/>
      <point x="425" y="671"/>
      <point x="425" y="692" type="curve" smooth="yes"/>
      <point x="425" y="734"/>
      <point x="450" y="756"/>
      <point x="518" y="756" type="curve"/>
      <point x="518" y="828" type="line"/>
      <point x="17" y="828" type="line"/>
      <point x="17" y="756" type="line"/>
      <point x="98" y="743"/>
      <point x="127" y="732"/>
      <point x="169" y="637" type="curve" smooth="yes"/>
      <point x="445" y="6" type="line"/>
      <point x="413" y="-77"/>
      <point x="354" y="-232"/>
      <point x="294" y="-232" type="curve" smooth="yes"/>
      <point x="226" y="-232"/>
      <point x="214" y="-139"/>
      <point x="112" y="-139" type="curve" smooth="yes" name="hr01"/>
      <point x="58" y="-139"/>
      <point x="-2" y="-172"/>
      <point x="-2" y="-260" type="curve" smooth="yes"/>
      <point x="-2" y="-355"/>
      <point x="95" y="-401"/>
      <point x="176" y="-401" type="curve" smooth="yes"/>
      <point x="292" y="-401"/>
      <point x="415" y="-320"/>
      <point x="498" y="-122" type="curve" smooth="yes"/>
      <point x="821" y="647" type="line" smooth="yes"/>
      <point x="850" y="715"/>
      <point x="882" y="752"/>
      <point x="959" y="756" type="curve"/>
    </contour>
  </outline>
</glyph>
<glyph name="z" format="2">
  <unicode hex="007A"/>
  <advance width="755"/>
  <anchor x="403" y="760" name="above"/>
  <outline>
    <contour>
      <point x="731" y="630" type="line"/>
      <point x="731" y="690" type="line"/>
      <point x="131" y="690" type="line"/>
      <point x="127" y="428" type="line"/>
      <point x="185" y="428" type="line"/>
      <point x="198" y="546"/>
      <point x="226" y="607"/>
      <point x="341" y="607" type="curve" smooth="yes"/>
      <point x="454" y="607" type="line"/>
      <point x="80" y="60" type="line"/>
      <point x="80" y="0" type="line"/>
      <point x="708" y="0" type="line"/>
      <point x="718" y="282" type="line"/>
      <point x="662" y="282" type="line"/>
      <point x="645" y="129"/>
      <point x="601" y="82"/>
      <point x="490" y="82" type="curve" smooth="yes"/>
      <point x="356" y="82" type="line"/>
    </contour>
  </outline>
</glyph>
<glyph name="braceleft" format="2">
  <advance width="790"/>
  <unicode hex="007B"/>
  <outline>
    <contour>
      <point x="652" y="-372" type="curve"/>
      <point x="652" y="-330" type="line"/>
      <point x="572" y="-330"/>
      <point x="476" y="-253"/>
      <point x="476" y="-160" type="curve" smooth="yes"/>
      <point x="476" y="-40"/>
      <point x="521" y="30"/>
      <point x="521" y="144" type="curve" smooth="yes" name="hr01"/>
      <point x="521" y="302"/>
      <point x="386" y="410"/>
      <point x="246" y="439" type="curve"/>
      <point x="386" y="468"/>
      <point x="521" y="578"/>
      <point x="521" y="737" type="curve" smooth="yes"/>
      <point x="521" y="851"/>
      <point x="476" y="920"/>
      <point x="476" y="1042" type="curve" smooth="yes" name="hr02"/>
      <point x="476" y="1134"/>
      <point x="572" y="1211"/>
      <point x="652" y="1211" type="curve"/>
      <point x="652" y="1253" type="line"/>
      <point x="530" y="1253"/>
      <point x="277" y="1211"/>
      <point x="277" y="970" type="curve" smooth="yes"/>
      <point x="277" y="848"/>
      <point x="326" y="785"/>
      <point x="326" y="661" type="curve" smooth="yes" name="hr03"/>
      <point x="326" y="563"/>
      <point x="246" y="468"/>
      <point x="150" y="468" type="curve"/>
      <point x="150" y="410" type="line"/>
      <point x="246" y="410"/>
      <point x="326" y="318"/>
      <point x="326" y="220" type="curve" smooth="yes"/>
      <point x="326" y="97"/>
      <point x="277" y="32"/>
      <point x="277" y="-89" type="curve" smooth="yes" name="hr04"/>
      <point x="277" y="-326"/>
      <point x="530" y="-372"/>
    </contour>
  </outline>
</glyph>
<glyph name="bar" format="2">
  <advance width="340"/>
  <unicode hex="007C"/>
  <outline>
    <contour>
      <point x="220" y="-331" type="line"/>
      <point x="220" y="1044" type="line"/>
      <point x="120" y="1044" type="line"/>
      <point x="120" y="-331" type="line"/>
    </contour>
  </outline>
</glyph>
<glyph name="braceright" format="2">
  <advance width="658"/>
  <unicode hex="007D"/>
  <outline>
    <contour>
      <point x="533" y="342" type="curve"/>
      <point x="533" y="390" type="line"/>
      <point x="453" y="390"/>
      <point x="386" y="469"/>
      <point x="386" y="551" type="curve" smooth="yes"/>
      <point x="386" y="654"/>
      <point x="426" y="707"/>
      <point x="426" y="808" type="curve" smooth="yes" name="hr01"/>
      <point x="426" y="1009"/>
      <point x="215" y="1044"/>
      <point x="115" y="1044" type="curve"/>
      <point x="115" y="1009" type="line"/>
      <point x="181" y="1009"/>
      <point x="261" y="945"/>
      <point x="261" y="868" type="curve" smooth="yes"/>
      <point x="261" y="767"/>
      <point x="224" y="709"/>
      <point x="224" y="614" type="curve" smooth="yes" name="hr02"/>
      <point x="224" y="482"/>
      <point x="335" y="390"/>
      <point x="453" y="366" type="curve"/>
      <point x="335" y="342"/>
      <point x="224" y="252"/>
      <point x="224" y="120" type="curve" smooth="yes"/>
      <point x="224" y="25"/>
      <point x="261" y="-33"/>
      <point x="261" y="-133" type="curve" smooth="yes" name="hr03"/>
      <point x="261" y="-211"/>
      <point x="181" y="-275"/>
      <point x="115" y="-275" type="curve"/>
      <point x="115" y="-310" type="line"/>
      <point x="215" y="-310"/>
      <point x="426" y="-272"/>
      <point x="426" y="-74" type="curve" smooth="yes"/>
      <point x="426" y="27"/>
      <point x="386" y="81"/>
      <point x="386" y="183" type="curve" smooth="yes" name="hr04"/>
      <point x="386" y="265"/>
      <point x="453" y="342"/>
    </contour>
  </outline>
</glyph>
<glyph name="asciitilde" format="2">
  <advance width="848"/>
  <unicode hex="007E"/>
  <outline>
    <contour>
      <point x="768" y="562" type="line"/>
      <point x="735" y="497"/>
      <point x="684" y="427"/>
      <point x="606" y="427" type="curve" smooth="yes" name="hr01"/>
      <point x="508" y="427"/>
      <point x="377" y="562"/>
      <point x="244" y="562" type="curve" smooth="yes" name="hr02"/>
      <point x="133" y="562"/>
      <point x="63" y="433"/>
      <point x="18" y="347" type="curve"/>
      <point x="72" y="279" type="line"/>
      <point x="109" y="342"/>
      <point x="154" y="422"/>
      <point x="236" y="422" type="curve" smooth="yes"/>
      <point x="358" y="422"/>
      <point x="473" y="291"/>
      <point x="598" y="291" type="curve" smooth="yes" name="hr03"/>
      <point x="700" y="291"/>
      <point x="788" y="402"/>
      <point x="825" y="498" type="curve"/>
    </contour>
  </outline>
</glyph>
<glyph name="exclamdown" format="2">
  <advance width="617"/>
  <unicode hex="00A1"/>
  <outline>
    <contour>
      <point x="437" y="733" type="curve" smooth="yes"/>
      <point x="437" y="804"/>
      <point x="380" y="863"/>
      <point x="308" y="863" type="curve" smooth="yes"/>
      <point x="236" y="863"/>
      <point x="178" y="804"/>
      <point x="178" y="733" type="curve" smooth="yes"/>
      <point x="178" y="662"/>
      <point x="236" y="605"/>
      <point x="308" y="605" type="curve" smooth="yes"/>
      <point x="380" y="605"/>
      <point x="437" y="662"/>
    </contour>
    <contour>
      <point x="448" y="-229" type="curve" smooth="yes"/>
      <point x="448" y="-197"/>
      <point x="443" y="-167"/>
      <point x="436" y="-124" type="curve"/>
      <point x="344" y="530" type="line"/>
      <point x="272" y="530" type="line"/>
      <point x="180" y="-124" type="line"/>
      <point x="176" y="-149"/>
      <point x="169" y="-206"/>
      <point x="169" y="-221" type="curve" smooth="yes"/>
      <point x="169" y="-320"/>
      <point x="226" y="-400"/>
      <point x="306" y="-400" type="curve" smooth="yes"/>
      <point x="402" y="-400"/>
      <point x="448" y="-311"/>
    </contour>
  </outline>
</glyph>
<glyph name="cent" format="2">
  <advance width="787"/>
  <unicode hex="00A2"/>
  <outline>
    <contour>
      <point x="652" y="274" type="line"/>
      <point x="604" y="156"/>
      <point x="540" y="138"/>
      <point x="491" y="138" type="curve" smooth="yes"/>
      <point x="437" y="138"/>
      <point x="390" y="161"/>
      <point x="352" y="200" type="curve"/>
      <point x="480" y="551" type="line"/>
      <point x="491" y="496"/>
      <point x="504" y="434"/>
      <point x="589" y="434" type="curve" smooth="yes"/>
      <point x="650" y="434"/>
      <point x="680" y="473"/>
      <point x="680" y="528" type="curve" smooth="yes"/>
      <point x="680" y="581"/>
      <point x="637" y="659"/>
      <point x="531" y="693" type="curve"/>
      <point x="643" y="999" type="line"/>
      <point x="570" y="999" type="line"/>
      <point x="464" y="708" type="line"/>
      <point x="447" y="710"/>
      <point x="430" y="711"/>
      <point x="411" y="711" type="curve" smooth="yes"/>
      <point x="246" y="711"/>
      <point x="91" y="557"/>
      <point x="91" y="318" type="curve" smooth="yes"/>
      <point x="91" y="199"/>
      <point x="138" y="96"/>
      <point x="219" y="35" type="curve"/>
      <point x="103" y="-285" type="line"/>
      <point x="176" y="-285" type="line"/>
      <point x="280" y="0" type="line"/>
      <point x="316" y="-14"/>
      <point x="356" y="-23"/>
      <point x="400" y="-23" type="curve" smooth="yes"/>
      <point x="577" y="-23"/>
      <point x="667" y="116"/>
      <point x="696" y="255" type="curve"/>
    </contour>
    <contour>
      <point x="304" y="269" type="line"/>
      <point x="278" y="323"/>
      <point x="263" y="390"/>
      <point x="263" y="464" type="curve" smooth="yes"/>
      <point x="263" y="576"/>
      <point x="306" y="637"/>
      <point x="379" y="637" type="curve" smooth="yes" name="hr01"/>
      <point x="402" y="637"/>
      <point x="420" y="632"/>
      <point x="433" y="624" type="curve"/>
    </contour>
  </outline>
</glyph>
<glyph name="sterling" format="2">
  <advance width="787"/>
  <unicode hex="00A3"/>
  <outline>
    <contour>
      <point x="730" y="350" type="line"/>
      <point x="699" y="231"/>
      <point x="618" y="192"/>
      <point x="530" y="192" type="curve" smooth="yes"/>
      <point x="484" y="192"/>
      <point x="437" y="212"/>
      <point x="365" y="231" type="curve"/>
      <point x="385" y="314"/>
      <point x="391" y="402"/>
      <point x="391" y="468" type="curve"/>
      <point x="566" y="468" type="line"/>
      <point x="566" y="569" type="line"/>
      <point x="391" y="569" type="line"/>
      <point x="385" y="641"/>
      <point x="375" y="717"/>
      <point x="375" y="791" type="curve" smooth="yes"/>
      <point x="375" y="883"/>
      <point x="377" y="979"/>
      <point x="442" y="979" type="curve" smooth="yes"/>
      <point x="562" y="979"/>
      <point x="457" y="767"/>
      <point x="604" y="767" type="curve" smooth="yes" name="hr01"/>
      <point x="680" y="767"/>
      <point x="701" y="825"/>
      <point x="701" y="869" type="curve" smooth="yes"/>
      <point x="701" y="975"/>
      <point x="595" y="1044"/>
      <point x="460" y="1044" type="curve" smooth="yes"/>
      <point x="234" y="1044"/>
      <point x="160" y="885"/>
      <point x="160" y="719" type="curve" smooth="yes"/>
      <point x="160" y="668"/>
      <point x="168" y="618"/>
      <point x="170" y="569" type="curve"/>
      <point x="25" y="569" type="line"/>
      <point x="25" y="468" type="line"/>
      <point x="181" y="468" type="line"/>
      <point x="187" y="402"/>
      <point x="198" y="338"/>
      <point x="198" y="289" type="curve" smooth="yes"/>
      <point x="198" y="281"/>
      <point x="198" y="272"/>
      <point x="197" y="265" type="curve"/>
      <point x="185" y="266"/>
      <point x="172" y="267"/>
      <point x="161" y="267" type="curve" smooth="yes"/>
      <point x="52" y="267"/>
      <point x="8" y="191"/>
      <point x="8" y="118" type="curve" smooth="yes"/>
      <point x="8" y="49"/>
      <point x="46" y="-18"/>
      <point x="135" y="-18" type="curve" smooth="yes"/>
      <point x="212" y="-18"/>
      <point x="267" y="23"/>
      <point x="306" y="83" type="curve"/>
      <point x="356" y="33"/>
      <point x="409" y="-18"/>
      <point x="508" y="-18" type="curve" smooth="yes"/>
      <point x="675" y="-18"/>
      <point x="751" y="161"/>
      <point x="778" y="339" type="curve"/>
    </contour>
    <contour>
      <point x="130" y="57" type="line" smooth="yes"/>
      <point x="97" y="57"/>
      <point x="85" y="86"/>
      <point x="85" y="116" type="curve" smooth="yes"/>
      <point x="85" y="148"/>
      <point x="100" y="180"/>
      <point x="151" y="180" type="curve" smooth="yes"/>
      <point x="166" y="180"/>
      <point x="180" y="176"/>
      <point x="194" y="170" type="curve"/>
      <point x="189" y="115"/>
      <point x="174" y="57"/>
      <point x="130" y="57" type="curve" smooth="yes"/>
    </contour>
  </outline>
</glyph>
<glyph name="yen" format="2">
  <unicode hex="00A5"/>
  <advance width="787"/>
  <outline>
    <contour>
      <point x="775" y="239" type="line"/>
      <point x="775" y="322" type="line"/>
      <point x="503" y="322" type="line"/>
      <point x="503" y="412" type="line"/>
      <point x="508" y="427" type="line"/>
      <point x="775" y="427" type="line"/>
      <point x="775" y="507" type="line"/>
      <point x="538" y="507" type="line"/>
      <point x="654" y="844" type="line" smooth="yes"/>
      <point x="683" y="903"/>
      <point x="711" y="962"/>
      <point x="787" y="962" type="curve"/>
      <point x="787" y="1022" type="line"/>
      <point x="520" y="1022" type="line"/>
      <point x="520" y="962" type="line"/>
      <point x="553" y="960"/>
      <point x="584" y="956"/>
      <point x="584" y="915" type="curve" smooth="yes"/>
      <point x="584" y="895"/>
      <point x="579" y="875"/>
      <point x="570" y="858" type="curve" smooth="yes"/>
      <point x="460" y="539" type="line"/>
      <point x="448" y="572"/>
      <point x="330" y="899"/>
      <point x="330" y="915" type="curve" smooth="yes"/>
      <point x="330" y="950"/>
      <point x="377" y="960"/>
      <point x="404" y="962" type="curve"/>
      <point x="404" y="1022" type="line"/>
      <point x="0" y="1022" type="line"/>
      <point x="0" y="962" type="line"/>
      <point x="76" y="954"/>
      <point x="99" y="915"/>
      <point x="123" y="852" type="curve" smooth="yes"/>
      <point x="251" y="507" type="line"/>
      <point x="12" y="507" type="line"/>
      <point x="12" y="427" type="line"/>
      <point x="280" y="427" type="line"/>
      <point x="292" y="400" type="line"/>
      <point x="292" y="322" type="line"/>
      <point x="12" y="322" type="line"/>
      <point x="12" y="239" type="line"/>
      <point x="292" y="239" type="line"/>
      <point x="292" y="184" type="line" smooth="yes"/>
      <point x="292" y="103"/>
      <point x="292" y="60"/>
      <point x="160" y="60" type="curve"/>
      <point x="160" y="0" type="line"/>
      <point x="632" y="0" type="line"/>
      <point x="632" y="60" type="line"/>
      <point x="505" y="60"/>
      <point x="503" y="98"/>
      <point x="503" y="184" type="curve" smooth="yes"/>
      <point x="503" y="239" type="line"/>
    </contour>
  </outline>
</glyph>
<glyph name="brokenbar" format="2">
  <advance width="340"/>
  <unicode hex="00A6"/>
  <outline>
    <contour>
      <point x="208" y="499" type="line"/>
      <point x="208" y="1093" type="line"/>
      <point x="132" y="1093" type="line"/>
      <point x="132" y="499" type="line"/>
    </contour>
    <contour>
      <point x="208" y="-294" type="line"/>
      <point x="208" y="300" type="line"/>
      <point x="132" y="300" type="line"/>
      <point x="132" y="-294" type="line"/>
    </contour>
  </outline>
</glyph>
<glyph name="section" format="2">
  <unicode hex="00A7"/>
  <advance width="771"/>
  <outline>
    <contour>
      <point x="703" y="342" type="line" smooth="yes"/>
      <point x="703" y="614"/>
      <point x="260" y="706"/>
      <point x="260" y="873" type="curve" smooth="yes"/>
      <point x="260" y="948"/>
      <point x="324" y="1000"/>
      <point x="390" y="1000" type="curve" smooth="yes"/>
      <point x="441" y="1000"/>
      <point x="486" y="964"/>
      <point x="486" y="921" type="curve" smooth="yes" name="hr01"/>
      <point x="486" y="896"/>
      <point x="475" y="875"/>
      <point x="475" y="849" type="curve" smooth="yes"/>
      <point x="475" y="805"/>
      <point x="513" y="772"/>
      <point x="557" y="772" type="curve" smooth="yes"/>
      <point x="613" y="772"/>
      <point x="646" y="809"/>
      <point x="646" y="859" type="curve" smooth="yes"/>
      <point x="646" y="971"/>
      <point x="517" y="1049"/>
      <point x="394" y="1049" type="curve" smooth="yes"/>
      <point x="252" y="1049"/>
      <point x="118" y="957"/>
      <point x="118" y="815" type="curve" smooth="yes"/>
      <point x="118" y="716"/>
      <point x="177" y="662"/>
      <point x="228" y="608" type="curve"/>
      <point x="157" y="554"/>
      <point x="70" y="468"/>
      <point x="70" y="349" type="curve" smooth="yes" name="hr02"/>
      <point x="70" y="107"/>
      <point x="519" y="-1"/>
      <point x="519" y="-157" type="curve" smooth="yes"/>
      <point x="519" y="-234"/>
      <point x="462" y="-281"/>
      <point x="380" y="-281" type="curve" smooth="yes"/>
      <point x="315" y="-281"/>
      <point x="285" y="-255"/>
      <point x="285" y="-226" type="curve" smooth="yes" name="hr03"/>
      <point x="285" y="-194"/>
      <point x="305" y="-168"/>
      <point x="305" y="-138" type="curve" smooth="yes"/>
      <point x="305" y="-94"/>
      <point x="268" y="-59"/>
      <point x="217" y="-59" type="curve" smooth="yes"/>
      <point x="169" y="-59"/>
      <point x="131" y="-99"/>
      <point x="131" y="-147" type="curve" smooth="yes"/>
      <point x="131" y="-268"/>
      <point x="242" y="-334"/>
      <point x="376" y="-334" type="curve" smooth="yes"/>
      <point x="539" y="-334"/>
      <point x="655" y="-241"/>
      <point x="655" y="-113" type="curve" smooth="yes"/>
      <point x="655" y="-6"/>
      <point x="596" y="44"/>
      <point x="540" y="105" type="curve"/>
      <point x="621" y="159"/>
      <point x="703" y="231"/>
      <point x="703" y="342" type="curve" smooth="yes"/>
    </contour>
    <contour>
      <point x="575" y="265" type="line" smooth="yes"/>
      <point x="575" y="210"/>
      <point x="543" y="173"/>
      <point x="502" y="136" type="curve"/>
      <point x="272" y="308"/>
      <point x="200" y="349"/>
      <point x="200" y="438" type="curve" smooth="yes" name="hr04"/>
      <point x="200" y="498"/>
      <point x="227" y="536"/>
      <point x="272" y="575" type="curve"/>
      <point x="486" y="419"/>
      <point x="575" y="371"/>
      <point x="575" y="265" type="curve" smooth="yes"/>
    </contour>
  </outline>
</glyph>
<glyph name="dieresis" format="2">
  <advance width="487"/>
  <unicode hex="00A8"/>
  <anchor x="245" y="760" name="_above"/>
  <outline>
    <contour>
      <point x="487" y="949" type="curve" smooth="yes"/>
      <point x="487" y="1005"/>
      <point x="442" y="1050"/>
      <point x="386" y="1050" type="curve" smooth="yes"/>
      <point x="330" y="1050"/>
      <point x="285" y="1005"/>
      <point x="285" y="949" type="curve" smooth="yes"/>
      <point x="285" y="893"/>
      <point x="330" y="848"/>
      <point x="386" y="848" type="curve" smooth="yes"/>
      <point x="442" y="848"/>
      <point x="487" y="893"/>
    </contour>
    <contour>
      <point x="202" y="949" type="curve" smooth="yes"/>
      <point x="202" y="1005"/>
      <point x="157" y="1050"/>
      <point x="101" y="1050" type="curve" smooth="yes"/>
      <point x="44" y="1050"/>
      <point x="0" y="1005"/>
      <point x="0" y="949" type="curve" smooth="yes"/>
      <point x="0" y="893"/>
      <point x="44" y="848"/>
      <point x="101" y="848" type="curve" smooth="yes"/>
      <point x="157" y="848"/>
      <point x="202" y="893"/>
    </contour>
  </outline>
</glyph>
<glyph name="ordfeminine" format="2">
  <advance width="551"/>
  <unicode hex="00AA"/>
  <outline>
    <contour>
      <point x="551" y="714" type="line"/>
      <point x="541" y="705"/>
      <point x="508" y="684"/>
      <point x="492" y="684" type="curve" smooth="yes"/>
      <point x="476" y="684"/>
      <point x="470" y="695"/>
      <point x="468" y="706" type="curve" smooth="yes"/>
      <point x="465" y="721"/>
      <point x="465" y="749"/>
      <point x="465" y="772" type="curve" smooth="yes"/>
      <point x="465" y="895" type="line" smooth="yes"/>
      <point x="465" y="997"/>
      <point x="408" y="1035"/>
      <point x="254" y="1035" type="curve" smooth="yes"/>
      <point x="168" y="1035"/>
      <point x="50" y="996"/>
      <point x="50" y="926" type="curve" smooth="yes"/>
      <point x="50" y="891"/>
      <point x="77" y="870"/>
      <point x="117" y="870" type="curve" smooth="yes"/>
      <point x="173" y="870"/>
      <point x="189" y="905"/>
      <point x="189" y="932" type="curve" smooth="yes"/>
      <point x="189" y="942"/>
      <point x="186" y="950"/>
      <point x="184" y="959" type="curve"/>
      <point x="189" y="989"/>
      <point x="212" y="997"/>
      <point x="242" y="997" type="curve" smooth="yes"/>
      <point x="288" y="997"/>
      <point x="308" y="956"/>
      <point x="308" y="901" type="curve" smooth="yes"/>
      <point x="308" y="884" type="line"/>
      <point x="210" y="855"/>
      <point x="38" y="800"/>
      <point x="38" y="709" type="curve" smooth="yes"/>
      <point x="38" y="643"/>
      <point x="80" y="603"/>
      <point x="153" y="603" type="curve" smooth="yes"/>
      <point x="215" y="603"/>
      <point x="261" y="631"/>
      <point x="308" y="665" type="curve"/>
      <point x="308" y="632"/>
      <point x="345" y="603"/>
      <point x="391" y="603" type="curve" smooth="yes"/>
      <point x="464" y="603"/>
      <point x="532" y="652"/>
      <point x="551" y="671" type="curve"/>
    </contour>
    <contour>
      <point x="545" y="466" type="line"/>
      <point x="545" y="526" type="line"/>
      <point x="44" y="526" type="line"/>
      <point x="44" y="466" type="line"/>
    </contour>
    <contour>
      <point x="308" y="718" type="line"/>
      <point x="286" y="699"/>
      <point x="259" y="682"/>
      <point x="236" y="682" type="curve" smooth="yes"/>
      <point x="207" y="682"/>
      <point x="191" y="704"/>
      <point x="191" y="730" type="curve" smooth="yes"/>
      <point x="191" y="770"/>
      <point x="216" y="807"/>
      <point x="308" y="841" type="curve"/>
    </contour>
  </outline>
</glyph>
<glyph name="guillemetleft" format="2">
  <advance width="772"/>
  <unicode hex="00AB"/>
  <outline>
    <contour>
      <point x="743" y="-6" type="line"/>
      <point x="559" y="350" type="line"/>
      <point x="743" y="705" type="line"/>
      <point x="670" y="705" type="line"/>
      <point x="353" y="350" type="line"/>
      <point x="670" y="-6" type="line"/>
    </contour>
    <contour>
      <point x="431" y="-6" type="line"/>
      <point x="247" y="350" type="line"/>
      <point x="431" y="705" type="line"/>
      <point x="360" y="705" type="line"/>
      <point x="47" y="350" type="line"/>
      <point x="360" y="-6" type="line"/>
    </contour>
  </outline>
</glyph>
<glyph name="guillemotleft" format="2">
  <unicode hex="00AB"/>
  <advance width="772"/>
  <outline>
    <contour>
      <point x="743" y="-6" type="line"/>
      <point x="559" y="350" type="line"/>
      <point x="743" y="705" type="line"/>
      <point x="670" y="705" type="line"/>
      <point x="353" y="350" type="line"/>
      <point x="670" y="-6" type="line"/>
    </contour>
    <contour>
      <point x="431" y="-6" type="line"/>
      <point x="247" y="350" type="line"/>
      <point x="431" y="705" type="line"/>
      <point x="360" y="705" type="line"/>
      <point x="47" y="350" type="line"/>
      <point x="360" y="-6" type="line"/>
    </contour>
  </outline>
</glyph>
<glyph name="logicalnot" format="2">
  <advance width="921"/>
  <unicode hex="00AC"/>
  <outline>
    <contour>
      <point x="862" y="281" type="line"/>
      <point x="862" y="624" type="line"/>
      <point x="59" y="624" type="line"/>
      <point x="59" y="515" type="line"/>
      <point x="752" y="515" type="line"/>
      <point x="752" y="281" type="line"/>
    </contour>
  </outline>
</glyph>
<glyph name="softhyphen" format="2">
  <advance width="529"/>
  <unicode hex="00AD"/>
  <outline>
    <contour>
      <point x="499" y="279" type="line"/>
      <point x="499" y="429" type="line"/>
      <point x="30" y="429" type="line"/>
      <point x="30" y="279" type="line"/>
    </contour>
  </outline>
</glyph>
<glyph name="registered" format="2">
  <unicode hex="00AE"/>
  <advance width="1153"/>
  <outline>
    <contour>
      <point x="1122" y="510" type="line" smooth="yes"/>
      <point x="1122" y="813"/>
      <point x="889" y="1044"/>
      <point x="586" y="1044" type="curve" smooth="yes"/>
      <point x="285" y="1044"/>
      <point x="51" y="813"/>
      <point x="51" y="510" type="curve" smooth="yes"/>
      <point x="51" y="209"/>
      <point x="285" y="-25"/>
      <point x="586" y="-25" type="curve" smooth="yes"/>
      <point x="887" y="-25"/>
      <point x="1122" y="211"/>
      <point x="1122" y="510" type="curve" smooth="yes"/>
    </contour>
    <contour>
      <point x="1049" y="510" type="line" smooth="yes"/>
      <point x="1049" y="253"/>
      <point x="845" y="51"/>
      <point x="586" y="51" type="curve" smooth="yes"/>
      <point x="328" y="51"/>
      <point x="126" y="253"/>
      <point x="126" y="510" type="curve" smooth="yes"/>
      <point x="126" y="768"/>
      <point x="328" y="972"/>
      <point x="586" y="972" type="curve" smooth="yes"/>
      <point x="845" y="972"/>
      <point x="1049" y="769"/>
      <point x="1049" y="510" type="curve" smooth="yes"/>
    </contour>
    <contour>
      <point x="910" y="211" type="line"/>
      <point x="910" y="247" type="line" name="hr01"/>
      <point x="855" y="248"/>
      <point x="796" y="315"/>
      <point x="771" y="344" type="curve" smooth="yes"/>
      <point x="665" y="495" type="line"/>
      <point x="732" y="509"/>
      <point x="810" y="562"/>
      <point x="810" y="659" type="curve" smooth="yes"/>
      <point x="810" y="800"/>
      <point x="653" y="815"/>
      <point x="514" y="815" type="curve" smooth="yes"/>
      <point x="272" y="815" type="line"/>
      <point x="272" y="779" type="line"/>
      <point x="326" y="779"/>
      <point x="345" y="764"/>
      <point x="345" y="708" type="curve" smooth="yes"/>
      <point x="345" y="329" type="line" smooth="yes"/>
      <point x="345" y="267"/>
      <point x="326" y="247"/>
      <point x="272" y="247" type="curve"/>
      <point x="272" y="211" type="line"/>
      <point x="561" y="211" type="line"/>
      <point x="561" y="247" type="line"/>
      <point x="510" y="247"/>
      <point x="486" y="267"/>
      <point x="486" y="325" type="curve" smooth="yes"/>
      <point x="486" y="481" type="line"/>
      <point x="503" y="481" type="line"/>
      <point x="700" y="211" type="line"/>
    </contour>
    <contour>
      <point x="662" y="650" type="line" smooth="yes"/>
      <point x="662" y="554"/>
      <point x="574" y="534"/>
      <point x="486" y="534" type="curve"/>
      <point x="486" y="760" type="line"/>
      <point x="486" y="760"/>
      <point x="501" y="765"/>
      <point x="530" y="765" type="curve" smooth="yes"/>
      <point x="620" y="765"/>
      <point x="662" y="705"/>
      <point x="662" y="650" type="curve" smooth="yes"/>
    </contour>
  </outline>
</glyph>
<glyph name="overscore" format="2">
  <advance width="487"/>
  <unicode hex="00AF"/>
  <outline>
    <contour>
      <point x="487" y="848" type="line"/>
      <point x="487" y="982" type="line"/>
      <point x="0" y="982" type="line"/>
      <point x="0" y="848" type="line"/>
    </contour>
  </outline>
</glyph>
<glyph name="degree" format="2">
  <advance width="475"/>
  <unicode hex="00B0"/>
  <outline>
    <contour>
      <point x="408" y="906" type="curve" smooth="yes"/>
      <point x="408" y="1001"/>
      <point x="333" y="1077"/>
      <point x="238" y="1077" type="curve" smooth="yes"/>
      <point x="143" y="1077"/>
      <point x="67" y="1001"/>
      <point x="67" y="906" type="curve" smooth="yes"/>
      <point x="67" y="811"/>
      <point x="143" y="736"/>
      <point x="238" y="736" type="curve" smooth="yes"/>
      <point x="333" y="736"/>
      <point x="408" y="811"/>
    </contour>
    <contour>
      <point x="333" y="906" type="curve" smooth="yes"/>
      <point x="333" y="853"/>
      <point x="291" y="811"/>
      <point x="238" y="811" type="curve" smooth="yes"/>
      <point x="185" y="811"/>
      <point x="142" y="853"/>
      <point x="142" y="906" type="curve" smooth="yes"/>
      <point x="142" y="959"/>
      <point x="185" y="1001"/>
      <point x="238" y="1001" type="curve" smooth="yes"/>
      <point x="291" y="1001"/>
      <point x="333" y="959"/>
    </contour>
  </outline>
</glyph>
<glyph name="plusminus" format="2">
  <unicode hex="00B1"/>
  <advance width="1485"/>
  <outline>
    <contour>
      <point x="1188" y="532" type="line"/>
      <point x="1188" y="624" type="line"/>
      <point x="788" y="624" type="line"/>
      <point x="788" y="891" type="line"/>
      <point x="697" y="891" type="line"/>
      <point x="697" y="624" type="line"/>
      <point x="297" y="624" type="line"/>
      <point x="297" y="532" type="line"/>
      <point x="697" y="532" type="line"/>
      <point x="697" y="265" type="line"/>
      <point x="788" y="265" type="line"/>
      <point x="788" y="532" type="line"/>
    </contour>
    <contour>
      <point x="1188" y="0" type="line"/>
      <point x="1188" y="92" type="line"/>
      <point x="297" y="92" type="line"/>
      <point x="297" y="0" type="line"/>
    </contour>
  </outline>
</glyph>
<glyph name="threesuperior" format="2">
  <advance width="619"/>
  <unicode hex="00B3"/>
  <outline>
    <contour>
      <point x="559" y="716" type="curve" smooth="yes"/>
      <point x="559" y="821"/>
      <point x="485" y="878"/>
      <point x="402" y="908" type="curve"/>
      <point x="464" y="949"/>
      <point x="516" y="1016"/>
      <point x="516" y="1072" type="curve" smooth="yes" name="hr01"/>
      <point x="516" y="1168"/>
      <point x="432" y="1222"/>
      <point x="299" y="1222" type="curve" smooth="yes"/>
      <point x="143" y="1222"/>
      <point x="77" y="1120"/>
      <point x="28" y="1026" type="curve"/>
      <point x="68" y="1012" type="line"/>
      <point x="114" y="1079"/>
      <point x="172" y="1116"/>
      <point x="234" y="1116" type="curve" smooth="yes"/>
      <point x="296" y="1116"/>
      <point x="340" y="1080"/>
      <point x="340" y="1030" type="curve" smooth="yes"/>
      <point x="340" y="947"/>
      <point x="241" y="872"/>
      <point x="132" y="865" type="curve"/>
      <point x="132" y="822" type="line" name="hr02"/>
      <point x="293" y="811"/>
      <point x="395" y="750"/>
      <point x="395" y="646" type="curve" smooth="yes"/>
      <point x="395" y="588"/>
      <point x="347" y="529"/>
      <point x="278" y="529" type="curve" smooth="yes"/>
      <point x="202" y="529"/>
      <point x="155" y="606"/>
      <point x="100" y="606" type="curve" smooth="yes" name="hr03"/>
      <point x="50" y="606"/>
      <point x="28" y="576"/>
      <point x="28" y="542" type="curve" smooth="yes"/>
      <point x="28" y="475"/>
      <point x="108" y="458"/>
      <point x="198" y="458" type="curve" smooth="yes"/>
      <point x="404" y="458"/>
      <point x="559" y="558"/>
    </contour>
  </outline>
</glyph>
<glyph name="acute" format="2">
  <unicode hex="00B4"/>
  <advance width="529"/>
  <anchor x="265" y="760" name="_above"/>
  <outline>
    <contour>
      <point x="529" y="1018" type="curve" smooth="yes"/>
      <point x="529" y="1062"/>
      <point x="493" y="1097"/>
      <point x="448" y="1097" type="curve" smooth="yes"/>
      <point x="426" y="1097"/>
      <point x="404" y="1089"/>
      <point x="392" y="1074" type="curve" smooth="yes"/>
      <point x="169" y="801" type="line"/>
      <point x="247" y="801" type="line"/>
      <point x="505" y="961" type="line"/>
      <point x="523" y="971"/>
      <point x="529" y="995"/>
    </contour>
  </outline>
</glyph>
<glyph name="micro" format="2">
  <advance width="889"/>
  <unicode hex="00B5"/>
  <outline>
    <contour>
      <point x="822" y="216" type="line"/>
      <point x="818" y="175"/>
      <point x="806" y="121"/>
      <point x="775" y="121" type="curve" smooth="yes"/>
      <point x="738" y="121"/>
      <point x="734" y="195"/>
      <point x="734" y="250" type="curve" smooth="yes"/>
      <point x="734" y="688" type="line"/>
      <point x="531" y="688" type="line"/>
      <point x="531" y="198" type="line"/>
      <point x="486" y="146"/>
      <point x="432" y="110"/>
      <point x="390" y="110" type="curve" smooth="yes"/>
      <point x="327" y="110"/>
      <point x="304" y="150"/>
      <point x="304" y="250" type="curve" smooth="yes"/>
      <point x="304" y="688" type="line"/>
      <point x="90" y="688" type="line"/>
      <point x="90" y="143" type="line" smooth="yes"/>
      <point x="90" y="53"/>
      <point x="81" y="-34"/>
      <point x="66" y="-123" type="curve" smooth="yes"/>
      <point x="60" y="-158"/>
      <point x="47" y="-202"/>
      <point x="47" y="-241" type="curve" smooth="yes" name="hr01"/>
      <point x="47" y="-290"/>
      <point x="86" y="-334"/>
      <point x="138" y="-334" type="curve" smooth="yes"/>
      <point x="186" y="-334"/>
      <point x="230" y="-297"/>
      <point x="230" y="-234" type="curve" smooth="yes"/>
      <point x="230" y="-139"/>
      <point x="165" y="-113"/>
      <point x="165" y="-25" type="curve" smooth="yes" name="hr02"/>
      <point x="165" y="10" type="line"/>
      <point x="188" y="-9"/>
      <point x="226" y="-23"/>
      <point x="275" y="-23" type="curve" smooth="yes"/>
      <point x="408" y="-23"/>
      <point x="480" y="57"/>
      <point x="531" y="113" type="curve"/>
      <point x="539" y="45"/>
      <point x="591" y="-23"/>
      <point x="690" y="-23" type="curve" smooth="yes"/>
      <point x="826" y="-23"/>
      <point x="873" y="71"/>
      <point x="877" y="216" type="curve"/>
    </contour>
  </outline>
</glyph>
<glyph name="paragraph" format="2">
  <advance width="808"/>
  <unicode hex="00B6"/>
  <outline>
    <contour>
      <point x="812" y="962" type="line"/>
      <point x="812" y="1022" type="line"/>
      <point x="382" y="1022" type="line" smooth="yes"/>
      <point x="124" y="1022"/>
      <point x="-10" y="851"/>
      <point x="-10" y="680" type="curve" smooth="yes"/>
      <point x="-10" y="501"/>
      <point x="124" y="364"/>
      <point x="382" y="364" type="curve"/>
      <point x="382" y="-331" type="line"/>
      <point x="457" y="-331" type="line"/>
      <point x="457" y="959" type="line"/>
      <point x="595" y="959" type="line"/>
      <point x="595" y="-331" type="line"/>
      <point x="669" y="-331" type="line"/>
      <point x="669" y="962" type="line"/>
    </contour>
  </outline>
</glyph>
<glyph name="periodcentered" format="2">
  <advance width="431"/>
  <unicode hex="00B7"/>
  <outline>
    <contour>
      <point x="343" y="513" type="curve" smooth="yes"/>
      <point x="343" y="582"/>
      <point x="285" y="640"/>
      <point x="215" y="640" type="curve" smooth="yes"/>
      <point x="146" y="640"/>
      <point x="88" y="582"/>
      <point x="88" y="513" type="curve" smooth="yes"/>
      <point x="88" y="442"/>
      <point x="146" y="384"/>
      <point x="215" y="384" type="curve" smooth="yes"/>
      <point x="285" y="384"/>
      <point x="343" y="442"/>
    </contour>
  </outline>
</glyph>
<glyph name="cedilla" format="2">
  <advance width="371"/>
  <unicode hex="00B8"/>
  <anchor x="154" y="-50" name="_below"/>
  <outline>
    <contour>
      <point x="367" y="-200" type="curve" smooth="yes"/>
      <point x="367" y="-122"/>
      <point x="281" y="-98"/>
      <point x="211" y="-98" type="curve" smooth="yes"/>
      <point x="204" y="-98"/>
      <point x="183" y="-98"/>
      <point x="176" y="-98" type="curve"/>
      <point x="218" y="0" type="line"/>
      <point x="153" y="0" type="line"/>
      <point x="81" y="-159" type="line"/>
      <point x="107" y="-177" type="line"/>
      <point x="122" y="-173"/>
      <point x="136" y="-169"/>
      <point x="154" y="-169" type="curve" smooth="yes"/>
      <point x="181" y="-169"/>
      <point x="207" y="-180"/>
      <point x="207" y="-214" type="curve" smooth="yes"/>
      <point x="207" y="-242"/>
      <point x="191" y="-275"/>
      <point x="138" y="-275" type="curve" smooth="yes"/>
      <point x="115" y="-275"/>
      <point x="74" y="-266"/>
      <point x="36" y="-252" type="curve"/>
      <point x="0" y="-313" type="line"/>
      <point x="55" y="-331"/>
      <point x="101" y="-340"/>
      <point x="146" y="-340" type="curve" smooth="yes"/>
      <point x="244" y="-340"/>
      <point x="367" y="-289"/>
    </contour>
  </outline>
</glyph>
<glyph name="onesuperior" format="2">
  <advance width="763"/>
  <unicode hex="00B9"/>
  <outline>
    <contour>
      <point x="620" y="502" type="line"/>
      <point x="620" y="545" type="line"/>
      <point x="514" y="545"/>
      <point x="491" y="564"/>
      <point x="491" y="640" type="curve" smooth="yes"/>
      <point x="491" y="1254" type="line"/>
      <point x="439" y="1254" type="line"/>
      <point x="136" y="1130" type="line"/>
      <point x="156" y="1090" type="line"/>
      <point x="190" y="1103"/>
      <point x="216" y="1108"/>
      <point x="235" y="1108" type="curve" smooth="yes"/>
      <point x="300" y="1108"/>
      <point x="300" y="1068"/>
      <point x="300" y="1020" type="curve" smooth="yes"/>
      <point x="300" y="640" type="line" smooth="yes"/>
      <point x="300" y="564"/>
      <point x="263" y="545"/>
      <point x="156" y="545" type="curve"/>
      <point x="156" y="502" type="line"/>
    </contour>
  </outline>
</glyph>
<glyph name="guillemotright" format="2">
  <advance width="772"/>
  <unicode hex="00BB"/>
  <outline>
    <contour>
      <point x="102" y="-6" type="line"/>
      <point x="419" y="350" type="line"/>
      <point x="102" y="705" type="line"/>
      <point x="29" y="705" type="line"/>
      <point x="213" y="350" type="line"/>
      <point x="29" y="-6" type="line"/>
    </contour>
    <contour>
      <point x="412" y="-6" type="line"/>
      <point x="725" y="350" type="line"/>
      <point x="412" y="705" type="line"/>
      <point x="341" y="705" type="line"/>
      <point x="525" y="350" type="line"/>
      <point x="341" y="-6" type="line"/>
    </contour>
  </outline>
</glyph>
<glyph name="onequarter" format="2">
  <unicode hex="00BC"/>
  <advance width="1312"/>
  <outline>
    <contour>
      <point x="1182" y="132" type="line"/>
      <point x="1182" y="226" type="line"/>
      <point x="1102" y="226" type="line"/>
      <point x="1102" y="621" type="line"/>
      <point x="987" y="621" type="line"/>
      <point x="657" y="226" type="line"/>
      <point x="657" y="132" type="line"/>
      <point x="953" y="132" type="line"/>
      <point x="953" y="-6" type="line"/>
      <point x="1102" y="-6" type="line"/>
      <point x="1102" y="132" type="line"/>
    </contour>
    <contour>
      <point x="1117" y="1040" type="line"/>
      <point x="1020" y="1040" type="line"/>
      <point x="285" y="-12" type="line" name="hr01"/>
      <point x="382" y="-12" type="line"/>
    </contour>
    <contour>
      <point x="534" y="395" type="line"/>
      <point x="534" y="431" type="line"/>
      <point x="445" y="431"/>
      <point x="426" y="447"/>
      <point x="426" y="510" type="curve" smooth="yes"/>
      <point x="426" y="1028" type="line" name="hr02"/>
      <point x="383" y="1028" type="line"/>
      <point x="130" y="925" type="line"/>
      <point x="147" y="891" type="line"/>
      <point x="175" y="902"/>
      <point x="197" y="906"/>
      <point x="213" y="906" type="curve" smooth="yes"/>
      <point x="267" y="906"/>
      <point x="267" y="867"/>
      <point x="267" y="827" type="curve" smooth="yes"/>
      <point x="267" y="510" type="line" smooth="yes"/>
      <point x="267" y="447"/>
      <point x="236" y="431"/>
      <point x="147" y="431" type="curve"/>
      <point x="147" y="395" type="line"/>
    </contour>
    <contour>
      <point x="953" y="226" type="line"/>
      <point x="738" y="226" type="line"/>
      <point x="953" y="480" type="line"/>
    </contour>
  </outline>
</glyph>
<glyph name="onehalf" format="2">
  <advance width="1312"/>
  <unicode hex="00BD"/>
  <outline>
    <contour>
      <point x="1233" y="172" type="line"/>
      <point x="1189" y="172" type="line"/>
      <point x="1161" y="120"/>
      <point x="1102" y="112"/>
      <point x="1032" y="112" type="curve" smooth="yes"/>
      <point x="898" y="112" type="line"/>
      <point x="1004" y="202"/>
      <point x="1177" y="295"/>
      <point x="1177" y="460" type="curve" smooth="yes"/>
      <point x="1177" y="545"/>
      <point x="1091" y="627"/>
      <point x="963" y="627" type="curve" smooth="yes"/>
      <point x="845" y="627"/>
      <point x="777" y="533"/>
      <point x="754" y="431" type="curve"/>
      <point x="798" y="431" type="line"/>
      <point x="821" y="493"/>
      <point x="867" y="520"/>
      <point x="912" y="520" type="curve" smooth="yes"/>
      <point x="976" y="520"/>
      <point x="1028" y="486"/>
      <point x="1028" y="422" type="curve" smooth="yes"/>
      <point x="1028" y="299"/>
      <point x="928" y="209"/>
      <point x="737" y="30" type="curve"/>
      <point x="737" y="-6" type="line"/>
      <point x="1156" y="-6" type="line"/>
    </contour>
    <contour>
      <point x="1067" y="1040" type="line"/>
      <point x="970" y="1040" type="line"/>
      <point x="235" y="-12" type="line" name="hr01"/>
      <point x="332" y="-12" type="line"/>
    </contour>
    <contour>
      <point x="484" y="395" type="line"/>
      <point x="484" y="431" type="line"/>
      <point x="395" y="431"/>
      <point x="376" y="447"/>
      <point x="376" y="510" type="curve" smooth="yes"/>
      <point x="376" y="1028" type="line" name="hr02"/>
      <point x="333" y="1028" type="line"/>
      <point x="80" y="925" type="line"/>
      <point x="97" y="891" type="line"/>
      <point x="125" y="902"/>
      <point x="147" y="906"/>
      <point x="163" y="906" type="curve" smooth="yes"/>
      <point x="217" y="906"/>
      <point x="217" y="867"/>
      <point x="217" y="827" type="curve" smooth="yes"/>
      <point x="217" y="510" type="line" smooth="yes"/>
      <point x="217" y="447"/>
      <point x="186" y="431"/>
      <point x="97" y="431" type="curve"/>
      <point x="97" y="395" type="line"/>
    </contour>
  </outline>
</glyph>
<glyph name="threequarters" format="2">
  <advance width="1312"/>
  <unicode hex="00BE"/>
  <outline>
    <contour>
      <point x="1182" y="132" type="line"/>
      <point x="1182" y="226" type="line"/>
      <point x="1102" y="226" type="line"/>
      <point x="1102" y="621" type="line"/>
      <point x="987" y="621" type="line"/>
      <point x="657" y="226" type="line"/>
      <point x="657" y="132" type="line"/>
      <point x="953" y="132" type="line"/>
      <point x="953" y="-6" type="line"/>
      <point x="1102" y="-6" type="line"/>
      <point x="1102" y="132" type="line"/>
    </contour>
    <contour>
      <point x="1117" y="1040" type="line"/>
      <point x="1020" y="1040" type="line"/>
      <point x="285" y="-12" type="line" name="hr01"/>
      <point x="382" y="-12" type="line"/>
    </contour>
    <contour>
      <point x="568" y="611" type="curve" smooth="yes"/>
      <point x="568" y="698"/>
      <point x="506" y="746"/>
      <point x="437" y="771" type="curve"/>
      <point x="479" y="792"/>
      <point x="532" y="855"/>
      <point x="532" y="901" type="curve" smooth="yes" name="hr02"/>
      <point x="532" y="981"/>
      <point x="458" y="1028"/>
      <point x="347" y="1028" type="curve" smooth="yes"/>
      <point x="217" y="1028"/>
      <point x="166" y="943"/>
      <point x="125" y="865" type="curve"/>
      <point x="159" y="853" type="line"/>
      <point x="197" y="909"/>
      <point x="245" y="940"/>
      <point x="297" y="940" type="curve" smooth="yes"/>
      <point x="349" y="940"/>
      <point x="385" y="909"/>
      <point x="385" y="857" type="curve" smooth="yes"/>
      <point x="385" y="788"/>
      <point x="303" y="738"/>
      <point x="212" y="732" type="curve"/>
      <point x="212" y="696" type="line" name="hr03"/>
      <point x="346" y="687"/>
      <point x="431" y="621"/>
      <point x="431" y="534" type="curve" smooth="yes"/>
      <point x="431" y="486"/>
      <point x="391" y="442"/>
      <point x="334" y="442" type="curve" smooth="yes"/>
      <point x="270" y="442"/>
      <point x="231" y="506"/>
      <point x="185" y="506" type="curve" smooth="yes" name="hr04"/>
      <point x="144" y="506"/>
      <point x="125" y="481"/>
      <point x="125" y="453" type="curve" smooth="yes"/>
      <point x="125" y="397"/>
      <point x="192" y="383"/>
      <point x="267" y="383" type="curve" smooth="yes"/>
      <point x="439" y="383"/>
      <point x="568" y="479"/>
    </contour>
    <contour>
      <point x="953" y="226" type="line"/>
      <point x="738" y="226" type="line"/>
      <point x="953" y="480" type="line"/>
    </contour>
  </outline>
</glyph>
<glyph name="questiondown" format="2">
  <advance width="865"/>
  <unicode hex="00BF"/>
  <outline>
    <contour>
      <point x="312" y="745" type="curve" smooth="yes"/>
      <point x="312" y="668"/>
      <point x="376" y="606"/>
      <point x="451" y="606" type="curve" smooth="yes"/>
      <point x="527" y="606"/>
      <point x="588" y="668"/>
      <point x="588" y="745" type="curve" smooth="yes"/>
      <point x="588" y="820"/>
      <point x="527" y="882"/>
      <point x="451" y="882" type="curve" smooth="yes"/>
      <point x="376" y="882"/>
      <point x="312" y="820"/>
    </contour>
    <contour>
      <point x="70" y="-110" type="curve" smooth="yes" name="hr01"/>
      <point x="70" y="-308"/>
      <point x="224" y="-397"/>
      <point x="414" y="-397" type="curve" smooth="yes"/>
      <point x="684" y="-397"/>
      <point x="776" y="-233"/>
      <point x="776" y="-104" type="curve" smooth="yes"/>
      <point x="776" y="-25"/>
      <point x="720" y="32"/>
      <point x="637" y="32" type="curve" smooth="yes"/>
      <point x="577" y="32"/>
      <point x="539" y="-16"/>
      <point x="539" y="-71" type="curve" smooth="yes"/>
      <point x="539" y="-136"/>
      <point x="594" y="-209"/>
      <point x="594" y="-245" type="curve" smooth="yes" name="hr02"/>
      <point x="594" y="-286"/>
      <point x="536" y="-314"/>
      <point x="479" y="-314" type="curve" smooth="yes"/>
      <point x="379" y="-314"/>
      <point x="328" y="-242"/>
      <point x="328" y="-101" type="curve" smooth="yes"/>
      <point x="328" y="-18"/>
      <point x="343" y="61"/>
      <point x="392" y="162" type="curve" smooth="yes"/>
      <point x="456" y="292"/>
      <point x="485" y="374"/>
      <point x="485" y="491" type="curve"/>
      <point x="413" y="491" type="line"/>
      <point x="413" y="382"/>
      <point x="325" y="284"/>
      <point x="239" y="187" type="curve" smooth="yes"/>
      <point x="154" y="92"/>
      <point x="70" y="-4"/>
    </contour>
  </outline>
</glyph>
<glyph name="Eth" format="2">
  <advance width="1105"/>
  <unicode hex="00D0"/>
  <outline>
    <contour>
      <point x="1042" y="511" type="line" smooth="yes"/>
      <point x="1042" y="705"/>
      <point x="952" y="874"/>
      <point x="791" y="961" type="curve" smooth="yes"/>
      <point x="719" y="1000"/>
      <point x="632" y="1022"/>
      <point x="532" y="1022" type="curve" smooth="yes"/>
      <point x="21" y="1022" type="line"/>
      <point x="21" y="962" type="line"/>
      <point x="69" y="962" type="line" smooth="yes"/>
      <point x="107" y="962"/>
      <point x="131" y="951"/>
      <point x="145" y="929" type="curve" smooth="yes"/>
      <point x="161" y="905"/>
      <point x="165" y="867"/>
      <point x="165" y="820" type="curve" smooth="yes"/>
      <point x="165" y="593" type="line"/>
      <point x="21" y="593" type="line"/>
      <point x="21" y="489" type="line"/>
      <point x="165" y="489" type="line"/>
      <point x="165" y="202" type="line" smooth="yes"/>
      <point x="165" y="110"/>
      <point x="152" y="60"/>
      <point x="62" y="60" type="curve" smooth="yes"/>
      <point x="21" y="60" type="line"/>
      <point x="21" y="0" type="line"/>
      <point x="532" y="0" type="line" smooth="yes"/>
      <point x="853" y="0"/>
      <point x="1042" y="220"/>
      <point x="1042" y="511" type="curve" smooth="yes"/>
    </contour>
    <contour>
      <point x="770" y="511" type="line"/>
      <point x="770" y="308"/>
      <point x="709" y="87"/>
      <point x="499" y="87" type="curve" smooth="yes" name="hr01"/>
      <point x="456" y="87"/>
      <point x="420" y="92"/>
      <point x="403" y="102" type="curve"/>
      <point x="403" y="489" type="line"/>
      <point x="635" y="489" type="line"/>
      <point x="635" y="593" type="line"/>
      <point x="403" y="593" type="line"/>
      <point x="403" y="929" type="line"/>
      <point x="403" y="929"/>
      <point x="427" y="933"/>
      <point x="462" y="933" type="curve" smooth="yes"/>
      <point x="703" y="933"/>
      <point x="770" y="706"/>
      <point x="770" y="511" type="curve" smooth="yes"/>
    </contour>
  </outline>
</glyph>
<glyph name="multiply" format="2">
  <advance width="1274"/>
  <unicode hex="00D7"/>
  <outline>
    <contour>
      <point x="1115" y="144" type="line"/>
      <point x="726" y="534" type="line"/>
      <point x="1115" y="923" type="line"/>
      <point x="1024" y="1014" type="line"/>
      <point x="634" y="623" type="line"/>
      <point x="245" y="1013" type="line"/>
      <point x="154" y="922" type="line"/>
      <point x="540" y="534" type="line"/>
      <point x="152" y="144" type="line"/>
      <point x="244" y="53" type="line"/>
      <point x="634" y="448" type="line"/>
      <point x="1024" y="53" type="line"/>
    </contour>
  </outline>
</glyph>
<glyph name="Oslash" format="2">
  <advance width="1202"/>
  <unicode hex="00D8"/>
  <outline>
    <contour>
      <point x="1144" y="511" type="line" smooth="yes"/>
      <point x="1144" y="658"/>
      <point x="1084" y="791"/>
      <point x="986" y="887" type="curve"/>
      <point x="1086" y="1001" type="line"/>
      <point x="1026" y="1055" type="line"/>
      <point x="926" y="939" type="line"/>
      <point x="835" y="1005"/>
      <point x="720" y="1044"/>
      <point x="600" y="1044" type="curve" smooth="yes" name="hr01"/>
      <point x="303" y="1044"/>
      <point x="58" y="808"/>
      <point x="58" y="511" type="curve" smooth="yes"/>
      <point x="58" y="360"/>
      <point x="122" y="224"/>
      <point x="224" y="128" type="curve"/>
      <point x="130" y="17" type="line"/>
      <point x="189" y="-36" type="line"/>
      <point x="285" y="77" type="line"/>
      <point x="374" y="15"/>
      <point x="483" y="-22"/>
      <point x="600" y="-22" type="curve" smooth="yes" name="hr02"/>
      <point x="897" y="-22"/>
      <point x="1144" y="214"/>
      <point x="1144" y="511" type="curve" smooth="yes"/>
    </contour>
    <contour>
      <point x="822" y="818" type="line"/>
      <point x="355" y="279" type="line"/>
      <point x="336" y="353"/>
      <point x="330" y="435"/>
      <point x="330" y="511" type="curve" smooth="yes"/>
      <point x="330" y="725"/>
      <point x="386" y="988"/>
      <point x="600" y="988" type="curve" smooth="yes"/>
      <point x="712" y="988"/>
      <point x="781" y="917"/>
      <point x="822" y="818" type="curve"/>
    </contour>
    <contour>
      <point x="872" y="511" type="line" smooth="yes"/>
      <point x="872" y="297"/>
      <point x="814" y="34"/>
      <point x="600" y="34" type="curve" smooth="yes"/>
      <point x="493" y="34"/>
      <point x="426" y="99"/>
      <point x="384" y="191" type="curve"/>
      <point x="849" y="728" type="line"/>
      <point x="866" y="658"/>
      <point x="872" y="582"/>
      <point x="872" y="511" type="curve" smooth="yes"/>
    </contour>
  </outline>
</glyph>
<glyph name="Thorn" format="2">
  <advance width="1106"/>
  <unicode hex="00DE"/>
  <outline>
    <contour>
      <point x="1037" y="616" type="curve" smooth="yes"/>
      <point x="1037" y="830"/>
      <point x="874" y="949"/>
      <point x="628" y="949" type="curve" smooth="yes"/>
      <point x="439" y="949" type="line"/>
      <point x="439" y="1009" type="line" smooth="yes"/>
      <point x="439" y="1093"/>
      <point x="464" y="1154"/>
      <point x="578" y="1154" type="curve" smooth="yes"/>
      <point x="617" y="1154" type="line"/>
      <point x="617" y="1226" type="line"/>
      <point x="34" y="1226" type="line"/>
      <point x="34" y="1154" type="line"/>
      <point x="68" y="1154" type="line" smooth="yes"/>
      <point x="154" y="1154"/>
      <point x="181" y="1093"/>
      <point x="181" y="1009" type="curve" smooth="yes"/>
      <point x="181" y="217" type="line" smooth="yes"/>
      <point x="181" y="120"/>
      <point x="151" y="72"/>
      <point x="66" y="72" type="curve" smooth="yes"/>
      <point x="34" y="72" type="line"/>
      <point x="34" y="0" type="line"/>
      <point x="617" y="0" type="line"/>
      <point x="617" y="72" type="line"/>
      <point x="578" y="72" type="line" smooth="yes"/>
      <point x="452" y="72"/>
      <point x="439" y="136"/>
      <point x="439" y="221" type="curve" smooth="yes"/>
      <point x="439" y="276" type="line"/>
      <point x="624" y="276" type="line" smooth="yes"/>
      <point x="876" y="276"/>
      <point x="1037" y="395"/>
    </contour>
    <contour>
      <point x="762" y="613" type="curve" smooth="yes"/>
      <point x="762" y="482"/>
      <point x="685" y="372"/>
      <point x="492" y="372" type="curve" smooth="yes"/>
      <point x="439" y="372" type="line"/>
      <point x="439" y="853" type="line"/>
      <point x="530" y="853" type="line" smooth="yes"/>
      <point x="666" y="853"/>
      <point x="762" y="748"/>
    </contour>
  </outline>
</glyph>
<glyph name="germandbls" format="2">
  <advance width="909"/>
  <unicode hex="00DF"/>
  <outline>
    <contour>
      <point x="859" y="318" type="line" smooth="yes"/>
      <point x="859" y="485"/>
      <point x="767" y="582"/>
      <point x="606" y="619" type="curve"/>
      <point x="748" y="660"/>
      <point x="789" y="750"/>
      <point x="789" y="828" type="curve" smooth="yes" name="hr01"/>
      <point x="789" y="973"/>
      <point x="675" y="1073"/>
      <point x="454" y="1073" type="curve" smooth="yes"/>
      <point x="249" y="1073"/>
      <point x="126" y="974"/>
      <point x="126" y="730" type="curve" smooth="yes"/>
      <point x="126" y="169" type="line" smooth="yes"/>
      <point x="126" y="54"/>
      <point x="105" y="30"/>
      <point x="27" y="28" type="curve"/>
      <point x="27" y="0" type="line"/>
      <point x="341" y="0" type="line"/>
      <point x="341" y="781" type="line" smooth="yes"/>
      <point x="341" y="942"/>
      <point x="379" y="1000"/>
      <point x="449" y="1000" type="curve" smooth="yes"/>
      <point x="516" y="1000"/>
      <point x="574" y="948"/>
      <point x="574" y="832" type="curve" smooth="yes"/>
      <point x="574" y="698"/>
      <point x="513" y="627"/>
      <point x="432" y="627" type="curve"/>
      <point x="432" y="564" type="line"/>
      <point x="585" y="552"/>
      <point x="643" y="422"/>
      <point x="643" y="236" type="curve" smooth="yes" name="hr02"/>
      <point x="643" y="121"/>
      <point x="607" y="63"/>
      <point x="571" y="63" type="curve" smooth="yes"/>
      <point x="546" y="63"/>
      <point x="537" y="75"/>
      <point x="537" y="98" type="curve" smooth="yes"/>
      <point x="537" y="107"/>
      <point x="546" y="145"/>
      <point x="546" y="159" type="curve" smooth="yes"/>
      <point x="546" y="195"/>
      <point x="523" y="238"/>
      <point x="463" y="238" type="curve" smooth="yes"/>
      <point x="423" y="238"/>
      <point x="373" y="202"/>
      <point x="373" y="133" type="curve" smooth="yes"/>
      <point x="373" y="51"/>
      <point x="445" y="-9"/>
      <point x="548" y="-9" type="curve" smooth="yes" name="hr03"/>
      <point x="736" y="-9"/>
      <point x="859" y="146"/>
      <point x="859" y="318" type="curve" smooth="yes"/>
    </contour>
  </outline>
</glyph>
<glyph name="ae" format="2">
  <advance width="1298"/>
  <unicode hex="00E6"/>
  <outline>
    <contour>
      <point x="1189" y="329" type="line"/>
      <point x="1140" y="208"/>
      <point x="1075" y="166"/>
      <point x="996" y="166" type="curve" smooth="yes"/>
      <point x="823" y="166"/>
      <point x="725" y="348"/>
      <point x="725" y="454" type="curve" smooth="yes"/>
      <point x="725" y="490" type="line"/>
      <point x="1242" y="490" type="line"/>
      <point x="1242" y="754"/>
      <point x="1090" y="854"/>
      <point x="917" y="854" type="curve" smooth="yes" name="hr01"/>
      <point x="826" y="854"/>
      <point x="752" y="820"/>
      <point x="702" y="784" type="curve"/>
      <point x="652" y="829"/>
      <point x="575" y="853"/>
      <point x="425" y="853" type="curve" smooth="yes" name="hr02"/>
      <point x="283" y="853"/>
      <point x="86" y="774"/>
      <point x="86" y="632" type="curve" smooth="yes"/>
      <point x="86" y="563"/>
      <point x="132" y="520"/>
      <point x="198" y="520" type="curve" smooth="yes" name="hr03"/>
      <point x="290" y="520"/>
      <point x="318" y="590"/>
      <point x="318" y="644" type="curve" smooth="yes"/>
      <point x="318" y="662"/>
      <point x="319" y="655"/>
      <point x="319" y="683" type="curve" smooth="yes"/>
      <point x="319" y="709"/>
      <point x="328" y="775"/>
      <point x="406" y="775" type="curve" smooth="yes" name="hr04"/>
      <point x="482" y="775"/>
      <point x="516" y="694"/>
      <point x="516" y="582" type="curve" smooth="yes"/>
      <point x="516" y="548" type="line"/>
      <point x="353" y="490"/>
      <point x="66" y="379"/>
      <point x="66" y="197" type="curve" smooth="yes"/>
      <point x="66" y="64"/>
      <point x="136" y="-17"/>
      <point x="258" y="-17" type="curve" smooth="yes"/>
      <point x="403" y="-17"/>
      <point x="545" y="83"/>
      <point x="595" y="119" type="curve"/>
      <point x="632" y="68"/>
      <point x="706" y="-28"/>
      <point x="890" y="-28" type="curve" smooth="yes" name="hr05"/>
      <point x="1098" y="-28"/>
      <point x="1207" y="139"/>
      <point x="1242" y="306" type="curve"/>
    </contour>
    <contour>
      <point x="724" y="568" type="line"/>
      <point x="725" y="686"/>
      <point x="785" y="764"/>
      <point x="850" y="764" type="curve" smooth="yes"/>
      <point x="962" y="764"/>
      <point x="1000" y="642"/>
      <point x="1000" y="568" type="curve"/>
    </contour>
    <contour>
      <point x="550" y="209" type="curve"/>
      <point x="510" y="168"/>
      <point x="458" y="143"/>
      <point x="419" y="143" type="curve" smooth="yes"/>
      <point x="347" y="143"/>
      <point x="320" y="187"/>
      <point x="320" y="239" type="curve" smooth="yes"/>
      <point x="320" y="320"/>
      <point x="364" y="395"/>
      <point x="516" y="463" type="curve"/>
      <point x="516" y="415" type="line" smooth="yes"/>
      <point x="516" y="296"/>
      <point x="540" y="240"/>
    </contour>
  </outline>
</glyph>
<glyph name="divide" format="2">
  <advance width="1485"/>
  <unicode hex="00F7"/>
  <outline>
    <contour>
      <point x="850" y="703" type="curve" smooth="yes"/>
      <point x="850" y="762"/>
      <point x="802" y="810"/>
      <point x="743" y="810" type="curve" smooth="yes"/>
      <point x="683" y="810"/>
      <point x="636" y="762"/>
      <point x="636" y="703" type="curve" smooth="yes"/>
      <point x="636" y="642"/>
      <point x="683" y="596"/>
      <point x="743" y="596" type="curve" smooth="yes"/>
      <point x="802" y="596"/>
      <point x="850" y="642"/>
    </contour>
    <contour>
      <point x="1208" y="380" type="line"/>
      <point x="1208" y="512" type="line"/>
      <point x="277" y="512" type="line"/>
      <point x="277" y="380" type="line"/>
    </contour>
    <contour>
      <point x="850" y="189" type="curve" smooth="yes"/>
      <point x="850" y="249"/>
      <point x="802" y="296"/>
      <point x="743" y="296" type="curve" smooth="yes"/>
      <point x="683" y="296"/>
      <point x="636" y="249"/>
      <point x="636" y="189" type="curve" smooth="yes"/>
      <point x="636" y="129"/>
      <point x="683" y="83"/>
      <point x="743" y="83" type="curve" smooth="yes"/>
      <point x="802" y="83"/>
      <point x="850" y="129"/>
    </contour>
  </outline>
</glyph>
<glyph name="oslash" format="2">
  <advance width="772"/>
  <unicode hex="00F8"/>
  <outline>
    <contour>
      <point x="65" y="-51" type="line"/>
      <point x="168" y="56" type="line"/>
      <point x="226" y="7"/>
      <point x="303" y="-23"/>
      <point x="396" y="-23" type="curve" smooth="yes"/>
      <point x="610" y="-23"/>
      <point x="739" y="155"/>
      <point x="739" y="359" type="curve" smooth="yes"/>
      <point x="739" y="442"/>
      <point x="713" y="518"/>
      <point x="667" y="578" type="curve"/>
      <point x="771" y="687" type="line"/>
      <point x="709" y="738" type="line"/>
      <point x="611" y="636" type="line"/>
      <point x="552" y="683"/>
      <point x="476" y="711"/>
      <point x="388" y="711" type="curve" smooth="yes"/>
      <point x="173" y="711"/>
      <point x="41" y="531"/>
      <point x="41" y="338" type="curve" smooth="yes"/>
      <point x="41" y="257"/>
      <point x="66" y="178"/>
      <point x="113" y="115" type="curve"/>
      <point x="5" y="2" type="line"/>
    </contour>
    <contour>
      <point x="521" y="299" type="line" smooth="yes"/>
      <point x="521" y="122"/>
      <point x="490" y="53"/>
      <point x="431" y="53" type="curve" smooth="yes"/>
      <point x="381" y="53"/>
      <point x="330" y="108"/>
      <point x="298" y="192" type="curve"/>
      <point x="511" y="415" type="line"/>
      <point x="518" y="377"/>
      <point x="521" y="338"/>
      <point x="521" y="299" type="curve" smooth="yes"/>
    </contour>
    <contour>
      <point x="261" y="401" type="line" smooth="yes"/>
      <point x="261" y="582"/>
      <point x="311" y="636"/>
      <point x="357" y="636" type="curve" smooth="yes"/>
      <point x="416" y="636"/>
      <point x="460" y="582"/>
      <point x="487" y="507" type="curve"/>
      <point x="272" y="282" type="line"/>
      <point x="265" y="319"/>
      <point x="261" y="359"/>
      <point x="261" y="401" type="curve" smooth="yes"/>
    </contour>
  </outline>
</glyph>
<glyph name="idotless" format="2">
  <advance width="582"/>
  <unicode hex="0131"/>
  <anchor x="265" y="912" name="above"/>
  <outline>
    <contour>
      <point x="552" y="0" type="line"/>
      <point x="552" y="72" type="line"/>
      <point x="474" y="72"/>
      <point x="452" y="94"/>
      <point x="452" y="199" type="curve" smooth="yes"/>
      <point x="452" y="853" type="line"/>
      <point x="380" y="853" type="line"/>
      <point x="44" y="752" type="line"/>
      <point x="66" y="685" type="line"/>
      <point x="89" y="692"/>
      <point x="124" y="698"/>
      <point x="144" y="698" type="curve" smooth="yes"/>
      <point x="182" y="698"/>
      <point x="194" y="672"/>
      <point x="194" y="576" type="curve" smooth="yes"/>
      <point x="194" y="200" type="line" smooth="yes"/>
      <point x="194" y="95"/>
      <point x="178" y="72"/>
      <point x="92" y="72" type="curve"/>
      <point x="92" y="0" type="line"/>
    </contour>
  </outline>
</glyph>
<glyph name="OE" format="2">
  <advance width="1517"/>
  <unicode hex="0152"/>
  <outline>
    <contour>
      <point x="1487" y="296" type="line"/>
      <point x="1425" y="296" type="line"/>
      <point x="1343" y="151"/>
      <point x="1301" y="86"/>
      <point x="1123" y="86" type="curve" smooth="yes"/>
      <point x="965" y="86"/>
      <point x="956" y="91"/>
      <point x="956" y="212" type="curve" smooth="yes"/>
      <point x="956" y="477" type="line"/>
      <point x="1048" y="477" type="line" smooth="yes"/>
      <point x="1175" y="477"/>
      <point x="1193" y="433"/>
      <point x="1210" y="314" type="curve"/>
      <point x="1270" y="314" type="line"/>
      <point x="1270" y="741" type="line"/>
      <point x="1210" y="741" type="line"/>
      <point x="1193" y="622"/>
      <point x="1173" y="564"/>
      <point x="1048" y="564" type="curve" smooth="yes"/>
      <point x="956" y="564" type="line"/>
      <point x="956" y="933" type="line"/>
      <point x="1147" y="933" type="line" smooth="yes"/>
      <point x="1299" y="933"/>
      <point x="1311" y="878"/>
      <point x="1346" y="747" type="curve"/>
      <point x="1404" y="747" type="line"/>
      <point x="1392" y="1022" type="line"/>
      <point x="815" y="1022" type="line" smooth="yes"/>
      <point x="721" y="1022"/>
      <point x="646" y="1032"/>
      <point x="594" y="1032" type="curve" smooth="yes" name="hr01"/>
      <point x="288" y="1032"/>
      <point x="55" y="808"/>
      <point x="55" y="511" type="curve" smooth="yes"/>
      <point x="55" y="222"/>
      <point x="265" y="-12"/>
      <point x="575" y="-12" type="curve" smooth="yes"/>
      <point x="653" y="-12"/>
      <point x="733" y="0"/>
      <point x="811" y="0" type="curve" smooth="yes" name="hr02"/>
      <point x="1382" y="0" type="line"/>
    </contour>
    <contour>
      <point x="721" y="256" type="line"/>
      <point x="721" y="123"/>
      <point x="725" y="64"/>
      <point x="592" y="64" type="curve" smooth="yes"/>
      <point x="381" y="64"/>
      <point x="327" y="339"/>
      <point x="327" y="517" type="curve" smooth="yes"/>
      <point x="327" y="711"/>
      <point x="383" y="968"/>
      <point x="594" y="968" type="curve" smooth="yes"/>
      <point x="681" y="968"/>
      <point x="721" y="959"/>
      <point x="721" y="804" type="curve" smooth="yes"/>
    </contour>
  </outline>
</glyph>
<glyph name="oe" format="2">
  <advance width="1180"/>
  <unicode hex="0153"/>
  <outline>
    <contour>
      <point x="1085" y="274" type="line"/>
      <point x="1044" y="173"/>
      <point x="990" y="138"/>
      <point x="924" y="138" type="curve" smooth="yes"/>
      <point x="780" y="138"/>
      <point x="697" y="279"/>
      <point x="697" y="387" type="curve" smooth="yes"/>
      <point x="697" y="408" type="line"/>
      <point x="1129" y="408" type="line"/>
      <point x="1129" y="419" type="line" smooth="yes"/>
      <point x="1129" y="625"/>
      <point x="1004" y="712"/>
      <point x="860" y="712" type="curve" smooth="yes"/>
      <point x="809" y="712"/>
      <point x="715" y="696"/>
      <point x="632" y="615" type="curve"/>
      <point x="586" y="671"/>
      <point x="484" y="711"/>
      <point x="388" y="711" type="curve" smooth="yes" name="hr01"/>
      <point x="173" y="711"/>
      <point x="41" y="531"/>
      <point x="41" y="338" type="curve" smooth="yes"/>
      <point x="41" y="151"/>
      <point x="175" y="-23"/>
      <point x="396" y="-23" type="curve" smooth="yes"/>
      <point x="499" y="-23"/>
      <point x="574" y="19"/>
      <point x="620" y="63" type="curve"/>
      <point x="673" y="6"/>
      <point x="749" y="-23"/>
      <point x="835" y="-23" type="curve" smooth="yes"/>
      <point x="1010" y="-23"/>
      <point x="1102" y="116"/>
      <point x="1129" y="255" type="curve"/>
    </contour>
    <contour>
      <point x="696" y="473" type="line"/>
      <point x="696" y="572"/>
      <point x="750" y="637"/>
      <point x="804" y="637" type="curve" smooth="yes" name="hr02"/>
      <point x="898" y="637"/>
      <point x="927" y="535"/>
      <point x="927" y="473" type="curve"/>
    </contour>
    <contour>
      <point x="521" y="299" type="curve" smooth="yes"/>
      <point x="521" y="122"/>
      <point x="490" y="53"/>
      <point x="431" y="53" type="curve" smooth="yes"/>
      <point x="346" y="53"/>
      <point x="261" y="213"/>
      <point x="261" y="401" type="curve" smooth="yes"/>
      <point x="261" y="582"/>
      <point x="311" y="636"/>
      <point x="357" y="636" type="curve" smooth="yes"/>
      <point x="463" y="636"/>
      <point x="521" y="462"/>
    </contour>
  </outline>
</glyph>
<glyph name="florin" format="2">
  <advance width="944"/>
  <unicode hex="0192"/>
  <outline>
    <contour>
      <point x="929" y="1128" type="curve" smooth="yes"/>
      <point x="929" y="1187"/>
      <point x="888" y="1253"/>
      <point x="781" y="1253" type="curve" smooth="yes"/>
      <point x="528" y="1253"/>
      <point x="463" y="847"/>
      <point x="424" y="821" type="curve" smooth="yes"/>
      <point x="396" y="803"/>
      <point x="316" y="794"/>
      <point x="281" y="791" type="curve"/>
      <point x="262" y="696" type="line"/>
      <point x="407" y="696" type="line"/>
      <point x="367" y="541"/>
      <point x="343" y="422"/>
      <point x="313" y="265" type="curve" smooth="yes"/>
      <point x="289" y="140"/>
      <point x="266" y="-38"/>
      <point x="250" y="-110" type="curve" smooth="yes"/>
      <point x="235" y="-172"/>
      <point x="203" y="-311"/>
      <point x="161" y="-311" type="curve" smooth="yes"/>
      <point x="148" y="-311"/>
      <point x="140" y="-307"/>
      <point x="140" y="-293" type="curve" smooth="yes"/>
      <point x="140" y="-281"/>
      <point x="172" y="-272"/>
      <point x="172" y="-222" type="curve" smooth="yes"/>
      <point x="172" y="-174"/>
      <point x="125" y="-156"/>
      <point x="97" y="-156" type="curve" smooth="yes"/>
      <point x="24" y="-156"/>
      <point x="0" y="-212"/>
      <point x="0" y="-259" type="curve" smooth="yes"/>
      <point x="0" y="-353"/>
      <point x="76" y="-389"/>
      <point x="132" y="-389" type="curve" smooth="yes"/>
      <point x="341" y="-389"/>
      <point x="452" y="-66"/>
      <point x="496" y="91" type="curve" smooth="yes"/>
      <point x="553" y="302"/>
      <point x="601" y="480"/>
      <point x="638" y="696" type="curve"/>
      <point x="784" y="696" type="line"/>
      <point x="805" y="791" type="line"/>
      <point x="658" y="791" type="line"/>
      <point x="689" y="958"/>
      <point x="690" y="1190"/>
      <point x="762" y="1190" type="curve" smooth="yes"/>
      <point x="776" y="1190"/>
      <point x="787" y="1183"/>
      <point x="787" y="1170" type="curve" smooth="yes"/>
      <point x="787" y="1142"/>
      <point x="762" y="1136"/>
      <point x="762" y="1094" type="curve" smooth="yes"/>
      <point x="762" y="1052"/>
      <point x="798" y="1030"/>
      <point x="840" y="1030" type="curve" smooth="yes" name="hr01"/>
      <point x="908" y="1030"/>
      <point x="929" y="1091"/>
    </contour>
  </outline>
</glyph>
<glyph name="circumflex" format="2">
  <advance width="487"/>
  <unicode hex="02C6"/>
  <anchor x="242" y="770" name="_above"/>
  <outline>
    <contour>
      <point x="507" y="799" type="line"/>
      <point x="316" y="1083" type="line"/>
      <point x="172" y="1083" type="line"/>
      <point x="-20" y="799" type="line"/>
      <point x="44" y="799" type="line"/>
      <point x="244" y="949" type="line"/>
      <point x="444" y="799" type="line"/>
    </contour>
  </outline>
</glyph>
<glyph name="caron" format="2">
  <unicode hex="02C7"/>
  <advance width="487"/>
  <anchor x="245" y="760" name="_above"/>
  <outline>
    <contour>
      <point x="497" y="1084" type="line"/>
      <point x="434" y="1084" type="line"/>
      <point x="244" y="934" type="line"/>
      <point x="54" y="1084" type="line"/>
      <point x="-10" y="1084" type="line"/>
      <point x="172" y="801" type="line"/>
      <point x="316" y="801" type="line"/>
    </contour>
  </outline>
</glyph>
<glyph name="firsttonechinese" format="2">
  <advance width="584"/>
  <unicode hex="02C9"/>
  <outline>
    <contour>
      <point x="584" y="1018" type="line"/>
      <point x="584" y="1178" type="line"/>
      <point x="0" y="1178" type="line"/>
      <point x="0" y="1018" type="line"/>
    </contour>
  </outline>
</glyph>
<glyph name="colontriangularmod" format="2">
  <advance width="549"/>
  <unicode hex="02D0"/>
  <outline>
    <contour>
      <point x="419" y="726" type="line"/>
      <point x="130" y="726" type="line"/>
      <point x="217" y="431" type="line"/>
      <point x="333" y="431" type="line"/>
    </contour>
    <contour>
      <point x="419" y="0" type="line"/>
      <point x="333" y="296" type="line"/>
      <point x="217" y="296" type="line"/>
      <point x="130" y="0" type="line"/>
    </contour>
  </outline>
</glyph>
<glyph name="breve" format="2">
  <advance width="881"/>
  <unicode hex="02D8"/>
  <outline>
    <contour>
      <point x="773" y="1258" type="curve"/>
      <point x="704" y="1258" type="line"/>
      <point x="689" y="1175"/>
      <point x="586" y="1118"/>
      <point x="442" y="1118" type="curve" smooth="yes"/>
      <point x="304" y="1118"/>
      <point x="194" y="1171"/>
      <point x="174" y="1258" type="curve"/>
      <point x="108" y="1258" type="line"/>
      <point x="155" y="1056"/>
      <point x="266" y="955"/>
      <point x="443" y="955" type="curve" smooth="yes"/>
      <point x="614" y="955"/>
      <point x="734" y="1062"/>
    </contour>
  </outline>
</glyph>
<glyph name="dotaccent" format="2">
  <advance width="329"/>
  <unicode hex="02D9"/>
  <outline>
    <contour>
      <point x="165" y="546" type="curve" smooth="yes"/>
      <point x="241" y="546"/>
      <point x="309" y="616"/>
      <point x="309" y="703" type="curve" smooth="yes"/>
      <point x="309" y="786"/>
      <point x="241" y="855"/>
      <point x="165" y="855" type="curve" smooth="yes"/>
      <point x="82" y="855"/>
      <point x="20" y="786"/>
      <point x="20" y="703" type="curve" smooth="yes"/>
      <point x="20" y="616"/>
      <point x="82" y="546"/>
    </contour>
  </outline>
</glyph>
<glyph name="ring" format="2">
  <advance width="318"/>
  <unicode hex="02DA"/>
  <anchor x="161" y="760" name="_above"/>
  <outline>
    <contour>
      <point x="318" y="960" type="curve" smooth="yes"/>
      <point x="318" y="1047"/>
      <point x="247" y="1118"/>
      <point x="159" y="1118" type="curve" smooth="yes"/>
      <point x="71" y="1118"/>
      <point x="0" y="1047"/>
      <point x="0" y="960" type="curve" smooth="yes"/>
      <point x="0" y="872"/>
      <point x="71" y="801"/>
      <point x="159" y="801" type="curve" smooth="yes"/>
      <point x="247" y="801"/>
      <point x="318" y="872"/>
    </contour>
    <contour>
      <point x="242" y="960" type="curve" smooth="yes"/>
      <point x="242" y="913"/>
      <point x="205" y="876"/>
      <point x="159" y="876" type="curve" smooth="yes"/>
      <point x="113" y="876"/>
      <point x="76" y="913"/>
      <point x="76" y="960" type="curve" smooth="yes"/>
      <point x="76" y="1005"/>
      <point x="113" y="1043"/>
      <point x="159" y="1043" type="curve" smooth="yes"/>
      <point x="205" y="1043"/>
      <point x="242" y="1005"/>
    </contour>
  </outline>
</glyph>
<glyph name="ogonek" format="2">
  <advance width="380"/>
  <unicode hex="02DB"/>
  <outline>
    <contour>
      <point x="362" y="-195" type="qcurve"/>
      <point x="317" y="-144" type="line"/>
      <point x="249" y="-213"/>
      <point x="203" y="-213" type="qcurve" smooth="yes"/>
      <point x="180" y="-213"/>
      <point x="145" y="-175"/>
      <point x="145" y="-152" type="qcurve" smooth="yes"/>
      <point x="145" y="-66"/>
      <point x="226" y="-2" type="qcurve"/>
      <point x="143" y="-2" type="line"/>
      <point x="102" y="-27"/>
      <point x="62" y="-80" type="qcurve" smooth="yes"/>
      <point x="19" y="-137"/>
      <point x="20" y="-178" type="qcurve" smooth="yes"/>
      <point x="21" y="-233"/>
      <point x="91" y="-309"/>
      <point x="149" y="-309" type="qcurve" smooth="yes"/>
      <point x="237" y="-309"/>
    </contour>
  </outline>
</glyph>
<glyph name="tilde" format="2">
  <advance width="584"/>
  <unicode hex="02DC"/>
  <anchor x="299" y="912" name="_above"/>
  <outline>
    <contour>
      <point x="626" y="1278" type="curve"/>
      <point x="554" y="1278" type="line"/>
      <point x="544" y="1211"/>
      <point x="512" y="1187"/>
      <point x="468" y="1187" type="curve" smooth="yes"/>
      <point x="379" y="1187"/>
      <point x="319" y="1270"/>
      <point x="208" y="1270" type="curve" smooth="yes" name="hr01"/>
      <point x="95" y="1270"/>
      <point x="-6" y="1160"/>
      <point x="-24" y="1009" type="curve"/>
      <point x="53" y="1009" type="line"/>
      <point x="53" y="1062"/>
      <point x="109" y="1104"/>
      <point x="154" y="1104" type="curve" smooth="yes"/>
      <point x="266" y="1104"/>
      <point x="286" y="1018"/>
      <point x="420" y="1018" type="curve" smooth="yes" name="hr02"/>
      <point x="532" y="1018"/>
      <point x="622" y="1123"/>
    </contour>
  </outline>
</glyph>
<glyph name="Delta" format="2">
  <advance width="974"/>
  <unicode hex="0394"/>
  <outline>
    <contour>
      <point x="954" y="-10" type="line"/>
      <point x="516" y="1056" type="line"/>
      <point x="20" y="-10" type="line"/>
    </contour>
    <contour>
      <point x="752" y="73" type="line"/>
      <point x="131" y="73" type="line"/>
      <point x="461" y="777" type="line"/>
    </contour>
  </outline>
</glyph>
<glyph name="pi" format="2">
  <advance width="964"/>
  <unicode hex="03C0"/>
  <outline>
    <contour>
      <point x="894" y="224" type="curve"/>
      <point x="859" y="224" type="line"/>
      <point x="859" y="165"/>
      <point x="849" y="119"/>
      <point x="828" y="84" type="curve" smooth="yes"/>
      <point x="810" y="54"/>
      <point x="788" y="39"/>
      <point x="761" y="40" type="curve" smooth="yes"/>
      <point x="731" y="41"/>
      <point x="711" y="55"/>
      <point x="701" y="83" type="curve" smooth="yes"/>
      <point x="694" y="104"/>
      <point x="691" y="142"/>
      <point x="691" y="199" type="curve" smooth="yes"/>
      <point x="691" y="614" type="line"/>
      <point x="782" y="614" type="line" smooth="yes"/>
      <point x="857" y="614"/>
      <point x="894" y="658"/>
      <point x="894" y="747" type="curve"/>
      <point x="865" y="747" type="line"/>
      <point x="858" y="722"/>
      <point x="834" y="709"/>
      <point x="793" y="709" type="curve" smooth="yes"/>
      <point x="250" y="709" type="line" smooth="yes"/>
      <point x="193" y="709"/>
      <point x="149" y="687"/>
      <point x="118" y="643" type="curve" smooth="yes"/>
      <point x="93" y="608"/>
      <point x="80" y="570"/>
      <point x="79" y="529" type="curve"/>
      <point x="107" y="529" type="line"/>
      <point x="127" y="586"/>
      <point x="170" y="614"/>
      <point x="235" y="614" type="curve" smooth="yes"/>
      <point x="297" y="614" type="line"/>
      <point x="297" y="427" type="line" smooth="yes"/>
      <point x="297" y="292"/>
      <point x="280" y="197"/>
      <point x="247" y="144" type="curve" smooth="yes"/>
      <point x="224" y="108"/>
      <point x="196" y="90"/>
      <point x="162" y="90" type="curve" smooth="yes"/>
      <point x="129" y="90"/>
      <point x="98" y="133"/>
      <point x="98" y="188" type="curve"/>
      <point x="70" y="188" type="line"/>
      <point x="70" y="49"/>
      <point x="106" y="-20"/>
      <point x="177" y="-20" type="curve" smooth="yes"/>
      <point x="287" y="-20"/>
      <point x="342" y="71"/>
      <point x="342" y="254" type="curve" smooth="yes"/>
      <point x="342" y="614" type="line"/>
      <point x="565" y="614" type="line"/>
      <point x="565" y="173" type="line" smooth="yes"/>
      <point x="565" y="44"/>
      <point x="619" y="-20"/>
      <point x="727" y="-20" type="curve" smooth="yes"/>
      <point x="775" y="-20"/>
      <point x="814" y="0"/>
      <point x="845" y="41" type="curve" smooth="yes"/>
      <point x="878" y="85"/>
      <point x="895" y="146"/>
    </contour>
  </outline>
</glyph>
<glyph name="year-ar" format="2">
  <advance width="1290"/>
  <unicode hex="0601"/>
  <anchor x="556" y="0" name="digitR"/>
  <outline>
    <contour>
      <point x="1260" y="150" type="curve" smooth="yes"/>
      <point x="1260" y="166"/>
      <point x="1250" y="177"/>
      <point x="1236" y="177" type="curve" smooth="yes"/>
      <point x="1218" y="177"/>
      <point x="1200" y="164"/>
      <point x="1131" y="126" type="curve" smooth="yes"/>
      <point x="1038" y="75"/>
      <point x="886" y="61"/>
      <point x="768" y="61" type="curve" smooth="yes"/>
      <point x="644" y="61"/>
      <point x="496" y="113"/>
      <point x="463" y="113" type="curve" smooth="yes" name="hr01"/>
      <point x="426" y="113"/>
      <point x="412" y="89"/>
      <point x="392" y="39" type="curve" smooth="yes"/>
      <point x="367" y="-22"/>
      <point x="355" y="-41"/>
      <point x="312" y="-41" type="curve" smooth="yes" name="hr02"/>
      <point x="296" y="-41"/>
      <point x="235" y="-34"/>
      <point x="190" y="-34" type="curve" smooth="yes"/>
      <point x="146" y="-34"/>
      <point x="62" y="-195"/>
      <point x="30" y="-252" type="curve"/>
      <point x="34" y="-278"/>
      <point x="53" y="-299"/>
      <point x="66" y="-299" type="curve"/>
      <point x="97" y="-270"/>
      <point x="144" y="-212"/>
      <point x="184" y="-212" type="curve" smooth="yes"/>
      <point x="204" y="-212"/>
      <point x="277" y="-220"/>
      <point x="297" y="-220" type="curve" smooth="yes"/>
      <point x="347" y="-220"/>
      <point x="401" y="-164"/>
      <point x="434" y="-86" type="curve"/>
      <point x="510" y="-110"/>
      <point x="610" y="-118"/>
      <point x="713" y="-118" type="curve" smooth="yes" name="hr03"/>
      <point x="903" y="-118"/>
      <point x="1076" y="-36"/>
      <point x="1191" y="57" type="curve" smooth="yes"/>
      <point x="1209" y="71"/>
      <point x="1260" y="123"/>
    </contour>
  </outline>
</glyph>
<glyph name="footnotemarker-ar" format="2">
  <advance width="1211"/>
  <unicode hex="0602"/>
  <anchor x="578" y="0" name="digitR"/>
  <outline>
    <contour>
      <point x="393" y="160" type="curve" smooth="yes"/>
      <point x="393" y="140"/>
      <point x="377" y="115"/>
      <point x="371" y="109" type="curve"/>
      <point x="272" y="130"/>
      <point x="253" y="163"/>
      <point x="253" y="179" type="curve" smooth="yes"/>
      <point x="253" y="208"/>
      <point x="277" y="241"/>
      <point x="321" y="241" type="curve" smooth="yes"/>
      <point x="336" y="241"/>
      <point x="363" y="233"/>
      <point x="379" y="209" type="curve" smooth="yes"/>
      <point x="387" y="197"/>
      <point x="393" y="181"/>
    </contour>
    <contour>
      <point x="1151" y="101" type="curve"/>
      <point x="1053" y="70"/>
      <point x="877" y="54"/>
      <point x="770" y="54" type="curve" smooth="yes"/>
      <point x="678" y="54"/>
      <point x="595" y="54"/>
      <point x="505" y="72" type="curve"/>
      <point x="536" y="122"/>
      <point x="549" y="178"/>
      <point x="549" y="226" type="curve" smooth="yes"/>
      <point x="549" y="272"/>
      <point x="544" y="315"/>
      <point x="520" y="349" type="curve" smooth="yes"/>
      <point x="488" y="394"/>
      <point x="439" y="425"/>
      <point x="380" y="425" type="curve" smooth="yes"/>
      <point x="315" y="425"/>
      <point x="248" y="393"/>
      <point x="187" y="337" type="curve" smooth="yes"/>
      <point x="134" y="288"/>
      <point x="59" y="212"/>
      <point x="59" y="126" type="curve" smooth="yes"/>
      <point x="59" y="-28"/>
      <point x="333" y="-100"/>
      <point x="631" y="-100" type="curve" smooth="yes"/>
      <point x="771" y="-100"/>
      <point x="1022" y="-70"/>
      <point x="1133" y="-5" type="curve"/>
      <point x="1148" y="18"/>
      <point x="1151" y="75"/>
    </contour>
  </outline>
</glyph>
<glyph name="absPageSign" format="2">
  <advance width="1452"/>
  <unicode hex="0603"/>
  <anchor x="157" y="0" name="digit"/>
  <outline>
    <contour>
      <point x="1395" y="433" type="curve" smooth="yes"/>
      <point x="1395" y="495"/>
      <point x="1364" y="585"/>
      <point x="1252" y="585" type="curve" smooth="yes"/>
      <point x="1118" y="585"/>
      <point x="959" y="367"/>
      <point x="887" y="221" type="curve"/>
      <point x="876" y="220"/>
      <point x="868" y="220"/>
      <point x="866" y="220" type="curve"/>
      <point x="813" y="220"/>
      <point x="755" y="265"/>
      <point x="735" y="295" type="curve"/>
      <point x="717" y="295"/>
      <point x="707" y="223"/>
      <point x="688" y="193" type="curve" smooth="yes"/>
      <point x="619" y="81"/>
      <point x="311" y="37"/>
      <point x="180" y="37" type="curve" smooth="yes"/>
      <point x="158" y="37"/>
      <point x="78" y="40"/>
      <point x="68" y="40" type="curve" smooth="yes"/>
      <point x="53" y="40"/>
      <point x="51" y="33"/>
      <point x="51" y="23" type="curve" smooth="yes"/>
      <point x="51" y="-9"/>
      <point x="235" y="-54"/>
      <point x="366" y="-54" type="curve" smooth="yes"/>
      <point x="454" y="-54"/>
      <point x="705" y="-54"/>
      <point x="788" y="48" type="curve"/>
      <point x="796" y="43"/>
      <point x="812" y="39"/>
      <point x="821" y="39" type="curve"/>
      <point x="812" y="18"/>
      <point x="805" y="1"/>
      <point x="805" y="-11" type="curve" smooth="yes"/>
      <point x="805" y="-27"/>
      <point x="855" y="-75"/>
      <point x="863" y="-75" type="curve" name="hr01"/>
      <point x="865" y="-65"/>
      <point x="883" y="5"/>
      <point x="901" y="39" type="curve"/>
      <point x="1149" y="39"/>
      <point x="1395" y="183"/>
    </contour>
    <contour>
      <point x="1281" y="333" type="curve" smooth="yes"/>
      <point x="1281" y="291"/>
      <point x="1193" y="221"/>
      <point x="975" y="221" type="curve"/>
      <point x="1037" y="348"/>
      <point x="1116" y="393"/>
      <point x="1171" y="393" type="curve" smooth="yes"/>
      <point x="1219" y="393"/>
      <point x="1281" y="372"/>
    </contour>
  </outline>
</glyph>
<glyph name="absSamvatSign" format="2">
  <unicode hex="0604"/>
  <advance width="1813"/>
  <anchor x="315" y="0" name="digit"/>
  <outline>
    <contour>
      <point x="1753" y="619" type="curve" smooth="yes"/>
      <point x="1753" y="703"/>
      <point x="1705" y="795"/>
      <point x="1683" y="795" type="curve" smooth="yes"/>
      <point x="1655" y="795"/>
      <point x="1586" y="594"/>
      <point x="1586" y="586" type="curve" smooth="yes"/>
      <point x="1586" y="580"/>
      <point x="1684" y="564"/>
      <point x="1684" y="526" type="curve" smooth="yes"/>
      <point x="1684" y="508"/>
      <point x="1674" y="491"/>
      <point x="1645" y="491" type="curve" smooth="yes"/>
      <point x="1580" y="491"/>
      <point x="1525" y="539"/>
      <point x="1494" y="637" type="curve" smooth="yes"/>
      <point x="1490" y="650"/>
      <point x="1480" y="662"/>
      <point x="1472" y="662" type="curve" smooth="yes"/>
      <point x="1457" y="662"/>
      <point x="1452" y="651"/>
      <point x="1451" y="641" type="curve" smooth="yes"/>
      <point x="1441" y="538"/>
      <point x="1397" y="447"/>
      <point x="1310" y="444" type="curve" smooth="yes" name="hr01"/>
      <point x="1228" y="441"/>
      <point x="1162" y="563"/>
      <point x="1091" y="563" type="curve" smooth="yes" name="hr02"/>
      <point x="1046" y="563"/>
      <point x="1006" y="498"/>
      <point x="965" y="399" type="curve" smooth="yes"/>
      <point x="948" y="358"/>
      <point x="934" y="294"/>
      <point x="934" y="248" type="curve" smooth="yes"/>
      <point x="934" y="226"/>
      <point x="934" y="176"/>
      <point x="950" y="128" type="curve"/>
      <point x="899" y="57"/>
      <point x="793" y="28"/>
      <point x="567" y="28" type="curve" smooth="yes"/>
      <point x="383" y="28"/>
      <point x="111" y="68"/>
      <point x="68" y="78" type="curve" smooth="yes"/>
      <point x="64" y="79"/>
      <point x="50" y="53"/>
      <point x="50" y="13" type="curve" smooth="yes"/>
      <point x="50" y="-10"/>
      <point x="415" y="-157"/>
      <point x="716" y="-157" type="curve" smooth="yes"/>
      <point x="852" y="-157"/>
      <point x="1010" y="-106"/>
      <point x="1056" y="-45" type="curve"/>
      <point x="1092" y="-86"/>
      <point x="1169" y="-116"/>
      <point x="1221" y="-130" type="curve"/>
      <point x="1255" y="-130"/>
      <point x="1274" y="22"/>
      <point x="1274" y="42" type="curve" smooth="yes"/>
      <point x="1274" y="57"/>
      <point x="1271" y="62"/>
      <point x="1253" y="68" type="curve" smooth="yes"/>
      <point x="1121" y="112"/>
      <point x="1022" y="162"/>
      <point x="1022" y="284" type="curve" smooth="yes"/>
      <point x="1022" y="326"/>
      <point x="1049" y="346"/>
      <point x="1060" y="346" type="curve" smooth="yes"/>
      <point x="1098" y="346"/>
      <point x="1178" y="230"/>
      <point x="1263" y="230" type="curve" smooth="yes"/>
      <point x="1360" y="230"/>
      <point x="1400" y="335"/>
      <point x="1445" y="416" type="curve"/>
      <point x="1477" y="354"/>
      <point x="1520" y="291"/>
      <point x="1587" y="291" type="curve" smooth="yes" name="hr03"/>
      <point x="1723" y="291"/>
      <point x="1753" y="539"/>
    </contour>
  </outline>
</glyph>
<glyph name="absNumberSignAbove" format="2">
  <advance width="859"/>
  <unicode hex="0605"/>
  <anchor x="204" y="0" name="digit"/>
  <outline>
    <contour>
      <point x="799" y="1054" type="curve" smooth="yes"/>
      <point x="799" y="1074"/>
      <point x="798" y="1093"/>
      <point x="778" y="1093" type="curve" smooth="yes"/>
      <point x="758" y="1093"/>
      <point x="707" y="1020"/>
      <point x="546" y="1020" type="curve" smooth="yes"/>
      <point x="394" y="1020"/>
      <point x="344" y="1135"/>
      <point x="304" y="1135" type="curve" smooth="yes" name="hr01"/>
      <point x="252" y="1135"/>
      <point x="259" y="1010"/>
      <point x="212" y="1010" type="curve" smooth="yes"/>
      <point x="195" y="1010"/>
      <point x="143" y="1021"/>
      <point x="125" y="1021" type="curve" smooth="yes" name="hr02"/>
      <point x="100" y="1021"/>
      <point x="40" y="863"/>
      <point x="30" y="823" type="curve"/>
      <point x="32" y="809"/>
      <point x="49" y="781"/>
      <point x="53" y="778" type="curve"/>
      <point x="61" y="794"/>
      <point x="113" y="861"/>
      <point x="127" y="861" type="curve" smooth="yes"/>
      <point x="147" y="861"/>
      <point x="172" y="850"/>
      <point x="205" y="850" type="curve" smooth="yes"/>
      <point x="253" y="850"/>
      <point x="260" y="935"/>
      <point x="270" y="935" type="curve" smooth="yes"/>
      <point x="281" y="935"/>
      <point x="380" y="860"/>
      <point x="516" y="860" type="curve" smooth="yes" name="hr03"/>
      <point x="670" y="860"/>
      <point x="799" y="1016"/>
    </contour>
  </outline>
</glyph>
